<svg width="503" height="279" viewBox="0 0 503 279" fill="none" xmlns="http://www.w3.org/2000/svg">
<g clip-path="url(#clip0_5_77)">
<path d="M60.7158 145.419H44.3621C43.7871 145.419 43.2356 145.648 42.829 146.054C42.4224 146.46 42.194 147.01 42.194 147.585V154.753C42.194 155.327 42.4224 155.878 42.829 156.284C43.2356 156.69 43.7871 156.918 44.3621 156.918H47.0722V167.659H58.0057V156.918H60.7158C61.2908 156.918 61.8423 156.69 62.2489 156.284C62.6555 155.878 62.8839 155.327 62.8839 154.753V147.585C62.8839 147.01 62.6555 146.46 62.2489 146.054C61.8423 145.648 61.2908 145.419 60.7158 145.419Z" fill="#FF0000"/>
<path d="M77.0957 211.025C67.0802 196.39 61.9601 178.964 62.4689 161.244C62.478 160.835 62.3451 160.436 62.0928 160.114C61.8405 159.792 61.4843 159.567 61.0848 159.477V156.379H43.8132V159.434H43.5752C43.3316 159.434 43.0907 159.485 42.8675 159.582C42.6443 159.68 42.4436 159.822 42.278 160C42.1123 160.179 41.9853 160.389 41.9048 160.619C41.8243 160.849 41.7921 161.092 41.8101 161.335C43.1708 180.277 38.5761 197.264 28.026 212.296C27.4189 213.159 27.1088 214.197 27.1421 215.251L29.0307 273.592C29.0761 274.893 29.6229 276.126 30.5572 277.035C31.4914 277.943 32.7408 278.456 34.0446 278.466H73.1104C74.429 278.455 75.6913 277.931 76.6285 277.004C77.5656 276.078 78.1034 274.822 78.1273 273.506L78.8551 216.862C78.8766 214.783 78.2628 212.747 77.0957 211.025Z" fill="#3F3D56"/>
<path opacity="0.2" d="M57.3066 147.755C57.3066 148.994 56.8138 150.182 55.9366 151.058C55.0593 151.935 53.8695 152.427 52.6289 152.427C51.3883 152.427 50.1985 151.935 49.3212 151.058C48.444 150.182 47.9512 148.994 47.9512 147.755" fill="black"/>
<path d="M70.9115 230.404H66.1809C65.7293 227.477 64.2437 224.809 61.993 222.881C59.7423 220.953 56.875 219.893 53.9098 219.893C50.9446 219.893 48.0773 220.953 45.8265 222.881C43.5758 224.809 42.0903 227.477 41.6386 230.404H36.9077C36.4044 230.404 35.907 230.513 35.4497 230.723C34.9923 230.933 34.5859 231.239 34.2581 231.62C33.9304 232.002 33.6891 232.45 33.5509 232.933C33.4127 233.416 33.3807 233.924 33.4573 234.421L38.5957 267.776H68.1014L74.3428 234.533C74.4373 234.029 74.4196 233.511 74.2908 233.015C74.1621 232.52 73.9255 232.058 73.5979 231.664C73.2703 231.27 72.8597 230.952 72.3954 230.735C71.9311 230.517 71.4244 230.404 70.9115 230.404Z" fill="#FF0000"/>
<path d="M468.445 176.791L467.311 222.083L465.905 278.248H418.072L416.425 212.444L415.532 176.791H468.445Z" fill="#FBFBFB"/>
<path d="M416.924 212.432L416.044 177.291H467.933L466.811 222.071L465.418 277.748H418.559L416.924 212.432L416.496 212.442L416.924 212.432Z" stroke="black" stroke-opacity="0.18"/>
<path d="M422.302 126.003L415.855 128.08L452.293 241.195L458.739 239.119L422.302 126.003Z" fill="#D7D7D7"/>
<path d="M467 179.445L465 277.5H419L417 179.445C421.064 178.005 425.32 177.636 429.503 178.362C433.685 179.087 437.704 180.891 441.309 183.661C448.846 189.284 459.323 177.874 467 179.445Z" fill="url(#paint0_linear_5_77)"/>
<path d="M247.792 277.862C324.625 277.862 386.91 215.66 386.91 138.931C386.91 62.2014 324.625 0 247.792 0C170.96 0 108.675 62.2014 108.675 138.931C108.675 215.66 170.96 277.862 247.792 277.862Z" fill="#BDBDBD"/>
<path opacity="0.2" d="M247.792 240.337C224.3 240.337 201.535 232.202 183.375 217.319C165.216 202.435 152.785 181.724 148.202 158.714C143.619 135.704 147.167 111.819 158.241 91.1289C169.316 70.4385 187.231 54.2229 208.935 45.245C230.639 36.267 254.789 35.0823 277.269 41.8926C299.75 48.7029 319.17 63.087 332.222 82.5938C345.273 102.101 351.148 125.523 348.846 148.871C346.543 172.219 336.205 194.047 319.594 210.636C310.187 220.082 298.997 227.571 286.672 232.669C274.347 237.767 261.132 240.373 247.792 240.337ZM247.792 43.7789C195.255 43.7789 152.513 86.4638 152.513 138.931C152.513 191.398 195.255 234.083 247.792 234.083C300.33 234.083 343.072 191.398 343.072 138.931C343.072 86.4638 300.33 43.7789 247.792 43.7789Z" fill="black"/>
<path d="M247.792 237.21C302.143 237.21 346.203 193.209 346.203 138.931C346.203 84.6528 302.143 40.6518 247.792 40.6518C193.441 40.6518 149.381 84.6528 149.381 138.931C149.381 193.209 193.441 237.21 247.792 237.21Z" fill="#3F3D56"/>
<path d="M174.656 103.825C173.751 101.989 173.205 99.9857 173.047 97.9303C172.89 95.8748 173.125 93.8074 173.74 91.8463C174.354 89.8851 175.335 88.0687 176.627 86.5007C177.919 84.9328 179.497 83.6442 181.27 82.7085C183.043 81.7729 184.976 81.2085 186.96 81.0478C188.943 80.887 190.938 81.133 192.83 81.7716C194.722 82.4102 196.473 83.429 197.985 84.7696C199.497 86.1103 200.738 87.7466 201.639 89.5849L235.344 158.175C236.249 160.011 236.795 162.014 236.953 164.07C237.11 166.125 236.875 168.193 236.26 170.154C235.646 172.115 234.665 173.931 233.373 175.499C232.081 177.067 230.503 178.356 228.73 179.291C226.957 180.227 225.024 180.791 223.04 180.952C221.057 181.113 219.062 180.867 217.17 180.228C215.278 179.59 213.527 178.571 212.015 177.23C210.503 175.89 209.262 174.253 208.361 172.415L174.656 103.825Z" fill="#A81A36"/>
<path opacity="0.2" d="M177.707 105.715L176.424 103.198C182.828 98.2287 190.349 94.5739 198.683 91.878L199.966 94.3945C190.946 96.2704 183.272 99.742 177.707 105.715Z" fill="black"/>
<path opacity="0.2" d="M183.696 117.458L182.413 114.942C188.817 109.972 196.337 106.318 204.672 103.622L205.955 106.138C196.935 108.014 189.26 111.486 183.696 117.458Z" fill="black"/>
<path opacity="0.2" d="M189.684 129.202L188.401 126.686C194.805 121.716 202.326 118.061 210.66 115.366L211.943 117.882C202.923 119.758 195.249 123.23 189.684 129.202Z" fill="black"/>
<path opacity="0.2" d="M195.673 140.946L194.39 138.429C200.794 133.46 208.314 129.805 216.649 127.109L217.932 129.626C208.912 131.502 201.237 134.973 195.673 140.946Z" fill="black"/>
<path opacity="0.2" d="M201.661 152.69L200.378 150.173C206.782 145.204 214.303 141.549 222.637 138.853L223.92 141.37C214.9 143.245 207.226 146.717 201.661 152.69Z" fill="black"/>
<path d="M151.604 126.287C150.727 124.414 150.198 122.37 150.046 120.273C149.894 118.176 150.122 116.067 150.717 114.066C151.312 112.065 152.263 110.212 153.515 108.612C154.767 107.013 156.295 105.698 158.013 104.743C159.731 103.789 161.605 103.213 163.526 103.049C165.448 102.885 167.381 103.136 169.214 103.787C171.047 104.438 172.744 105.478 174.209 106.845C175.674 108.213 176.877 109.882 177.75 111.758L210.409 181.741C212.17 185.524 212.483 189.915 211.279 193.949C210.074 197.984 207.452 201.331 203.987 203.257C200.522 205.182 196.498 205.528 192.8 204.218C189.102 202.908 186.031 200.05 184.263 196.271L151.604 126.287Z" fill="#A81A36"/>
<path opacity="0.2" d="M156.848 126.127L155.565 123.61C161.969 118.641 169.49 114.986 177.824 112.29L179.107 114.807C170.087 116.682 162.413 120.154 156.848 126.127Z" fill="black"/>
<path opacity="0.2" d="M162.837 137.87L161.553 135.354C167.958 130.384 175.478 126.73 183.813 124.034L185.096 126.55C176.075 128.426 168.401 131.898 162.837 137.87Z" fill="black"/>
<path opacity="0.2" d="M168.825 149.614L167.542 147.098C173.946 142.128 181.467 138.473 189.801 135.778L191.084 138.294C182.064 140.17 174.39 143.642 168.825 149.614Z" fill="black"/>
<path opacity="0.2" d="M174.814 161.358L173.53 158.841C179.935 153.872 187.455 150.217 195.79 147.521L197.073 150.038C188.052 151.914 180.378 155.385 174.814 161.358Z" fill="black"/>
<path opacity="0.2" d="M180.802 173.102L179.519 170.585C185.923 165.616 193.444 161.961 201.778 159.265L203.061 161.782C194.041 163.657 186.367 167.129 180.802 173.102Z" fill="black"/>
<path d="M309.711 139.156L309.818 139.156C313.472 139.186 317.051 138.156 320.087 136.202C323.124 134.248 325.477 131.46 326.839 128.202C329.641 121.397 331.053 114.137 330.998 106.819C330.808 75.8449 304.579 50.4341 272.342 50.0056C258.613 49.821 245.24 54.2032 234.49 62.4094C223.739 70.6157 216.273 82.141 213.358 95.0317C210.442 107.922 212.255 121.385 218.49 133.138C224.726 144.891 235 154.211 247.57 159.517C250.892 160.931 254.581 161.346 258.153 160.71C261.725 160.073 265.014 158.415 267.587 155.951C273.108 150.62 279.672 146.391 286.901 143.508C294.131 140.626 301.883 139.146 309.711 139.156Z" fill="#E6E6E6"/>
<path d="M275 127C291.569 127 305 113.792 305 97.5C305 81.2076 291.569 68 275 68C258.431 68 245 81.2076 245 97.5C245 113.792 258.431 127 275 127Z" fill="#F9A825"/>
<path d="M253.5 109.426C254.548 109.426 255.397 108.577 255.397 107.531C255.397 106.485 254.548 105.636 253.5 105.636C252.452 105.636 251.603 106.485 251.603 107.531C251.603 108.577 252.452 109.426 253.5 109.426Z" fill="#3F3D56"/>
<path d="M190.875 111.212C191.922 111.212 192.772 110.364 192.772 109.318C192.772 108.272 191.922 107.423 190.875 107.423C189.827 107.423 188.977 108.272 188.977 109.318C188.977 110.364 189.827 111.212 190.875 111.212Z" fill="#3F3D56"/>
<path d="M263.61 89.7913C264.658 89.7913 265.507 88.9431 265.507 87.8967C265.507 86.8504 264.658 86.0022 263.61 86.0022C262.563 86.0022 261.713 86.8504 261.713 87.8967C261.713 88.9431 262.563 89.7913 263.61 89.7913Z" fill="#3F3D56"/>
<path d="M263.556 144.399C264.604 144.399 265.454 143.551 265.454 142.505C265.454 141.458 264.604 140.61 263.556 140.61C262.509 140.61 261.659 141.458 261.659 142.505C261.659 143.551 262.509 144.399 263.556 144.399Z" fill="#3F3D56"/>
<path d="M301.132 85.8784C302.179 85.8784 303.029 85.0302 303.029 83.9839C303.029 82.9376 302.179 82.0894 301.132 82.0894C300.084 82.0894 299.235 82.9376 299.235 83.9839C299.235 85.0302 300.084 85.8784 301.132 85.8784Z" fill="#3F3D56"/>
<path d="M178.565 137.698C179.613 137.698 180.462 136.85 180.462 135.804C180.462 134.757 179.613 133.909 178.565 133.909C177.517 133.909 176.668 134.757 176.668 135.804C176.668 136.85 177.517 137.698 178.565 137.698Z" fill="#3F3D56"/>
<path d="M192.432 164.948C193.48 164.948 194.329 164.1 194.329 163.054C194.329 162.007 193.48 161.159 192.432 161.159C191.384 161.159 190.535 162.007 190.535 163.054C190.535 164.1 191.384 164.948 192.432 164.948Z" fill="#3F3D56"/>
<path d="M321.5 153C330.06 153 337 145.837 337 137C337 128.163 330.06 121 321.5 121C312.94 121 306 128.163 306 137C306 145.837 312.94 153 321.5 153Z" fill="#DD2727"/>
<path opacity="0.2" d="M334 138C334 141.448 332.736 144.754 330.485 147.192C328.235 149.63 325.183 151 322 151C318.817 151 315.765 149.63 313.515 147.192C311.264 144.754 310 141.448 310 138" fill="black"/>
<path opacity="0.2" d="M310 137C310 133.552 311.264 130.246 313.515 127.808C315.765 125.37 318.817 124 322 124C325.183 124 328.235 125.37 330.485 127.808C332.736 130.246 334 133.552 334 137" fill="black"/>
<path d="M325.447 144.34C325.694 144.34 325.895 144.04 325.895 143.67C325.895 143.3 325.694 143 325.447 143C325.2 143 325 143.3 325 143.67C325 144.04 325.2 144.34 325.447 144.34Z" fill="black"/>
<path d="M321.447 142.34C321.694 142.34 321.895 142.04 321.895 141.67C321.895 141.3 321.694 141 321.447 141C321.2 141 321 141.3 321 141.67C321 142.04 321.2 142.34 321.447 142.34Z" fill="black"/>
<path d="M317.447 144.34C317.694 144.34 317.895 144.04 317.895 143.67C317.895 143.3 317.694 143 317.447 143C317.2 143 317 143.3 317 143.67C317 144.04 317.2 144.34 317.447 144.34Z" fill="black"/>
<path d="M314.447 144.34C314.694 144.34 314.895 144.04 314.895 143.67C314.895 143.3 314.694 143 314.447 143C314.2 143 314 143.3 314 143.67C314 144.04 314.2 144.34 314.447 144.34Z" fill="black"/>
<path d="M328.447 141.34C328.694 141.34 328.895 141.04 328.895 140.67C328.895 140.3 328.694 140 328.447 140C328.2 140 328 140.3 328 140.67C328 141.04 328.2 141.34 328.447 141.34Z" fill="black"/>
<path d="M317.447 140.34C317.694 140.34 317.895 140.04 317.895 139.67C317.895 139.3 317.694 139 317.447 139C317.2 139 317 139.3 317 139.67C317 140.04 317.2 140.34 317.447 140.34Z" fill="black"/>
<path d="M317.895 128.683C317.634 128.668 317.405 128.974 317.384 129.365C317.362 129.757 317.557 130.086 317.818 130.1C318.079 130.114 318.308 129.808 318.33 129.417C318.351 129.026 318.157 128.697 317.895 128.683Z" fill="black"/>
<path d="M322.01 131.028C321.749 131.014 321.52 131.319 321.498 131.711C321.477 132.102 321.671 132.431 321.933 132.445C322.194 132.459 322.423 132.154 322.444 131.762C322.466 131.371 322.271 131.042 322.01 131.028Z" fill="black"/>
<path d="M326.355 129.144C326.094 129.13 325.864 129.435 325.843 129.827C325.822 130.218 326.016 130.547 326.278 130.561C326.539 130.575 326.768 130.269 326.789 129.878C326.81 129.487 326.616 129.158 326.355 129.144Z" fill="black"/>
<path d="M329.527 129.317C329.266 129.302 329.037 129.608 329.015 129.999C328.994 130.391 329.189 130.72 329.45 130.734C329.711 130.748 329.94 130.442 329.961 130.051C329.983 129.66 329.788 129.331 329.527 129.317Z" fill="black"/>
<path d="M286.494 171.882C296.571 177.624 308.995 174.81 314.245 165.597C319.496 156.384 315.583 144.261 305.506 138.518C295.429 132.776 283.005 135.59 277.754 144.803C272.504 154.016 276.417 166.139 286.494 171.882Z" fill="#DD2727"/>
<path opacity="0.2" d="M310.12 164.627C308.072 168.222 304.619 170.822 300.521 171.854C296.424 172.886 292.017 172.267 288.271 170.132C284.524 167.997 281.745 164.522 280.545 160.47C279.344 156.419 279.82 152.123 281.869 148.529" fill="black"/>
<path opacity="0.2" d="M282.463 147.486C284.511 143.891 287.964 141.292 292.062 140.26C296.159 139.227 300.566 139.847 304.312 141.982C308.059 144.116 310.838 147.592 312.038 151.643C313.239 155.695 312.763 159.99 310.714 163.585" fill="black"/>
<path d="M300.944 171.064C301.234 171.229 301.648 171.051 301.868 170.665C302.088 170.279 302.031 169.832 301.74 169.666C301.449 169.501 301.035 169.679 300.815 170.065C300.595 170.451 300.653 170.898 300.944 171.064Z" fill="black"/>
<path d="M292.765 160.732C293.056 160.898 293.47 160.72 293.69 160.334C293.91 159.948 293.852 159.501 293.561 159.335C293.271 159.169 292.857 159.348 292.637 159.734C292.417 160.119 292.474 160.567 292.765 160.732Z" fill="black"/>
<path d="M291.527 165.697C291.817 165.863 292.231 165.685 292.451 165.299C292.671 164.913 292.614 164.466 292.323 164.3C292.032 164.134 291.618 164.313 291.398 164.699C291.178 165.084 291.236 165.532 291.527 165.697Z" fill="black"/>
<path d="M283.527 159.855C283.817 160.021 284.231 159.843 284.451 159.457C284.671 159.071 284.614 158.624 284.323 158.458C284.032 158.292 283.618 158.471 283.398 158.857C283.178 159.243 283.236 159.69 283.527 159.855Z" fill="black"/>
<path d="M301.599 164.385C301.89 164.551 302.304 164.373 302.524 163.987C302.744 163.601 302.686 163.154 302.395 162.988C302.105 162.822 301.691 163.001 301.471 163.387C301.251 163.772 301.308 164.22 301.599 164.385Z" fill="black"/>
<path d="M289.434 157.697C289.725 157.863 290.139 157.685 290.359 157.299C290.579 156.913 290.521 156.466 290.231 156.3C289.94 156.134 289.526 156.313 289.306 156.699C289.086 157.084 289.144 157.532 289.434 157.697Z" fill="black"/>
<path d="M296.698 144.11C296.399 143.92 295.948 144.085 295.69 144.479C295.433 144.873 295.466 145.346 295.766 145.536C296.065 145.726 296.516 145.561 296.773 145.167C297.031 144.774 296.997 144.301 296.698 144.11Z" fill="black"/>
<path d="M295.474 150.344C295.175 150.154 294.724 150.319 294.466 150.713C294.209 151.107 294.242 151.58 294.541 151.77C294.841 151.96 295.292 151.795 295.549 151.401C295.807 151.007 295.773 150.534 295.474 150.344Z" fill="black"/>
<path d="M301.708 151.294C301.409 151.104 300.958 151.269 300.7 151.663C300.443 152.057 300.476 152.53 300.776 152.72C301.075 152.91 301.526 152.745 301.783 152.351C302.041 151.958 302.007 151.484 301.708 151.294Z" fill="black"/>
<path d="M310.014 152.574C309.715 152.384 309.263 152.549 309.006 152.942C308.748 153.336 308.782 153.809 309.081 153.999C309.38 154.19 309.831 154.024 310.089 153.631C310.346 153.237 310.313 152.764 310.014 152.574Z" fill="black"/>
<path d="M207.641 143.506C208.689 143.506 209.538 142.657 209.538 141.611C209.538 140.565 208.689 139.717 207.641 139.717C206.593 139.717 205.744 140.565 205.744 141.611C205.744 142.657 206.593 143.506 207.641 143.506Z" fill="#3F3D56"/>
<path d="M259.208 210.378L213.646 197.76L215.392 191.286L260.953 203.904L259.208 210.378Z" fill="#F9A825"/>
<path d="M252.528 208.215C236.926 211.197 220.899 211.197 205.297 208.215V201.503C220.934 204.091 236.891 204.091 252.528 201.503V208.215Z" fill="#F9A825"/>
<path d="M257.384 188.081C241.782 191.064 225.755 191.064 210.152 188.081V181.369C225.79 183.958 241.747 183.958 257.384 181.369V188.081Z" fill="#F9A825"/>
<path d="M273.716 196.134C258.114 199.117 242.087 199.117 226.485 196.134V189.423C242.122 192.011 258.079 192.011 273.716 189.423V196.134Z" fill="#F9A825"/>
<path d="M277.689 203.74C262.087 206.723 246.06 206.723 230.457 203.74V197.029C246.095 199.617 262.052 199.617 277.689 197.029V203.74Z" fill="#F9A825"/>
<path d="M291.54 213.679L244.942 221.496L243.861 214.875L290.459 207.058L291.54 213.679Z" fill="#F9A825"/>
<path d="M284.579 214.54C271.66 223.84 257.099 230.622 241.662 234.529L238.897 228.431C254.2 224.152 268.697 217.4 281.814 208.441L284.579 214.54Z" fill="#F9A825"/>
<path d="M280.697 194.19C267.778 203.49 253.217 210.272 237.78 214.18L235.015 208.082C250.318 203.802 264.815 197.05 277.932 188.092L280.697 194.19Z" fill="#F9A825"/>
<path d="M298.855 194.595C285.936 203.896 271.376 210.677 255.938 214.585L253.173 208.487C268.476 204.208 282.973 197.455 296.09 188.497L298.855 194.595Z" fill="#F9A825"/>
<path d="M257.233 226.705C241.42 228.21 225.463 226.705 210.21 222.271L210.84 215.589C226.165 219.634 242.052 221.132 257.863 220.024L257.233 226.705Z" fill="#F9A825"/>
<path d="M263.958 207.116C248.144 208.621 232.188 207.116 216.935 202.682L217.565 196C232.89 200.045 248.777 201.543 264.588 200.435L263.958 207.116Z" fill="#F9A825"/>
<path d="M272.992 209.711C257.39 212.694 241.362 212.694 225.76 209.711V203C241.397 205.588 257.355 205.588 272.992 203V209.711Z" fill="#F9A825"/>
<path d="M263.233 220.693C247.42 222.198 231.463 220.693 216.21 216.259L216.84 209.577C232.165 213.622 248.052 215.12 263.863 214.012L263.233 220.693Z" fill="#F9A825"/>
<path d="M304.634 217.496C290.899 225.542 275.766 230.927 260.029 233.368L257.85 227.037C273.486 224.214 288.554 218.852 302.454 211.165L304.634 217.496Z" fill="#F9A825"/>
<path d="M305.598 199.825C292.679 209.125 278.119 215.907 262.681 219.815L259.917 213.717C275.219 209.438 289.716 202.685 302.834 193.727L305.598 199.825Z" fill="#F9A825"/>
<path d="M249.134 186.73H246.898V188.964H249.134V186.73Z" fill="#00BF71"/>
<path d="M255.844 225.595H253.608V227.829H255.844V225.595Z" fill="#00BF71"/>
<path d="M220.058 186.73H217.822V188.964H220.058V186.73Z" fill="#00BF71"/>
<path d="M271.948 214.427H269.711V216.661H271.948V214.427Z" fill="#00BF71"/>
<path d="M273.29 201.472H271.053V203.706H273.29V201.472Z" fill="#00BF71"/>
<path d="M236.394 195.356L233.803 193.601L232.798 195.079L235.39 196.835L236.394 195.356Z" fill="#00BF71"/>
<path d="M262.786 200.27L260.195 198.515L259.191 199.993L261.782 201.749L262.786 200.27Z" fill="#00BF71"/>
<path d="M230.579 208.758L227.988 207.002L226.983 208.481L229.574 210.237L230.579 208.758Z" fill="#00BF71"/>
<path d="M246.983 208.628L248.741 206.04L247.26 205.037L245.502 207.625L246.983 208.628Z" fill="#00BF71"/>
<path d="M259.06 211.755L260.818 209.167L259.338 208.164L257.58 210.752L259.06 211.755Z" fill="#00BF71"/>
<path d="M291.271 201.033L293.029 198.446L291.548 197.442L289.79 200.03L291.271 201.033Z" fill="#00BF71"/>
<path d="M503 277.712H-8V279H503V277.712Z" fill="#3F3D56"/>
</g>
<defs>
<linearGradient id="paint0_linear_5_77" x1="445.271" y1="267.816" x2="434.562" y2="105.394" gradientUnits="userSpaceOnUse">
<stop offset="0.316445" stop-color="#664532"/>
<stop offset="0.494219" stop-color="white" stop-opacity="0.64"/>
</linearGradient>
<clipPath id="clip0_5_77">
<rect width="511" height="279" fill="white" transform="translate(-8)"/>
</clipPath>
</defs>
</svg>
