<svg width="456" height="372" viewBox="0 0 456 372" fill="none" xmlns="http://www.w3.org/2000/svg">
<g clip-path="url(#clip0_3_166)">
<path opacity="0.1" d="M46.9967 201.405C63.8048 230.147 60.6384 268.735 53.2379 299.045C50.7588 309.189 47.9086 319.898 50.0302 331.362C52.6101 345.385 62.0268 356.575 71.5673 363.047C88.9482 374.865 108.804 374.998 123.256 363.396C135.748 353.366 143.973 335.571 156.708 326.105C178.052 310.225 207.279 320.815 232.688 336.662C250.664 347.874 270.442 362.011 287.053 354.645C298.743 349.46 306.033 334.246 309.442 317.587C311.087 309.542 312.082 300.741 315.858 294.667C318.098 291.055 321.182 288.676 324.372 286.746C353.515 269.093 392.933 285.311 421.059 265.201C440.044 251.628 450.845 222.95 454.405 192.099C457.966 161.248 455.065 128.087 451.422 95.4169C448.833 72.1987 445.328 47.3211 433.67 28.2194C421.339 8.00834 401.891 -1.33394 384.983 0.142119C368.074 1.61818 353.373 12.487 340.726 25.8449C324.903 42.5446 310.634 64.0071 290.164 69.0403C276.225 72.4692 260.998 67.7843 246.174 64.9926C221.429 60.3215 197.019 60.9449 172.783 61.9305C149.582 62.8748 126.239 64.1858 104.615 72.2125C89.3148 77.8921 77.5794 90.1728 63.2916 98.0069C53.9848 103.114 43.4866 103.549 34.8122 110.443C24.1261 118.938 14.8789 134.854 19.1497 155.34C23.2142 174.808 38.0611 186.149 46.9967 201.405Z" fill="#FFDC63"/>
<path d="M3.26263 140.882C3.26263 140.882 -19.4476 176.371 55.0112 176.99C55.0112 176.99 56.1064 146.103 31.7649 133.377C27.0318 130.892 21.5517 130.229 16.3629 131.515C11.1741 132.801 6.63695 135.946 3.61089 140.354L3.26263 140.882Z" fill="#FFDC63"/>
<path d="M3.43219 140.286C3.43219 140.286 41.5712 147.803 55.0113 176.99" stroke="#535461" stroke-miterlimit="10"/>
<path d="M58.3381 172.213C58.3381 172.213 33.8499 140.556 36.0861 109.348C37.0026 96.2512 33.9278 83.1684 26.8252 72.1208C23.4455 66.89 19.594 61.9798 15.3188 57.4519" stroke="#535461" stroke-width="2" stroke-miterlimit="10"/>
<path d="M16.6019 37.7725C18.3111 42.1549 15.3372 57.9653 15.3372 57.9653C15.3372 57.9653 2.44241 48.3388 0.733184 43.9702C-0.0481915 41.8737 0.0260101 39.5539 0.939767 37.5116C1.85352 35.4694 3.53352 33.8686 5.61701 33.0549C7.7005 32.2412 10.0203 32.2798 12.0756 33.1625C14.1308 34.0451 15.7566 35.701 16.6019 37.7725Z" fill="#FFDC63"/>
<path d="M39.2067 56.9339C38.2627 61.5454 27.1734 73.198 27.1734 73.198C27.1734 73.198 21.5738 58.1165 22.5177 53.4866C22.744 52.3904 23.1839 51.3495 23.8123 50.4234C24.4407 49.4972 25.2453 48.704 26.1801 48.0889C27.115 47.4738 28.1618 47.0489 29.2607 46.8385C30.3597 46.6281 31.4894 46.6364 32.5852 46.8627C33.681 47.089 34.7215 47.5291 35.6473 48.1577C36.5731 48.7863 37.3661 49.5912 37.981 50.5264C38.5958 51.4616 39.0206 52.5088 39.2309 53.6082C39.4412 54.7076 39.433 55.8376 39.2067 56.9339Z" fill="#FFDC63"/>
<path d="M54.7867 98.6487C51.6432 102.151 36.1961 106.611 36.1961 106.611C36.1961 106.611 38.973 90.7641 42.1119 87.2619C42.8544 86.412 43.7584 85.7181 44.7712 85.2206C45.784 84.7231 46.8855 84.4318 48.0118 84.3636C49.1381 84.2955 50.2667 84.4519 51.3321 84.8237C52.3974 85.1955 53.3783 85.7753 54.2179 86.5295C55.0574 87.2837 55.7387 88.1972 56.2224 89.217C56.706 90.2368 56.9824 91.3426 57.0353 92.4701C57.0882 93.5976 56.9167 94.7244 56.5307 95.7851C56.1447 96.8457 55.5519 97.8191 54.7867 98.6487Z" fill="#FFDC63"/>
<path d="M59.5203 132.873C57.0137 136.857 42.5381 143.875 42.5381 143.875C42.5381 143.875 42.5976 127.789 45.1042 123.806C45.6881 122.834 46.46 121.989 47.3746 121.319C48.2892 120.65 49.3282 120.169 50.4308 119.907C51.5333 119.644 52.6771 119.604 53.7953 119.789C54.9135 119.974 55.9835 120.38 56.9427 120.984C57.9019 121.588 58.731 122.377 59.3815 123.306C60.0319 124.234 60.4906 125.283 60.7306 126.391C60.9706 127.5 60.9872 128.644 60.7794 129.759C60.5716 130.873 60.1435 131.935 59.5203 132.882V132.873Z" fill="#FFDC63"/>
<path d="M10.8327 80.5646C15.1676 82.3982 31.0455 79.8404 31.0455 79.8404C31.0455 79.8404 21.7937 66.675 17.4451 64.8459C16.4133 64.4116 15.3062 64.1848 14.1869 64.1785C13.0675 64.1722 11.9579 64.3865 10.9213 64.8092C9.8848 65.2319 8.94163 65.8547 8.14568 66.642C7.34974 67.4293 6.7166 68.3658 6.28243 69.3979C5.40558 71.4823 5.39237 73.8298 6.24571 75.924C7.09906 78.0182 8.74905 79.6875 10.8327 80.5646Z" fill="#FFDC63"/>
<path d="M16.8494 120.505C21.5325 120.964 35.9166 113.762 35.9166 113.762C35.9166 113.762 23.1684 103.989 18.4623 103.544C16.2472 103.392 14.0603 104.112 12.3674 105.549C10.6745 106.986 9.60953 109.028 9.39924 111.239C9.18896 113.45 9.85001 115.656 11.2416 117.387C12.6332 119.118 14.6453 120.237 16.8494 120.505Z" fill="#FFDC63"/>
<path d="M28.0257 158.539C32.5668 159.772 47.959 155.115 47.959 155.115C47.959 155.115 37.0209 143.32 32.4798 142.092C31.3927 141.775 30.2533 141.678 29.1284 141.807C28.0034 141.935 26.9154 142.287 25.9279 142.841C24.9404 143.396 24.0733 144.141 23.3773 145.035C22.6813 145.928 22.1703 146.952 21.8742 148.045C21.5781 149.138 21.5029 150.28 21.6529 151.402C21.803 152.525 22.1753 153.607 22.748 154.584C23.3208 155.561 24.0825 156.414 24.9887 157.093C25.8949 157.772 26.9274 158.264 28.0257 158.539Z" fill="#FFDC63"/>
<path opacity="0.25" d="M16.6019 37.7725C18.3111 42.1549 15.3372 57.9653 15.3372 57.9653C15.3372 57.9653 2.44241 48.3388 0.733184 43.9702C-0.0481915 41.8737 0.0260101 39.5539 0.939767 37.5116C1.85352 35.4694 3.53352 33.8686 5.61701 33.0549C7.7005 32.2412 10.0203 32.2798 12.0756 33.1625C14.1308 34.0451 15.7566 35.701 16.6019 37.7725Z" fill="black"/>
<path opacity="0.25" d="M39.2067 56.9339C38.2627 61.5454 27.1734 73.198 27.1734 73.198C27.1734 73.198 21.5738 58.1165 22.5177 53.4866C22.744 52.3904 23.1839 51.3495 23.8123 50.4234C24.4407 49.4972 25.2453 48.704 26.1801 48.0889C27.115 47.4738 28.1618 47.0489 29.2607 46.8385C30.3597 46.6281 31.4894 46.6364 32.5852 46.8627C33.681 47.089 34.7215 47.5291 35.6473 48.1577C36.5731 48.7863 37.3661 49.5912 37.981 50.5264C38.5958 51.4616 39.0206 52.5088 39.2309 53.6082C39.4412 54.7076 39.433 55.8376 39.2067 56.9339Z" fill="black"/>
<path opacity="0.25" d="M54.7867 98.6487C51.6432 102.151 36.1961 106.611 36.1961 106.611C36.1961 106.611 38.973 90.7641 42.1119 87.2619C42.8544 86.412 43.7584 85.7181 44.7712 85.2206C45.784 84.7231 46.8855 84.4318 48.0118 84.3636C49.1381 84.2955 50.2667 84.4519 51.3321 84.8237C52.3974 85.1955 53.3783 85.7753 54.2179 86.5295C55.0574 87.2837 55.7387 88.1972 56.2224 89.217C56.706 90.2368 56.9824 91.3426 57.0353 92.4701C57.0882 93.5976 56.9167 94.7244 56.5307 95.7851C56.1447 96.8457 55.5519 97.8191 54.7867 98.6487Z" fill="black"/>
<path opacity="0.25" d="M59.5203 132.873C57.0137 136.857 42.5381 143.875 42.5381 143.875C42.5381 143.875 42.5976 127.789 45.1042 123.806C45.6881 122.834 46.46 121.989 47.3746 121.319C48.2892 120.65 49.3282 120.169 50.4308 119.907C51.5333 119.644 52.6771 119.604 53.7953 119.789C54.9135 119.974 55.9835 120.38 56.9427 120.984C57.9019 121.588 58.731 122.377 59.3815 123.306C60.0319 124.234 60.4906 125.283 60.7306 126.391C60.9706 127.5 60.9872 128.644 60.7794 129.759C60.5716 130.873 60.1435 131.935 59.5203 132.882V132.873Z" fill="black"/>
<path opacity="0.25" d="M10.8327 80.5646C15.1676 82.3982 31.0455 79.8404 31.0455 79.8404C31.0455 79.8404 21.7937 66.675 17.4451 64.8459C16.4133 64.4116 15.3062 64.1848 14.1869 64.1785C13.0675 64.1722 11.9579 64.3865 10.9213 64.8092C9.8848 65.2319 8.94163 65.8547 8.14568 66.642C7.34974 67.4293 6.7166 68.3658 6.28243 69.3979C5.40558 71.4823 5.39237 73.8298 6.24571 75.924C7.09906 78.0182 8.74905 79.6875 10.8327 80.5646Z" fill="black"/>
<path opacity="0.25" d="M16.8494 120.505C21.5325 120.964 35.9166 113.762 35.9166 113.762C35.9166 113.762 23.1684 103.989 18.4623 103.544C16.2472 103.392 14.0603 104.112 12.3674 105.549C10.6745 106.986 9.60953 109.028 9.39924 111.239C9.18896 113.45 9.85001 115.656 11.2416 117.387C12.6332 119.118 14.6453 120.237 16.8494 120.505Z" fill="black"/>
<path opacity="0.25" d="M28.0257 158.539C32.5668 159.772 47.959 155.115 47.959 155.115C47.959 155.115 37.0209 143.32 32.4798 142.092C31.3927 141.775 30.2533 141.678 29.1284 141.807C28.0034 141.935 26.9154 142.287 25.9279 142.841C24.9404 143.396 24.0733 144.141 23.3773 145.035C22.6813 145.928 22.1703 146.952 21.8742 148.045C21.5781 149.138 21.5029 150.28 21.6529 151.402C21.803 152.525 22.1753 153.607 22.748 154.584C23.3208 155.561 24.0825 156.414 24.9887 157.093C25.8949 157.772 26.9274 158.264 28.0257 158.539Z" fill="black"/>
<path d="M56.363 64.1996V220.896L264.769 180.396L260.787 60.216L56.363 64.1996Z" fill="#5F546F"/>
<path opacity="0.1" d="M56.363 64.1996V220.896L264.769 180.396L260.787 60.216L56.363 64.1996Z" fill="black"/>
<path d="M448.123 248.95V300.741L227.771 365.142L225.521 363.978L51.217 273.516V59.3863L266.927 52.414L268.256 171.265L259.627 173.923L256.31 62.7602L66.4855 69.3475L65.1566 230.358L230.424 302.73L230.548 302.703L448.123 248.95Z" fill="#5F546F"/>
<path opacity="0.1" d="M448.123 248.95V300.741L227.771 365.142L225.521 363.978L230.548 302.703L448.123 248.95Z" fill="black"/>
<path d="M182.47 173.754C182.47 173.754 75.7831 184.402 65.4086 199.828C55.0342 215.253 65.3262 234.176 65.3262 234.176L230.259 305.884L453.933 248.125C453.933 248.125 447.976 207.625 429.376 202.977C410.777 198.329 262.78 166.451 262.78 166.451C262.78 166.451 203.044 162.798 182.47 173.754Z" fill="#EBECF0"/>
<path d="M65.3261 199.979L233.577 258.077C233.577 258.077 413.04 203.633 438.463 208.776C438.463 208.776 312.907 163.829 262.78 165.782C222.817 167.341 180.976 173.905 180.976 173.905C180.976 173.905 69.9681 185.044 65.3261 199.979Z" fill="#F8F9FA"/>
<path d="M136.606 105.441L84.3944 149.455C78.5886 154.349 77.8481 163.025 82.7405 168.833L108.982 199.985C113.875 205.793 122.547 206.534 128.353 201.64L180.564 157.626C186.37 152.732 187.111 144.056 182.218 138.248L155.977 107.096C151.084 101.288 142.412 100.547 136.606 105.441Z" fill="#FFDC63"/>
<path opacity="0.1" d="M136.603 105.897L84.3918 149.911C78.586 154.805 77.8455 163.481 82.7379 169.289L108.98 200.441C113.872 206.249 122.545 206.99 128.351 202.096L180.562 158.082C186.368 153.188 187.108 144.512 182.216 138.704L155.974 107.552C151.082 101.744 142.409 101.003 136.603 105.897Z" fill="black"/>
<path d="M135.646 109.175L88.2356 149.142C82.4298 154.036 81.6894 162.712 86.5818 168.52L109.939 196.247C114.831 202.055 123.504 202.796 129.31 197.902L176.72 157.935C182.526 153.041 183.266 144.365 178.374 138.557L155.017 110.83C150.125 105.022 141.452 104.281 135.646 109.175Z" fill="#FFDC63"/>
<path opacity="0.05" d="M99.5518 174.602C100.862 172.823 102.301 170.935 104.34 170.146C105.536 169.688 106.87 169.605 108.052 169.105C110.536 168.051 111.874 165.374 112.781 162.83C113.688 160.286 114.458 157.535 116.447 155.711" fill="black"/>
<path opacity="0.05" d="M110.994 178.92C112.305 177.141 113.743 175.253 115.783 174.464C116.979 174.006 118.312 173.923 119.494 173.424C121.978 172.369 123.316 169.692 124.223 167.148C125.131 164.604 125.9 161.854 127.889 160.029" fill="black"/>
<path opacity="0.05" d="M135.995 141.821C137.306 140.043 138.745 138.154 140.784 137.366C141.98 136.907 143.313 136.825 144.496 136.325C146.979 135.271 148.317 132.594 149.225 130.049C150.132 127.505 150.902 124.755 152.89 122.93" fill="black"/>
<path opacity="0.1" d="M140.381 171.398C141.691 169.619 143.13 167.73 145.169 166.942C146.365 166.483 147.699 166.401 148.881 165.901C151.365 164.847 152.703 162.17 153.61 159.626C154.517 157.082 155.287 154.331 157.276 152.507" fill="black"/>
<path d="M220.008 95.3552L167.797 139.369C161.991 144.263 161.251 152.939 166.143 158.747L192.385 189.899C197.277 195.707 205.95 196.448 211.756 191.554L263.967 147.54C269.773 142.646 270.513 133.97 265.621 128.162L239.379 97.0097C234.487 91.2017 225.814 90.461 220.008 95.3552Z" fill="#FFDC63"/>
<path opacity="0.1" d="M220.008 95.3552L167.797 139.369C161.991 144.263 161.251 152.939 166.143 158.747L192.385 189.899C197.277 195.707 205.95 196.448 211.756 191.554L263.967 147.54C269.773 142.646 270.513 133.97 265.621 128.162L239.379 97.0097C234.487 91.2017 225.814 90.461 220.008 95.3552Z" fill="black"/>
<path d="M219.049 99.0893L171.638 139.056C165.833 143.95 165.092 152.626 169.985 158.434L193.341 186.161C198.234 191.969 206.906 192.71 212.712 187.816L260.123 147.849C265.929 142.955 266.669 134.279 261.777 128.471L238.42 100.744C233.528 94.9358 224.855 94.1951 219.049 99.0893Z" fill="#FFDC63"/>
<path opacity="0.05" d="M182.951 164.517C184.261 162.738 185.7 160.85 187.739 160.061C188.935 159.603 190.269 159.52 191.451 159.021C193.935 157.966 195.273 155.289 196.18 152.745C197.087 150.201 197.857 147.45 199.846 145.626" fill="black"/>
<path opacity="0.05" d="M194.393 168.835C195.703 167.056 197.142 165.168 199.182 164.379C200.378 163.921 201.711 163.838 202.893 163.339C205.377 162.284 206.715 159.607 207.622 157.063C208.53 154.519 209.299 151.769 211.288 149.944" fill="black"/>
<path opacity="0.05" d="M219.394 131.736C220.705 129.958 222.144 128.069 224.183 127.281C225.379 126.822 226.712 126.74 227.895 126.24C230.378 125.186 231.716 122.509 232.624 119.965C233.531 117.42 234.301 114.67 236.29 112.845" fill="black"/>
<path opacity="0.1" d="M223.78 161.313C225.09 159.534 226.529 157.645 228.568 156.857C229.764 156.399 231.098 156.316 232.28 155.816C234.764 154.762 236.102 152.085 237.009 149.541C237.916 146.997 238.686 144.246 240.675 142.422" fill="black"/>
<path d="M432.314 290.716C432.134 289.978 431.752 289.304 431.212 288.771C430.671 288.237 429.993 287.865 429.253 287.695C416.363 284.486 404.76 259.984 404.76 259.984C404.76 259.984 404.302 255.318 401.03 248.318C399.504 245.049 398.391 239.549 397.63 234.607C401.795 232.727 404.962 230.633 402.895 229.184C401.744 228.401 400.447 227.857 399.082 227.584L397.763 220.318C398.221 215.184 394.496 197.916 394.496 197.916L391.265 171.136C391.265 171.136 391.636 170.508 391.059 169.472V169.436L390.972 169.289L390.93 169.229L390.834 169.087L390.779 169.014L390.605 168.798L390.491 168.665L390.394 168.565L390.257 168.422L390.151 168.322L389.986 168.17L389.877 168.074L389.661 167.895L389.565 167.817C389.34 167.639 389.107 167.455 388.804 167.272L388.726 167.221L388.36 166.988L388.241 166.914L387.86 166.69L387.732 166.616L387.274 166.369L387.177 166.318C386.783 166.114 386.354 165.906 385.89 165.695L385.775 165.645L385.18 165.383L384.973 165.296L384.405 165.062L384.167 164.966L383.539 164.728L383.315 164.641L382.398 164.315C382.091 164.21 381.793 164.113 381.482 164.022L381.156 163.93L380.611 163.779L380.258 163.692L379.768 163.582L379.433 163.513L378.929 163.426L378.659 163.38C378.411 163.343 378.169 163.313 377.93 163.288H377.784L377.215 163.247H376.991H376.308H375.85H375.671L375.135 163.302H375.094C374.892 163.33 374.697 163.362 374.507 163.398H374.457L373.999 163.508L373.861 163.545L373.499 163.655L373.343 163.705L373.032 163.82L372.871 163.884H372.821L372.711 163.935C368.775 165.31 361.938 166.392 354.615 167.208C353.181 162.248 351.962 157.325 351.628 154.001C350.711 144.668 346.028 133.932 346.028 133.932C345.98 134.055 345.916 134.172 345.84 134.28C345.84 134.157 345.799 134.033 345.776 133.914C345.116 130.549 342.82 129.33 335.296 126.465C327.964 123.668 324.55 127.936 323.299 130.256C323.226 130.389 323.166 130.512 323.107 130.632L322.236 130.201L311.504 144.668L311.216 145.2L303.884 159.557L303.636 160.043L303.536 160.112L293.184 184.04C287.36 181.116 277.879 181.116 277.879 181.116L273.214 176.917L261.543 162.912C260.419 159.078 259.009 155.333 257.327 151.709C255.82 148.441 254.99 143.412 254.541 139.47C255.691 137.921 256.629 136.225 257.327 134.427L257.07 134.093C257.158 133.895 257.245 133.698 257.327 133.497C257.327 133.497 247.997 121.363 247.997 116.696C247.997 112.03 221.878 108.294 221.878 108.294C221.878 108.294 221.855 108.385 221.809 108.536C220.753 107.923 219.821 107.118 219.06 106.162C218.931 106.002 218.803 105.827 218.679 105.649C220.38 103.835 221.701 101.7 222.565 99.3684C223.375 99.8064 224.28 100.036 225.2 100.038C226.36 100.038 227.762 99.2355 227.537 98.0986C227.567 97.9473 227.567 97.7915 227.537 97.6402C227.409 96.9847 226.79 96.5675 226.309 96.1046C225.768 95.5736 225.425 94.873 225.338 94.1197C225.37 93.6971 225.55 93.2994 225.846 92.9966C226.264 92.6735 226.702 92.3765 227.157 92.1073C228.229 91.2684 228.394 89.7648 228.362 88.3758C228.362 88.0825 228.362 87.7937 228.362 87.5095C228.224 84.4452 227.875 81.3942 227.317 78.378C227.189 77.6002 226.999 76.8338 226.749 76.086C226.34 75.0491 225.829 74.0556 225.223 73.1201L220.677 65.5702C220.154 64.567 219.449 63.67 218.597 62.9252C215.421 60.4819 211.723 63.457 208.69 61.738C207.104 60.8486 205.968 59.721 204.108 59.2947C201.949 58.8042 199.681 59.093 197.55 59.5605C196.958 59.6373 196.401 59.8841 195.946 60.2711C195.346 60.8899 195.337 61.848 195.108 62.6777C194.65 64.2821 193.321 65.4785 191.9 66.3449C190.48 67.2113 188.917 67.8439 187.593 68.8524C185.173 70.686 183.794 73.5373 182.176 76.1089C180.017 79.5362 177.315 82.5893 174.176 85.1487C174.225 85.2578 174.292 85.3584 174.373 85.4466L174.176 85.6163C174.634 86.666 176.283 86.3589 177.2 87.0602C177.393 87.2125 177.552 87.4048 177.664 87.624C177.776 87.8431 177.84 88.084 177.851 88.33C177.768 89.0625 177.549 89.7731 177.205 90.4249C176.774 91.2821 176.343 92.3227 176.426 93.2212C176.385 93.4987 176.405 93.7816 176.484 94.0507C176.563 94.3197 176.699 94.5684 176.884 94.7798C177.18 95.0158 177.457 95.2748 177.713 95.5545C177.808 95.6922 177.872 95.8485 177.901 96.0129C177.768 96.8655 177.026 97.8007 176.948 98.7358C176.934 98.8669 176.934 98.999 176.948 99.13C176.948 99.1529 176.948 99.1759 176.948 99.2034C176.842 100.455 177.974 101.463 179.111 102C180.165 102.499 181.347 102.825 182.199 103.599C181.585 104.493 181.017 105.543 181.118 106.529C181.073 106.936 181.144 107.348 181.324 107.716C182.048 109.169 184.11 109.178 185.686 108.793C186.095 108.646 186.538 108.622 186.96 108.724C187.328 108.914 187.652 109.179 187.909 109.504C189.623 111.186 192.922 110.558 193.985 108.436L193.903 108.779C193.761 109.357 193.6 109.948 193.444 110.553C193.444 110.425 193.444 110.301 193.444 110.168C193.444 110.168 184.61 112.236 177.654 113.744C175.661 114.178 173.784 115.034 172.15 116.255C170.516 117.476 169.163 119.033 168.182 120.822L161.721 132.571C161.721 132.571 161.789 132.768 161.941 133.102L161.721 133.506C162.117 134.505 162.632 135.454 163.256 136.33C160.309 143.279 154.091 156.857 148.656 161.973C147.774 162.807 146.845 163.59 145.875 164.32C144.787 164.292 143.706 164.515 142.718 164.971C141.6 165.502 140.621 166.287 139.858 167.263C138.264 167.524 137.462 167.13 137.462 167.13C137.462 167.13 132.114 171.338 128.668 175.885C127.958 176.142 127.252 176.403 126.56 176.692C123.385 178.031 120.172 180.621 120.205 184.068C120.205 186.488 121.863 188.652 122.67 190.944L120.667 193.282C120.667 193.282 116.47 196.55 112.735 197.481C109.001 198.411 101.527 204.444 101.527 204.444L87.5323 214.245L86.0567 215.194C83.0095 210.862 80.0676 204.444 80.0676 204.444C80.0676 204.444 74.9354 195.111 69.3357 205.361L69.1662 205.668C68.2857 207.319 67.6747 209.1 67.3561 210.944C60.7896 207.735 57.6049 220.277 57.2016 223.096C57.11 223.734 56.2531 226.814 57.3849 229.386C58.9642 233.051 61.3121 236.334 64.2696 239.012C67.2271 241.691 70.7253 243.703 74.5275 244.912C75.2808 245.145 76.0456 245.339 76.8187 245.494C83.816 246.892 88.4808 236.629 88.4808 236.629L88.6274 235.152C89.6929 235.263 90.7651 235.293 91.8351 235.244C92.5179 235.212 93.2098 235.207 93.9751 235.244C97.724 235.317 101.449 234.626 104.922 233.213L110.879 230.825L111.874 230.426C111.846 230.623 111.819 230.821 111.787 231.022L134.185 223.587C134.185 223.587 141.838 222.629 150.343 221.377C150.608 222.129 150.856 222.89 151.168 223.628C153.115 228.212 157.583 231.316 162.307 232.819C167.032 234.323 172.086 234.446 177.049 234.557C177.562 234.557 178.075 234.557 178.593 234.557C180.22 234.579 181.879 234.529 183.354 233.869C185.017 233.126 186.383 231.384 186.071 229.587C185.829 228.185 184.697 227.144 183.643 226.181C181.622 224.311 179.693 222.23 178.675 219.672C178.437 219.071 178.261 218.448 178.148 217.811C179.425 219.024 180.992 219.887 182.699 220.318C192.028 222.652 208.36 224.985 213.02 223.587C217.681 222.189 229.347 219.388 247.076 223.587C264.806 227.786 269.933 226.388 269.933 226.388L269.855 226.273C274.502 227.36 281.197 228.336 287.529 227.135C291.234 226.438 294.977 225.96 298.738 225.705C301.116 225.54 303.893 225.246 306.716 224.788C311.769 223.923 316.365 221.331 319.721 217.453C329.023 218.714 343.636 213.328 343.636 213.328L345.776 212.214L347.371 216.129C347.371 216.129 345.038 228.263 359.5 233.397C366.36 235.829 373.453 237.543 380.666 238.513C383.017 254.428 386.091 260.929 386.091 260.929L380.959 268.396C379.378 274.713 384.167 277.321 388.676 278.389C392.456 279.315 396.009 280.999 399.119 283.34C405.626 288.176 418.278 293.127 418.278 293.127C431.122 295.74 432.832 293.081 432.314 290.716ZM266.208 186.713L269.095 189.601L268.073 189.514L266.276 192.782H257.327C256.411 192.782 252.195 189.514 252.195 189.514L251.003 189.633L253.13 188.116C253.13 188.116 256.204 186.452 255.783 180.268L266.208 186.713ZM234.264 174.762C233.485 172.264 232.61 169.55 231.716 166.928C231.826 165.887 231.955 164.851 232.106 163.834L235.419 174.111L234.264 174.762ZM168.888 160.428C167.855 162.256 166.652 163.983 165.295 165.585C164.878 165.457 164.456 165.351 164.03 165.25C164.03 165.25 166.216 163.334 168.888 160.428ZM360.43 206.777C360.362 206.131 360.274 205.429 360.174 204.691L366.025 201.643C369.765 204.449 371.162 212.402 371.625 219.645C369.595 218.723 361.26 214.538 360.43 206.777Z" fill="url(#paint0_linear_3_166)"/>
<path d="M366.639 167.739C366.639 167.739 369.389 160.863 379.928 164.531C390.468 168.198 388.667 171.232 388.667 171.232L387.26 177.366L381.761 180.575L372.596 179.658L366.639 167.739Z" fill="#FFBCC7"/>
<path opacity="0.03" d="M388.749 170.985C388.734 171.071 388.706 171.155 388.667 171.233L387.26 177.366L381.761 180.575L372.596 179.658L366.639 167.739C367.433 166.103 368.811 164.823 370.502 164.155C372.551 163.298 375.575 163.018 379.928 164.531C388.694 167.579 388.923 170.192 388.749 170.985Z" fill="black"/>
<path d="M393.675 223.206C393.675 223.206 395.05 240.167 398.258 247.043C401.465 253.92 401.924 258.504 401.924 258.504C401.924 258.504 413.315 282.565 425.981 285.724C426.708 285.89 427.374 286.256 427.905 286.78C428.436 287.304 428.81 287.965 428.987 288.69C429.496 291.014 427.814 293.627 415.212 291.05C415.212 291.05 402.785 286.187 396.393 281.424C393.337 279.124 389.847 277.47 386.133 276.56C381.724 275.51 377.005 272.948 378.553 266.741L383.594 259.407C383.594 259.407 379.47 250.697 377.179 228.694C374.888 206.69 393.675 223.206 393.675 223.206Z" fill="#FFBCC7"/>
<path d="M344.186 138.402C344.186 144.819 321.274 132.442 321.274 132.442C321.432 131.987 321.628 131.545 321.861 131.122C323.093 128.83 326.443 124.654 333.646 127.4C341.033 130.214 343.269 131.411 343.938 134.734C344.135 135.946 344.218 137.174 344.186 138.402Z" fill="#FFBCC7"/>
<path d="M317.15 140.235L303.403 166.823L302.12 161.253L302.83 159.859L310.033 145.759L310.276 145.278L317.15 140.235Z" fill="#FFBCC7"/>
<path d="M269.493 192.493L262.161 208.537L257.121 213.58L254.756 211.091L253.812 210.096L248.414 204.412L253.455 192.493H269.493Z" fill="#FFBCC7"/>
<path d="M230.543 120.065C230.543 120.065 199.383 134.734 198.467 134.276C197.55 133.818 185.636 131.067 191.135 120.065C192.727 116.85 193.957 113.468 194.801 109.98C195.733 106.388 196.195 102.69 196.175 98.9788C196.175 98.9788 215.421 90.2691 216.796 100.354C217.254 103.618 218.308 105.855 219.546 107.427C220.994 109.327 223.136 110.575 225.503 110.897L230.543 120.065Z" fill="#FEB7C5"/>
<path d="M92.6141 221.831L91.2394 235.583C91.2394 235.583 86.657 245.668 79.7835 244.293C79.0304 244.14 78.2856 243.949 77.5519 243.72C73.8177 242.532 70.382 240.556 67.4775 237.925C64.5729 235.293 62.2672 232.069 60.7163 228.469C59.6028 225.943 60.4505 222.918 60.5376 222.29C60.9958 219.081 65.1199 203.037 73.8264 213.122C82.5329 223.206 87.5735 228.249 87.5735 228.249L92.6141 221.831Z" fill="#FEB7C5"/>
<path d="M167.307 168.198L128.357 186.534L122.858 192.952C122.858 192.952 118.734 196.161 115.068 197.077C111.402 197.994 104.07 203.953 104.07 203.953L90.3229 213.58L83.9076 217.706L90.3229 222.748L110.027 218.164L133.855 213.122L146.228 207.162L181.512 176.449L167.307 168.198Z" fill="#5D526D"/>
<path opacity="0.03" d="M92.6141 221.831L91.2394 235.583C91.2394 235.583 86.657 245.668 79.7835 244.293C79.0304 244.14 78.2856 243.949 77.5519 243.72C73.8177 242.532 70.382 240.556 67.4775 237.925C64.5729 235.293 62.2672 232.069 60.7163 228.469C59.6028 225.943 60.4505 222.918 60.5376 222.29C60.9958 219.081 65.1199 203.037 73.8264 213.122C82.5329 223.206 87.5735 228.249 87.5735 228.249L92.6141 221.831Z" fill="black"/>
<path opacity="0.05" d="M167.307 168.198L128.357 186.534L122.858 192.952C122.858 192.952 118.734 196.161 115.068 197.077C111.402 197.994 104.07 203.953 104.07 203.953L90.3229 213.58L83.9076 217.706L90.3229 222.748L110.027 218.164L133.855 213.122L146.228 207.162L181.512 176.449L167.307 168.198Z" fill="black"/>
<path d="M119.65 227.332L113.262 229.885L107.401 232.232C103.985 233.615 100.322 234.287 96.6374 234.208C95.9043 234.208 95.2032 234.208 94.5341 234.208C89.2212 234.466 84.0095 232.691 79.9576 229.244C79.1924 228.588 78.3859 227.974 77.5657 227.41C74.1292 224.982 71.6968 221.382 70.7249 217.287C69.7529 213.192 70.3083 208.883 72.2868 205.168L72.4517 204.866C77.9506 194.781 82.9912 203.949 82.9912 203.949C82.9912 203.949 88.0318 214.951 91.6977 217.701C94.195 219.576 102.43 217.834 107.429 216.532C109.77 215.922 111.402 215.409 111.402 215.409L119.65 227.332Z" fill="#FEB7C5"/>
<path opacity="0.1" d="M113.262 229.885C114.756 220.085 110.971 217.201 107.429 216.537C109.77 215.927 111.402 215.414 111.402 215.414L119.65 227.332L113.262 229.885Z" fill="black"/>
<path d="M188.844 173.24L141.187 206.704C141.187 206.704 128.815 214.038 124.232 212.205C119.65 210.371 103.154 216.789 103.154 216.789C103.154 216.789 116.901 212.663 114.151 230.082L136.147 222.748C136.147 222.748 169.14 218.622 173.722 216.33C178.304 214.038 197.55 174.616 197.55 174.616L188.844 173.24Z" fill="#5D526D"/>
<path d="M253.913 134.276C253.913 134.276 254.371 146.194 257.121 152.154C258.767 155.713 260.146 159.391 261.245 163.155L272.701 176.908L277.283 181.033C277.283 181.033 294.696 181.033 296.529 188.368C298.362 195.702 269.952 190.66 269.952 190.66L265.827 186.534L246.581 174.616L235.584 141.152L253.913 134.276Z" fill="#FEB7C5"/>
<path d="M166.39 132.901C166.39 132.901 157.684 155.363 150.352 162.239C143.02 169.115 139.354 167.281 139.354 167.281C139.354 167.281 120.108 182.408 131.564 186.076C143.02 189.743 148.977 173.699 148.977 173.699L165.474 165.447C165.474 165.447 180.595 152.154 179.679 142.527C178.763 132.901 166.39 132.901 166.39 132.901Z" fill="#FEB7C5"/>
<path opacity="0.03" d="M166.39 132.901C166.39 132.901 157.684 155.363 150.352 162.239C143.02 169.115 139.354 167.281 139.354 167.281C139.354 167.281 120.108 182.408 131.564 186.076C143.02 189.743 148.977 173.699 148.977 173.699L165.474 165.447C165.474 165.447 180.595 152.154 179.679 142.527C178.763 132.901 166.39 132.901 166.39 132.901Z" fill="black"/>
<path opacity="0.1" d="M203.306 121.408C199.91 121.583 194.485 123.109 194.343 112.272C194.343 112.272 185.664 114.303 178.831 115.784C176.873 116.21 175.029 117.051 173.424 118.251C171.818 119.45 170.489 120.98 169.524 122.738L163.178 134.276C163.178 134.276 165.927 142.069 174.634 142.986C174.634 142.986 176.467 161.322 159.97 172.782C143.474 184.242 202.586 200.286 202.586 200.286L231.913 190.66C231.913 190.66 228.706 157.655 238.329 148.945C238.329 148.945 252.076 148.028 257.116 135.193C257.116 135.193 247.952 123.274 247.952 118.69C247.952 114.106 222.29 110.439 222.29 110.439C222.29 110.439 219.184 122.999 208.365 121.569C206.687 121.361 204.993 121.307 203.306 121.408Z" fill="black"/>
<path d="M203.306 120.492C199.91 120.666 194.485 122.192 194.343 111.356C194.343 111.356 185.664 113.386 178.831 114.867C176.873 115.293 175.029 116.134 173.424 117.334C171.818 118.534 170.489 120.064 169.524 121.821L163.178 133.359C163.178 133.359 165.927 141.152 174.634 142.069C174.634 142.069 176.467 160.405 159.97 171.865C143.474 183.325 202.586 199.369 202.586 199.369L231.913 189.743C231.913 189.743 228.706 156.738 238.329 148.028C238.329 148.028 252.076 147.111 257.116 134.276C257.116 134.276 247.952 122.357 247.952 117.773C247.952 113.189 222.29 109.522 222.29 109.522C222.29 109.522 219.184 122.082 208.365 120.652C206.687 120.444 204.993 120.39 203.306 120.492Z" fill="#D6E6F9"/>
<path opacity="0.03" d="M393.675 223.206C393.675 223.206 395.05 240.167 398.258 247.043C401.465 253.92 401.924 258.504 401.924 258.504C401.924 258.504 413.315 282.565 425.981 285.724C426.708 285.89 427.374 286.256 427.905 286.78C428.436 287.304 428.81 287.965 428.987 288.69C429.496 291.014 427.814 293.627 415.212 291.05C415.212 291.05 402.785 286.187 396.393 281.424C393.337 279.124 389.847 277.47 386.133 276.56C381.724 275.51 377.005 272.948 378.553 266.741L383.594 259.407C383.594 259.407 379.47 250.697 377.179 228.694C374.888 206.69 393.675 223.206 393.675 223.206Z" fill="black"/>
<path opacity="0.1" d="M388.749 170.985C388.734 171.071 388.706 171.155 388.667 171.232L387.26 177.366L381.761 180.575L372.596 179.658L366.639 167.739C367.433 166.103 368.811 164.823 370.502 164.155C369.792 167.258 368.408 176.532 377.179 176.908C387.718 177.366 388.635 170.031 388.635 170.031L388.749 170.985Z" fill="black"/>
<path d="M322.649 169.573C322.649 169.573 359.766 168.198 370.763 164.072C370.763 164.072 366.639 177.366 377.179 177.824C387.718 178.283 388.635 170.948 388.635 170.948L391.842 197.536C391.842 197.536 395.508 214.497 395.05 219.539L396.883 229.624C396.883 229.624 372.138 237.875 369.389 232.374C369.389 232.374 371.222 206.704 363.89 201.203L341.895 212.663C341.895 212.663 320.816 220.456 313.484 214.955C306.152 209.454 322.649 169.573 322.649 169.573Z" fill="#94B6F0"/>
<path opacity="0.03" d="M322.649 169.573C322.649 169.573 359.766 168.198 370.763 164.072C370.763 164.072 366.639 177.366 377.179 177.824C387.718 178.283 388.635 170.948 388.635 170.948L391.842 197.536C391.842 197.536 395.508 214.497 395.05 219.539L396.883 229.624C396.883 229.624 372.138 237.875 369.389 232.374C369.389 232.374 371.222 206.704 363.89 201.203L341.895 212.663C341.895 212.663 320.816 220.456 313.484 214.955C306.152 209.454 322.649 169.573 322.649 169.573Z" fill="black"/>
<path opacity="0.1" d="M219.55 107.427C216.504 110.89 212.266 113.077 207.68 113.553C203.094 114.029 198.497 112.758 194.805 109.994C195.737 106.402 196.2 102.704 196.18 98.9925C196.18 98.9925 215.426 90.2828 216.801 100.368C217.241 103.618 218.308 105.869 219.55 107.427Z" fill="black"/>
<path d="M205.798 112.731C215.922 112.731 224.128 104.521 224.128 94.3947C224.128 84.2679 215.922 76.0585 205.798 76.0585C195.675 76.0585 187.469 84.2679 187.469 94.3947C187.469 104.521 195.675 112.731 205.798 112.731Z" fill="#FEB7C5"/>
<path opacity="0.1" d="M198.412 62.0863C197.829 62.1626 197.282 62.4062 196.835 62.7877C196.244 63.3928 196.24 64.3371 196.011 65.1531C195.552 66.7254 194.255 67.9035 192.858 68.7515C191.46 69.5996 189.925 70.2276 188.624 71.2132C186.246 73.0147 184.894 75.7972 183.304 78.3414C181.177 81.716 178.515 84.7213 175.422 87.239C175.88 88.2704 177.493 87.9678 178.391 88.6555C179.477 89.4852 179.01 91.1996 178.391 92.419C177.773 93.6383 177.159 95.2473 178.098 96.2375C178.39 96.4693 178.662 96.7237 178.914 96.9984C179.633 98.0482 178.268 99.3225 178.162 100.592C178.057 101.862 179.17 102.811 180.288 103.343C181.407 103.874 182.671 104.195 183.496 105.094C182.671 106.235 181.814 107.698 182.442 108.958C183.152 110.384 185.192 110.393 186.727 110.013C187.128 109.868 187.563 109.844 187.978 109.944C188.334 110.132 188.646 110.392 188.894 110.709C190.64 112.424 194.072 111.699 194.975 109.421C195.465 108.184 195.268 106.799 195.319 105.47C195.401 103.361 196.139 101.344 196.405 99.2354C196.863 95.692 195.946 92.1256 195.887 88.5546C195.86 88.3211 195.908 88.0851 196.024 87.8808C196.132 87.7693 196.261 87.6806 196.403 87.62C196.546 87.5593 196.699 87.528 196.854 87.5278C198.856 87.2609 200.841 86.8751 202.797 86.3726C204.309 85.983 206.005 85.3412 206.527 83.8697C206.22 84.9516 206.765 86.1342 207.609 86.8769C208.495 87.5703 209.52 88.0658 210.615 88.33C213.249 89.1276 216.297 89.5998 218.588 88.0779C218.464 90.9016 218.354 93.8171 219.353 96.4621C220.352 99.1071 222.767 101.431 225.59 101.408C226.726 101.408 228.105 100.62 227.881 99.5059C227.753 98.8641 227.143 98.4516 226.676 97.9977C225.732 97.0809 225.301 95.4169 226.217 94.4864C226.628 94.1699 227.058 93.8791 227.505 93.6154C228.66 92.6986 228.742 91.0208 228.678 89.5585C228.544 86.5405 228.201 83.5353 227.652 80.5646C227.522 79.802 227.332 79.051 227.084 78.3184C226.682 77.2993 226.18 76.3226 225.585 75.403L221.126 67.9906C220.612 67.0048 219.919 66.1233 219.083 65.3914C215.962 62.994 212.347 65.914 209.35 64.2271C207.792 63.3515 206.674 62.2422 204.85 61.8296C202.733 61.3437 200.506 61.6279 198.412 62.0863Z" fill="black"/>
<path d="M198.412 61.6279C197.829 61.7042 197.282 61.9478 196.835 62.3293C196.244 62.9344 196.24 63.8787 196.011 64.6946C195.552 66.267 194.255 67.4451 192.858 68.2931C191.46 69.1412 189.925 69.7692 188.624 70.7548C186.246 72.5563 184.894 75.3388 183.304 77.8829C181.177 81.2576 178.515 84.2629 175.422 86.7806C175.88 87.812 177.493 87.5094 178.391 88.1971C179.477 89.0268 179.01 90.7412 178.391 91.9606C177.773 93.1799 177.159 94.7889 178.098 95.7791C178.39 96.0109 178.662 96.2653 178.914 96.54C179.633 97.5898 178.268 98.8641 178.162 100.134C178.057 101.404 179.17 102.353 180.288 102.884C181.407 103.416 182.671 103.737 183.496 104.635C182.671 105.777 181.814 107.239 182.442 108.5C183.152 109.925 185.192 109.935 186.727 109.554C187.128 109.41 187.563 109.386 187.978 109.485C188.334 109.673 188.646 109.934 188.894 110.251C190.64 111.965 194.072 111.241 194.975 108.963C195.465 107.725 195.268 106.341 195.319 105.011C195.401 102.903 196.139 100.886 196.405 98.777C196.863 95.2336 195.946 91.6672 195.887 88.0962C195.86 87.8627 195.908 87.6267 196.024 87.4224C196.132 87.3109 196.261 87.2222 196.403 87.1616C196.546 87.1009 196.699 87.0696 196.854 87.0694C198.856 86.8025 200.841 86.4167 202.797 85.9142C204.309 85.5246 206.005 84.8828 206.527 83.4113C206.22 84.4931 206.765 85.6758 207.609 86.4184C208.495 87.1119 209.52 87.6074 210.615 87.8716C213.249 88.6692 216.297 89.1414 218.588 87.6195C218.464 90.4432 218.354 93.3587 219.353 96.0037C220.352 98.6487 222.767 100.973 225.59 100.95C226.726 100.95 228.105 100.161 227.881 99.0475C227.753 98.4057 227.143 97.9932 226.676 97.5393C225.732 96.6225 225.301 94.9585 226.217 94.028C226.628 93.7115 227.058 93.4207 227.505 93.157C228.66 92.2402 228.742 90.5624 228.678 89.1001C228.544 86.0821 228.201 83.0769 227.652 80.1062C227.522 79.3436 227.332 78.5926 227.084 77.86C226.682 76.8409 226.18 75.8642 225.585 74.9446L221.126 67.5322C220.612 66.5464 219.919 65.6649 219.083 64.933C215.962 62.5356 212.347 65.4556 209.35 63.7687C207.792 62.8931 206.674 61.7838 204.85 61.3712C202.733 60.8853 200.506 61.1695 198.412 61.6279Z" fill="#8E6F80"/>
<path d="M189.76 205.787L182.887 210.371C180.424 205.726 177.463 201.362 174.056 197.357C170.652 193.364 166.358 189.298 161.35 186.534C148.061 179.2 174.18 175.074 174.18 175.074C176.067 177.846 178.215 180.431 180.595 182.793C185.205 187.377 191.776 191.962 198.467 190.201C210.839 186.992 189.76 205.787 189.76 205.787Z" fill="#FFBCC7"/>
<path d="M230.543 179.658H202.133V189.284H230.543V179.658Z" fill="#CCCAD6"/>
<path d="M211.297 159.947C211.297 159.947 207.173 150.778 204.882 148.028C202.591 145.278 202.133 135.651 202.133 135.651C202.133 135.651 199.383 118.69 207.631 115.023C215.88 111.356 213.588 136.11 213.588 136.11L213.13 139.777C213.13 139.777 225.503 151.237 225.044 159.947C224.586 168.656 211.297 159.947 211.297 159.947Z" fill="#FFBCC7"/>
<path opacity="0.03" d="M211.297 159.947C211.297 159.947 207.173 150.778 204.882 148.028C202.591 145.278 202.133 135.651 202.133 135.651C202.133 135.651 199.383 118.69 207.631 115.023C215.88 111.356 213.588 136.11 213.588 136.11L213.13 139.777C213.13 139.777 225.503 151.237 225.044 159.947C224.586 168.656 211.297 159.947 211.297 159.947Z" fill="black"/>
<path opacity="0.1" d="M181.97 184.242C181.97 184.242 186.094 182.408 187.011 179.658C187.927 176.908 199.383 178.283 199.383 178.283L213.13 175.532C213.13 175.532 216.796 170.031 213.13 167.281C209.464 164.531 209.464 158.571 209.464 158.571C209.464 158.571 222.185 158.571 225.191 155.307C225.307 155.183 225.411 155.048 225.503 154.904C227.794 151.237 237.417 185.159 237.417 185.159L214.505 180.575L197.092 190.66C197.092 190.66 187.011 192.493 181.97 184.242Z" fill="black"/>
<path d="M181.97 183.784C181.97 183.784 186.094 181.95 187.011 179.2C187.927 176.449 199.383 177.824 199.383 177.824L213.13 175.074C213.13 175.074 216.796 169.573 213.13 166.823C209.464 164.072 209.464 158.113 209.464 158.113C209.464 158.113 222.185 158.113 225.191 154.849C225.307 154.725 225.411 154.59 225.503 154.446C227.794 150.778 237.417 184.7 237.417 184.7L214.505 180.116L197.092 190.201C197.092 190.201 187.011 192.035 181.97 183.784Z" fill="#FF7F8E"/>
<path opacity="0.03" d="M181.97 183.784C181.97 183.784 186.094 181.95 187.011 179.2C187.927 176.449 199.383 177.824 199.383 177.824L213.13 175.074C213.13 175.074 216.796 169.573 213.13 166.823C209.464 164.072 209.464 158.113 209.464 158.113C209.464 158.113 222.185 158.113 225.191 154.849C225.307 154.725 225.411 154.59 225.503 154.446C227.794 150.778 237.417 184.7 237.417 184.7L214.505 180.116L197.092 190.201C197.092 190.201 187.011 192.035 181.97 183.784Z" fill="black"/>
<path opacity="0.1" d="M253.812 210.096L248.414 204.412L253.455 192.493H257.579C257.579 192.493 260.232 204.875 253.812 210.096Z" fill="black"/>
<path d="M242.916 190.201L252.08 189.284C252.08 189.284 256.204 192.493 257.121 192.493C257.121 192.493 259.87 205.329 252.997 210.371C246.123 215.414 237.417 205.787 237.417 205.787L229.627 196.619L242.916 190.201Z" fill="#CCCAD6"/>
<path d="M383.136 237.875C383.136 237.875 371.68 237.417 357.475 232.374C343.269 227.332 345.561 215.414 345.561 215.414L337.253 195.019L335.479 190.66L353.351 179.658C353.351 179.658 354.001 182.468 354.84 186.41C356.118 192.397 357.837 200.992 358.391 206.245C359.308 214.955 369.847 219.081 369.847 219.081L388.635 226.874C388.635 226.874 395.508 225.04 400.091 228.249C404.673 231.458 383.136 237.875 383.136 237.875Z" fill="#FFBCC7"/>
<path opacity="0.1" d="M264.98 192.493H269.493L262.162 208.537L257.121 213.58L254.756 211.091L264.98 192.493Z" fill="black"/>
<path opacity="0.1" d="M344.186 138.402C344.186 144.819 321.274 132.442 321.274 132.442C321.432 131.987 321.628 131.545 321.861 131.122C338.659 139.309 342.971 136.032 343.934 134.716C344.133 135.934 344.218 137.168 344.186 138.402Z" fill="black"/>
<path opacity="0.1" d="M310.276 145.278L317.15 140.235L303.403 166.823L302.12 161.244L302.83 159.869C312.059 153.451 310.68 147.492 310.033 145.768L310.276 145.278Z" fill="black"/>
<path opacity="0.1" d="M354.84 186.41C349.098 187.822 340.841 192.764 337.253 195.019L335.479 190.66L353.351 179.658C353.351 179.658 354.015 182.468 354.84 186.41Z" fill="black"/>
<path d="M267.66 189.284L252.539 216.789L263.536 223.665C263.536 223.665 275.721 228.327 286.783 226.232C290.418 225.547 294.09 225.077 297.78 224.825C300.113 224.664 302.821 224.366 305.616 223.908C309.743 223.208 313.581 221.333 316.669 218.507C319.758 215.681 321.966 212.024 323.029 207.974C325.852 197.219 329.774 180.694 328.775 175.276C328.736 175.049 328.681 174.825 328.61 174.606L333.193 188.359L335.484 195.235C335.484 195.235 351.98 184.233 358.396 185.15C358.396 185.15 350.606 163.605 349.689 154.437C348.773 145.268 344.19 134.725 344.19 134.725C344.19 134.725 341.899 141.601 320.82 131.058L310.281 145.268C310.281 145.268 314.405 152.603 302.491 160.396L289.202 191.109L267.66 189.284Z" fill="#94B6F0"/>
<path opacity="0.1" d="M180.595 183.325C180.599 186 180.015 188.644 178.885 191.068C177.755 193.493 176.107 195.64 174.056 197.357C170.652 193.364 166.358 189.298 161.35 186.534C148.061 179.2 174.18 175.074 174.18 175.074C176.067 177.846 178.215 180.431 180.595 182.793C180.591 182.968 180.595 183.146 180.595 183.325Z" fill="black"/>
<path d="M161.35 201.661C171.473 201.661 179.679 193.452 179.679 183.325C179.679 173.198 171.473 164.989 161.35 164.989C151.226 164.989 143.02 173.198 143.02 183.325C143.02 193.452 151.226 201.661 161.35 201.661Z" fill="#FFBCC7"/>
<path opacity="0.1" d="M269.952 225.04C269.952 225.04 264.911 226.415 247.498 222.29C230.085 218.164 218.629 220.914 214.047 222.29C209.464 223.665 193.426 221.373 184.261 219.081C175.097 216.789 174.18 203.037 174.18 203.037C177.388 203.495 191.593 190.201 191.593 190.201C199.841 182.867 214.963 182.867 214.963 182.867L220.838 183.921L245.665 188.368L248.52 192.681L269.952 225.04Z" fill="black"/>
<path d="M269.493 225.498C269.493 225.498 264.453 226.874 247.04 222.748C229.627 218.622 218.171 221.373 213.588 222.748C209.006 224.123 192.968 221.831 183.803 219.539C174.638 217.247 173.722 203.495 173.722 203.495C176.93 203.953 191.135 190.66 191.135 190.66C199.383 183.325 214.505 183.325 214.505 183.325L220.38 184.38L245.207 188.826L248.062 193.14L269.493 225.498Z" fill="#FF7F8E"/>
<path opacity="0.1" d="M248.062 193.14L211.756 219.081C201.331 222.62 195.14 220.635 191.465 217.032C184.591 210.27 186.882 198.613 195.671 194.616C199.464 192.952 203.505 191.925 207.631 191.576L220.38 184.38L245.207 188.826L248.062 193.14Z" fill="black"/>
<path opacity="0.1" d="M259.678 192.493C259.678 192.493 261.016 193.639 262.849 192.493Z" fill="black"/>
<path d="M208.058 101.821C208.058 101.821 206.683 101.789 206.619 102.903C206.587 103.434 207.453 106.698 208.374 109.953C208.832 111.553 209.29 113.162 209.657 114.427C210.115 115.99 210.431 117.067 210.431 117.067L210.793 117.833L212.961 122.449L215 126.79L216.269 128.427L222.918 123.843L226.217 115.449L224.701 114.785L224.439 114.67L221.511 112.378L213.263 105.96L209.542 103.072L209.084 102.733L208.058 101.821Z" fill="#FFE09C"/>
<path d="M218.272 131.269C218.272 131.269 225.576 126.391 226.864 122.101C226.864 122.101 228.119 118.461 228.073 116.632C228.073 116.632 228.348 114.917 225.017 115.005C225.017 115.005 224.449 121.253 220.389 124.535L216.329 127.822L218.272 131.269Z" fill="#E7C4C3"/>
<path d="M220.827 121.679C220.991 120.195 220.106 118.878 218.848 118.738C217.59 118.598 216.437 119.689 216.272 121.173C216.107 122.658 216.993 123.975 218.251 124.114C219.508 124.254 220.662 123.164 220.827 121.679Z" fill="#FF7F8E"/>
<path d="M218.823 113.343C218.988 111.859 218.102 110.542 216.845 110.402C215.587 110.262 214.434 111.352 214.269 112.837C214.104 114.321 214.99 115.638 216.248 115.778C217.505 115.918 218.659 114.828 218.823 113.343Z" fill="#FF7F8E"/>
<path d="M221.502 112.41C221.115 112.639 220.788 112.958 220.549 113.339C220.31 113.72 220.166 114.153 220.127 114.601C219.963 116.086 220.847 117.402 222.102 117.54C223.358 117.677 224.513 116.591 224.678 115.105C224.678 115.002 224.678 114.899 224.678 114.798L224.417 114.684L221.502 112.41Z" fill="#FF7F8E"/>
<path d="M212.42 117.292C212.126 117.263 211.829 117.297 211.548 117.391C211.268 117.485 211.011 117.637 210.793 117.838L212.961 122.454C213.365 122.23 213.707 121.91 213.958 121.522C214.209 121.134 214.361 120.691 214.4 120.23C214.56 118.745 213.676 117.43 212.42 117.292Z" fill="#FF7F8E"/>
<path d="M210.321 109.068C209.947 109.037 209.571 109.102 209.229 109.258C208.887 109.414 208.591 109.655 208.369 109.958C208.827 111.557 209.286 113.166 209.652 114.432H209.726C210.981 114.569 212.136 113.483 212.301 111.997C212.466 110.512 211.577 109.206 210.321 109.068Z" fill="#FF7F8E"/>
<path d="M209.506 103.104C209.395 103.376 209.322 103.661 209.29 103.952C209.125 105.438 210.01 106.753 211.265 106.891C211.643 106.92 212.023 106.851 212.366 106.69C212.71 106.53 213.006 106.283 213.226 105.974L209.506 103.104Z" fill="#FF7F8E"/>
<path d="M216.32 124.182L215.458 124.086C215.693 123.439 215.786 122.749 215.728 122.064C215.728 122.018 215.718 121.974 215.696 121.931C215.458 121.097 216.558 122.027 216.558 122.027C216.558 122.027 216.672 123.806 216.32 124.182Z" fill="#94CC79"/>
<path d="M219.294 118.282L218.432 118.186C218.667 117.54 218.76 116.85 218.702 116.164C218.702 116.119 218.692 116.074 218.67 116.031C218.432 115.197 219.532 116.128 219.532 116.128C219.532 116.128 219.633 117.906 219.294 118.282Z" fill="#94CC79"/>
<path d="M216.443 116.907L215.582 116.811C215.817 116.164 215.909 115.475 215.852 114.789C215.852 114.743 215.841 114.699 215.82 114.656C215.582 113.822 216.682 114.752 216.682 114.752C216.682 114.752 216.796 116.531 216.443 116.907Z" fill="#94CC79"/>
<path d="M212.461 112.96L211.6 112.864C211.835 112.218 211.927 111.528 211.87 110.842C211.87 110.796 211.859 110.752 211.838 110.709C211.6 109.875 212.699 110.806 212.699 110.806C212.699 110.806 212.814 112.584 212.461 112.96Z" fill="#94CC79"/>
<path d="M209.299 105.946L208.438 105.85C208.673 105.204 208.766 104.514 208.708 103.829C208.708 103.783 208.698 103.738 208.676 103.696C208.438 102.861 209.538 103.792 209.538 103.792C209.538 103.792 209.671 105.571 209.299 105.946Z" fill="#94CC79"/>
<path d="M214.555 110.388L213.694 110.292C213.929 109.646 214.022 108.956 213.964 108.271C213.964 108.225 213.954 108.18 213.932 108.138C213.694 107.303 214.794 108.234 214.794 108.234C214.794 108.234 214.908 110.013 214.555 110.388Z" fill="#94CC79"/>
<path d="M215.628 130.989C215.628 130.989 217.218 133.492 218.29 131.287C217.933 129.683 217.169 128.197 216.072 126.973C216.072 126.973 210.033 115.972 210.115 114.106C210.115 114.106 206.729 103.104 207.054 102.435C207.054 102.435 206.472 101.706 206.596 104.727C206.72 107.748 209.474 116.32 209.474 116.32L212.974 125.135L214.858 128L215.628 130.989Z" fill="#E7C4C3"/>
<path opacity="0.2" d="M215.628 130.989C215.628 130.989 217.218 133.492 218.29 131.287C217.933 129.683 217.169 128.197 216.072 126.973C216.072 126.973 210.033 115.972 210.115 114.106C210.115 114.106 206.729 103.104 207.054 102.435C207.054 102.435 206.472 101.706 206.596 104.727C206.72 107.748 209.474 116.32 209.474 116.32L212.974 125.135L214.858 128L215.628 130.989Z" fill="white"/>
<path d="M244.29 156.738C244.29 159.947 233.293 161.78 233.293 161.78L231.739 159.03L220.004 138.402C220.004 138.402 212.672 120.065 220.004 117.315C227.336 114.565 228.252 135.651 228.252 135.651C228.252 135.651 238.791 147.4 242.783 153.561C243.718 154.996 244.29 156.133 244.29 156.738Z" fill="#FFBCC7"/>
<path opacity="0.1" d="M244.29 156.738C244.29 159.947 233.293 161.78 233.293 161.78L231.739 159.03C235.836 158.897 241.051 154.95 242.783 153.529C243.718 154.996 244.29 156.133 244.29 156.738Z" fill="black"/>
<path d="M191.007 215.652C194.673 219.255 200.872 221.24 211.297 217.701L252.997 187.905C252.997 187.905 258.954 184.696 252.997 170.485C247.04 156.275 243.374 153.983 243.374 153.983C243.374 153.983 236.042 160.4 231.001 159.942L235.584 174.153L207.173 190.197C203.047 190.546 199.006 191.573 195.213 193.236C186.42 197.238 184.115 208.895 191.007 215.652Z" fill="#FF7F8E"/>
<path opacity="0.1" d="M145.435 165.182C142.397 166.502 141.114 170.091 138.676 172.337C136.238 174.583 132.682 175.358 129.566 176.674C126.45 177.989 123.293 180.529 123.325 183.917C123.357 187.304 126.684 190.279 126.12 193.658C125.832 195.395 124.539 196.839 124.242 198.572C123.916 200.442 124.814 202.335 126.038 203.788C129.374 207.749 134.772 209.11 139.735 210.582C144.697 212.053 150.045 214.249 152.281 218.916C152.877 220.163 153.198 221.515 153.752 222.785C155.663 227.272 160.048 230.335 164.695 231.815C169.341 233.296 174.318 233.415 179.175 233.521C180.962 233.557 182.841 233.585 184.454 232.856C186.067 232.127 187.428 230.413 187.121 228.652C186.882 227.277 185.746 226.255 184.733 225.306C182.749 223.472 180.852 221.423 179.853 218.888C178.854 216.353 178.909 213.296 180.595 211.182C182.593 208.68 186.172 208.166 188.775 206.3C193.444 202.954 193.49 194.914 188.867 191.512C187.222 190.302 185.224 189.679 183.437 188.693C178.061 185.732 174.991 179.809 170.084 176.124C166.184 173.194 161.409 171.893 157.253 169.422C153.399 167.153 150.631 162.926 145.435 165.182Z" fill="black"/>
<path d="M144.519 165.182C141.48 166.502 140.197 170.091 137.76 172.337C135.322 174.583 131.766 175.358 128.65 176.674C125.534 177.989 122.377 180.529 122.409 183.917C122.441 187.304 125.768 190.279 125.204 193.658C124.915 195.395 123.623 196.839 123.325 198.572C123 200.442 123.898 202.335 125.121 203.788C128.457 207.749 133.855 209.11 138.818 210.582C143.781 212.053 149.128 214.249 151.365 218.916C151.96 220.163 152.281 221.515 152.836 222.785C154.746 227.272 159.132 230.335 163.778 231.815C168.425 233.296 173.401 233.415 178.258 233.521C180.046 233.557 181.924 233.585 183.537 232.856C185.15 232.127 186.511 230.413 186.204 228.652C185.966 227.277 184.83 226.255 183.817 225.306C181.833 223.472 179.936 221.423 178.937 218.888C177.938 216.353 177.993 213.296 179.679 211.182C181.677 208.68 185.256 208.166 187.859 206.3C192.528 202.954 192.574 194.914 187.95 191.512C186.305 190.302 184.307 189.679 182.52 188.693C177.145 185.732 174.075 179.809 169.167 176.124C165.267 173.194 160.493 171.893 156.336 169.422C152.483 167.153 149.715 162.926 144.519 165.182Z" fill="#593B2E"/>
<path d="M120.64 327.2L87.7568 354.604L49.0496 328.433L87.1015 308.089L119.164 323.262L120.64 327.2Z" fill="#DADAE5"/>
<path d="M68.2818 273.182L84.847 305.013L49.0909 321.667L25.9728 278.738L68.2818 273.182Z" fill="#DADAE5"/>
<path opacity="0.03" d="M70.9075 270.23L68.2818 273.512L25.9728 279.068L24.5752 276.464L70.9075 270.23Z" fill="black"/>
<path opacity="0.03" d="M87.3902 302.634L70.9075 270.23L68.2818 273.512L84.43 304.541L87.3902 302.634Z" fill="black"/>
<path d="M70.9075 269.9L68.2818 273.182L25.9728 278.738L24.5752 276.134L70.9075 269.9Z" fill="#EFF0F4"/>
<path d="M87.3902 302.304L70.9075 269.9L68.2818 273.182L84.43 304.216L87.3902 302.304Z" fill="#EFF0F4"/>
<path opacity="0.03" d="M70.9075 269.9L66.907 275.015L24.5981 280.571L24.5752 276.134L70.9075 269.9Z" fill="black"/>
<path opacity="0.03" d="M87.3902 302.304L70.9075 269.9L66.9071 275.015L83.0553 306.049L87.3902 302.304Z" fill="black"/>
<path opacity="0.03" d="M87.3902 302.795V309.455L49.0909 329.882V322.158L87.3902 302.795Z" fill="black"/>
<path opacity="0.03" d="M120.681 319.448L87.3902 302.795L87.1015 309.496L119.948 326.76L120.681 319.448Z" fill="black"/>
<path d="M87.3902 302.304V308.048L49.0909 328.474V321.667L87.3902 302.304Z" fill="#EFF0F4"/>
<path d="M120.681 318.958L87.3902 302.304L87.1015 308.089L119.948 325.348L120.681 318.958Z" fill="#EFF0F4"/>
<path opacity="0.03" d="M87.3902 302.304V308.048L49.0909 328.474V321.667L87.3902 302.304Z" fill="black"/>
<path opacity="0.03" d="M120.681 318.958L87.3902 302.304L87.1015 308.089L119.948 325.348L120.681 318.958Z" fill="black"/>
<path d="M120.681 318.958L120.599 327.241L87.7981 354.562L87.3902 346.109L120.681 318.958Z" fill="#CCCAD6"/>
<path d="M103.997 320.269C103.997 320.269 104.812 321.369 103.942 322.071C103.525 322.405 100.358 323.57 97.169 324.697C95.6018 325.252 94.0301 325.793 92.7745 326.224L90.1671 327.108L89.3331 327.255L84.2925 328.14L79.5727 328.974L77.5061 328.878L77.419 320.805L82.3817 313.278L83.7976 314.136L84.0451 314.282L87.5918 315.369L97.5997 318.44L102.104 319.815L102.631 319.976L103.997 320.269Z" fill="#FFE09C"/>
<path d="M74.0326 328.869C74.0326 328.869 73.8127 320.086 76.585 316.561C76.585 316.561 78.8349 313.439 80.3609 312.435C80.3609 312.435 81.6027 311.225 83.4494 313.998C83.4494 313.998 78.67 318.06 78.3217 323.272L77.9735 328.484L74.0326 328.869Z" fill="#E7C4C3"/>
<path d="M83.4673 324.687C84.5857 323.697 84.8129 322.126 83.9746 321.178C83.1363 320.23 81.55 320.263 80.4315 321.253C79.313 322.242 79.0859 323.813 79.9242 324.761C80.7625 325.71 82.3488 325.676 83.4673 324.687Z" fill="#FF7F8E"/>
<path d="M91.4349 321.522C92.5534 320.533 92.7805 318.962 91.9422 318.014C91.1039 317.065 89.5176 317.099 88.3991 318.088C87.2807 319.078 87.0535 320.649 87.8918 321.597C88.7301 322.545 90.3164 322.512 91.4349 321.522Z" fill="#FF7F8E"/>
<path d="M87.601 315.369C87.637 315.818 87.565 316.269 87.3913 316.684C87.2175 317.1 86.9469 317.467 86.6021 317.757C85.484 318.747 83.8985 318.779 83.0599 317.83C82.2213 316.881 82.4504 315.314 83.5685 314.324C83.6449 314.256 83.7243 314.192 83.8068 314.131L84.0543 314.278L87.601 315.369Z" fill="#FF7F8E"/>
<path d="M88.8428 325.609C89.0356 325.834 89.179 326.096 89.2634 326.38C89.3479 326.664 89.3717 326.962 89.3331 327.255L84.2925 328.14C84.2429 327.68 84.3072 327.216 84.4798 326.787C84.6525 326.359 84.9281 325.979 85.2823 325.683C86.405 324.697 88.0042 324.661 88.8428 325.609Z" fill="#FF7F8E"/>
<path d="M96.7703 322.602C97.0116 322.89 97.1749 323.235 97.2447 323.605C97.3145 323.974 97.2884 324.355 97.169 324.711C95.6018 325.266 94.0301 325.807 92.7745 326.237L92.7241 326.182C91.8855 325.234 92.1147 323.666 93.2327 322.676C94.3508 321.685 95.9318 321.644 96.7703 322.602Z" fill="#FF7F8E"/>
<path d="M102.113 319.82C101.956 320.067 101.765 320.29 101.545 320.484C100.427 321.475 98.8415 321.507 98.003 320.558C97.7605 320.268 97.5969 319.92 97.5279 319.548C97.4588 319.177 97.4867 318.793 97.6089 318.435L102.113 319.82Z" fill="#FF7F8E"/>
<path d="M80.9612 326.384L81.534 327.035C81.927 326.474 82.4366 326.005 83.0278 325.66L83.1561 325.609C83.9764 325.325 82.5833 324.959 82.5833 324.959C82.5833 324.959 81.0666 325.88 80.9612 326.384Z" fill="#94CC79"/>
<path d="M84.0818 320.567L84.6546 321.218C85.0476 320.657 85.5572 320.188 86.1484 319.843L86.2767 319.792C87.097 319.508 85.7039 319.141 85.7039 319.141C85.7039 319.141 84.1826 320.063 84.0818 320.567Z" fill="#94CC79"/>
<path d="M86.8358 322.098L87.4085 322.749C87.8015 322.188 88.3112 321.719 88.9024 321.374L89.0307 321.323C89.851 321.039 88.4579 320.672 88.4579 320.672C88.4579 320.672 86.9411 321.589 86.8358 322.098Z" fill="#94CC79"/>
<path d="M92.3621 323.061L92.9349 323.712C93.3279 323.151 93.8375 322.682 94.4287 322.336L94.557 322.286C95.3773 322.002 93.9843 321.635 93.9843 321.635C93.9843 321.635 92.4583 322.575 92.3621 323.061Z" fill="#94CC79"/>
<path d="M99.9092 321.626L100.482 322.277C100.875 321.716 101.385 321.247 101.976 320.902L102.104 320.851C102.924 320.567 101.531 320.2 101.531 320.2C101.531 320.2 100.015 321.122 99.9092 321.626Z" fill="#94CC79"/>
<path d="M93.2511 319.889L93.8239 320.539C94.2169 319.979 94.7265 319.51 95.3177 319.164L95.446 319.114C96.2663 318.83 94.8732 318.463 94.8732 318.463C94.8732 318.463 93.3565 319.393 93.2511 319.889Z" fill="#94CC79"/>
<path d="M75.8243 330.854C75.8243 330.854 72.8641 330.996 74.0464 328.846C75.5632 328.214 77.217 327.983 78.8487 328.176C78.8487 328.176 91.3219 326.801 92.7928 325.642C92.7928 325.642 103.735 322.075 104.098 321.424C104.098 321.424 105.014 321.479 102.475 323.139C99.9367 324.798 91.3127 327.452 91.3127 327.452L82.0884 329.662L78.6608 329.772L75.8243 330.854Z" fill="#E7C4C3"/>
<path opacity="0.2" d="M75.8243 330.854C75.8243 330.854 72.8641 330.996 74.0464 328.846C75.5632 328.214 77.217 327.983 78.8487 328.176C78.8487 328.176 91.3219 326.801 92.7928 325.642C92.7928 325.642 103.735 322.075 104.098 321.424C104.098 321.424 105.014 321.479 102.475 323.139C99.9367 324.798 91.3127 327.452 91.3127 327.452L82.0884 329.662L78.6608 329.772L75.8243 330.854Z" fill="white"/>
<path d="M101.004 323.409C101.004 323.409 102.173 324.12 101.632 325.096C101.371 325.554 98.8828 327.846 96.3442 330.079C95.1023 331.179 93.8468 332.275 92.8478 333.15C91.6197 334.218 90.7674 334.952 90.7674 334.952L90.048 335.41L85.7314 338.119L81.6714 340.668L79.7193 341.356L76.5988 333.911L78.363 325.069L79.9989 325.33L80.283 325.376L83.9764 325.05L94.4012 324.133L99.0936 323.716L99.6435 323.666L101.004 323.409Z" fill="#FFE09C"/>
<path d="M76.4934 342.653C76.4934 342.653 72.9833 334.599 74.2022 330.276C74.2022 330.276 75.1187 326.535 76.1405 325.023C76.1405 325.023 76.8371 323.432 79.5911 325.307C79.5911 325.307 76.695 330.867 78.3309 335.85L79.9897 340.796L76.4934 342.653Z" fill="#E7C4C3"/>
<path d="M83.6407 335.279C84.3046 333.941 83.924 332.401 82.7905 331.838C81.6571 331.275 80.2001 331.903 79.5362 333.241C78.8723 334.579 79.2529 336.12 80.3863 336.683C81.5197 337.246 82.9768 336.617 83.6407 335.279Z" fill="#FF7F8E"/>
<path d="M89.8298 329.345C90.4938 328.007 90.1131 326.467 88.9797 325.904C87.8463 325.341 86.3893 325.969 85.7254 327.307C85.0615 328.645 85.4421 330.186 86.5755 330.749C87.7089 331.312 89.1659 330.683 89.8298 329.345Z" fill="#FF7F8E"/>
<path d="M83.9718 325.046C84.1733 325.448 84.276 325.892 84.2712 326.342C84.2664 326.791 84.1544 327.233 83.9443 327.631C83.2799 328.97 81.8272 329.598 80.6908 329.034C79.5544 328.47 79.1786 326.934 79.8431 325.596C79.8889 325.504 79.9393 325.414 79.9943 325.325L80.2784 325.371L83.9718 325.046Z" fill="#FF7F8E"/>
<path d="M88.9711 334.062C89.2338 334.198 89.4651 334.387 89.6498 334.617C89.8346 334.848 89.9687 335.115 90.0434 335.401L85.7268 338.11C85.509 337.703 85.3951 337.247 85.3951 336.785C85.3951 336.323 85.509 335.868 85.7268 335.461C86.405 334.131 87.8393 333.503 88.9711 334.062Z" fill="#FF7F8E"/>
<path d="M95.1802 328.277C95.5121 328.453 95.7933 328.711 95.9971 329.026C96.2008 329.342 96.3204 329.704 96.3442 330.079C95.1023 331.179 93.8468 332.275 92.8478 333.15L92.7837 333.118C91.6518 332.554 91.2715 331.019 91.9359 329.68C92.6004 328.342 94.0484 327.718 95.1802 328.277Z" fill="#FF7F8E"/>
<path d="M99.089 323.702C99.0349 323.991 98.9408 324.27 98.8095 324.532C98.145 325.871 96.6924 326.499 95.556 325.935C95.22 325.756 94.9361 325.493 94.7321 325.172C94.5281 324.85 94.4109 324.482 94.3921 324.101L99.089 323.702Z" fill="#FF7F8E"/>
<path d="M81.9647 337.73L82.7391 338.115C82.8925 337.448 83.1879 336.823 83.6052 336.281L83.7014 336.185C84.3567 335.612 82.927 335.8 82.927 335.8C82.927 335.8 81.873 337.239 81.9647 337.73Z" fill="#94CC79"/>
<path d="M82.6658 331.184L83.4402 331.569C83.5936 330.902 83.889 330.277 84.3063 329.735L84.4025 329.639C85.0578 329.066 83.6281 329.254 83.6281 329.254C83.6281 329.254 82.5696 330.679 82.6658 331.184Z" fill="#94CC79"/>
<path d="M85.791 331.564L86.5654 331.949C86.7188 331.283 87.0142 330.657 87.4315 330.116L87.5277 330.019C88.183 329.446 86.7533 329.634 86.7533 329.634C86.7533 329.634 85.6993 331.055 85.791 331.564Z" fill="#94CC79"/>
<path d="M91.2761 330.395L92.0505 330.78C92.2038 330.114 92.4992 329.488 92.9165 328.947L93.0128 328.85C93.6681 328.277 92.2384 328.465 92.2384 328.465C92.2384 328.465 91.1844 329.886 91.2761 330.395Z" fill="#94CC79"/>
<path d="M97.728 326.205L98.5025 326.59C98.6558 325.924 98.9512 325.299 99.3685 324.757L99.4647 324.661C100.12 324.088 98.6903 324.276 98.6903 324.276C98.6903 324.276 97.6364 325.697 97.728 326.205Z" fill="#94CC79"/>
<path d="M90.9049 327.104L91.6793 327.489C91.8326 326.822 92.1281 326.197 92.5454 325.655L92.6416 325.559C93.2969 324.986 91.8672 325.174 91.8672 325.174C91.8672 325.174 90.8132 326.595 90.9049 327.104Z" fill="#94CC79"/>
<path d="M78.8945 343.845C78.8945 343.845 76.2047 345.087 76.4934 342.653C77.6607 341.496 79.1063 340.659 80.6908 340.223C80.6908 340.223 91.7206 334.232 92.6554 332.623C92.6554 332.623 101.449 325.197 101.541 324.459C101.541 324.459 102.425 324.161 100.679 326.659C98.9332 329.157 91.9726 334.86 91.9726 334.86L84.2605 340.361L81.1307 341.736L78.8945 343.845Z" fill="#E7C4C3"/>
<path opacity="0.2" d="M78.8945 343.845C78.8945 343.845 76.2047 345.087 76.4934 342.653C77.6607 341.496 79.1063 340.659 80.6908 340.223C80.6908 340.223 91.7206 334.232 92.6554 332.623C92.6554 332.623 101.449 325.197 101.541 324.459C101.541 324.459 102.425 324.161 100.679 326.659C98.9332 329.157 91.9726 334.86 91.9726 334.86L84.2605 340.361L81.1307 341.736L78.8945 343.845Z" fill="white"/>
<path d="M87.3902 346.109L49.0909 321.667V328.392L87.7981 354.562L87.3902 346.109Z" fill="#CCCAD6"/>
<path d="M44.9942 324.042L49.0908 321.667L24.5752 276.134L21.7021 278.925L44.9942 324.042Z" fill="#CCCAD6"/>
</g>
<defs>
<linearGradient id="paint0_linear_3_166" x1="244.606" y1="294.204" x2="244.606" y2="59.0334" gradientUnits="userSpaceOnUse">
<stop stop-color="#808080" stop-opacity="0.25"/>
<stop offset="0.54" stop-color="#808080" stop-opacity="0.12"/>
<stop offset="1" stop-color="#808080" stop-opacity="0.1"/>
</linearGradient>
<clipPath id="clip0_3_166">
<rect width="456" height="372" fill="white"/>
</clipPath>
</defs>
</svg>
