<svg width="436" height="298" viewBox="0 0 436 298" fill="none" xmlns="http://www.w3.org/2000/svg">
<path d="M374.31 124.426C380.32 130.724 387.025 131.729 394.425 127.441C391.319 122.469 390.58 117.06 391.407 111.363H376.992C377.631 116.369 377.459 121.031 374.31 124.426Z" fill="#ECB392"/>
<path d="M398.112 289.229L405.823 285.21L409.175 242.669V220.227L391.407 219.892L396.436 242.334L398.112 289.229Z" fill="#FFB8B8"/>
<path d="M375.762 289.229L368.051 285.21L364.699 242.669V220.227L382.466 219.892L377.438 242.334L375.762 289.229Z" fill="#FFB8B8"/>
<path d="M367 285.5L376 289L379.5 235.5L385.708 206.158L394.5 235.5L398 292L414 285.5C414.447 277.361 409.664 206.107 407 197.5L361.571 195.439L367 285.5Z" fill="#2F2E41"/>
<path d="M344.405 160.759L321.823 143.384C321.588 143.204 321.33 143.056 321.056 142.944L317.774 141.61C315.138 140.538 310.116 136.974 312.565 133.303C314.54 130.344 322.098 135.645 323.028 137.609C323.321 138.227 323.803 138.737 324.404 139.065L328.994 141.577C329.105 141.638 329.22 141.693 329.338 141.741L346.81 148.817C347.295 149.013 347.819 149.091 348.339 149.044C348.86 148.997 349.362 148.827 349.803 148.547L352.971 146.54C353.421 146.255 353.935 146.083 354.467 146.04C354.999 145.998 355.533 146.085 356.024 146.296C356.514 146.506 356.946 146.832 357.282 147.246C357.618 147.661 357.848 148.151 357.951 148.674L358.998 153.953C359.149 154.714 359.026 155.502 358.65 156.18C358.275 156.858 357.671 157.382 356.946 157.658L347.579 161.226C347.054 161.425 346.487 161.487 345.931 161.406C345.375 161.324 344.85 161.102 344.405 160.759Z" fill="#ECB392"/>
<path d="M350 148C356.252 146.325 354.626 155.209 359.396 159.5L367.5 152.5L363.312 130C361.855 130.416 360.514 131.165 359.396 132.188C358.278 133.211 357.414 134.479 356.871 135.894L350 148Z" fill="#42C9B1"/>
<path d="M365 197.5L407 198C399.35 177.402 400.594 155.33 407.107 133.742C407.217 133.383 407.198 132.998 407.053 132.652C406.909 132.306 406.648 132.022 406.316 131.848L392.748 124.761C387.423 128.224 381.699 127.16 375.651 122.417L359.5 131.848C363.516 155.945 369.8 174.521 365 197.5Z" fill="#42C9B1"/>
<path d="M372.05 297.097L352.351 297.931C351.493 297.968 350.652 297.686 349.99 297.14C349.328 296.594 348.891 295.822 348.764 294.974C348.636 294.117 348.833 293.243 349.316 292.524C349.799 291.804 350.533 291.291 351.376 291.085L354.717 290.267L367.849 282.661C369.794 284.674 372.474 286.376 375.749 287.826L375.787 293.173C375.794 294.183 375.409 295.157 374.711 295.889C374.014 296.621 373.06 297.054 372.05 297.097Z" fill="#2F2E41"/>
<path d="M435.805 298H0.158447V296.924H436L435.805 298Z" fill="#3F3D56"/>
<path d="M401.661 296.798L421.359 297.632C422.217 297.669 423.058 297.387 423.72 296.841C424.382 296.295 424.819 295.523 424.946 294.675C425.074 293.818 424.878 292.944 424.394 292.225C423.911 291.505 423.177 290.992 422.335 290.786L418.993 289.968L405.861 282.362C403.916 284.375 401.237 286.077 397.962 287.527L397.923 292.874C397.916 293.884 398.302 294.858 398.999 295.59C399.696 296.322 400.65 296.755 401.661 296.798Z" fill="#2F2E41"/>
<g filter="url(#filter0_d_4_2)">
<path d="M382.691 121C388.616 121 393.419 112.593 393.419 106.673C393.419 100.753 388.616 95.9543 382.691 95.9543C376.766 95.9543 371.963 100.753 371.963 106.673C371.963 112.593 376.766 121 382.691 121Z" fill="#ECB392"/>
</g>
<path d="M399.453 193.764L395.909 200.65C395.596 201.258 395.416 201.925 395.379 202.607C395.343 203.289 395.452 203.971 395.698 204.609C395.944 205.246 396.323 205.824 396.809 206.305C397.295 206.786 397.877 207.159 398.517 207.398C399.195 207.652 399.921 207.751 400.642 207.688C401.363 207.625 402.06 207.401 402.684 207.034C403.307 206.666 403.84 206.163 404.243 205.563C404.646 204.962 404.91 204.279 405.014 203.563L406.493 193.429L411.857 167.972L411.522 155.243H400.794C404.453 164.711 402.638 178.675 399.453 193.764Z" fill="#ECB392"/>
<path d="M399.118 156.583H413.533L411.441 140.787C411.157 138.645 410.341 136.607 409.067 134.861C407.793 133.115 406.101 131.716 404.147 130.791L399.118 156.583Z" fill="#42C9B1"/>
<path d="M394.096 100.769C394.31 99.3372 394.22 97.8763 393.832 96.4815C393.443 95.0867 392.765 93.7893 391.841 92.6739C390.011 90.5099 386.943 88.7386 381.853 89.5742C370.748 91.3973 367.546 100.635 368.634 102.958C369.722 105.281 373.057 110.666 373.057 110.666C373.057 110.666 370.4 107.315 373.057 106.229C375.713 105.144 386.202 98.8905 389.79 100.816C390.806 101.326 391.668 102.095 392.289 103.046C392.911 103.997 393.269 105.095 393.327 106.229L394.096 100.769Z" fill="#443116"/>
<path d="M169.918 150.927V147.365C169.918 147.365 185.475 138.621 198.116 147.365V150.603L169.918 150.927Z" fill="#535461"/>
<path d="M311.555 150.927V147.365C311.555 147.365 327.112 138.621 339.753 147.365V150.603L311.555 150.927Z" fill="#535461"/>
<path d="M216.59 150.603H201.357C201.357 150.603 197.468 146.069 184.503 146.393C171.539 146.717 168.946 150.603 168.946 150.603C168.946 150.603 156.143 159.185 153.226 169.872C153.226 169.872 137.507 216.992 137.183 253.91C136.859 290.829 151.12 296.01 158.574 296.982C166.029 297.954 179.317 296.658 192.282 263.95L197.792 244.843C197.792 244.843 198.764 233.508 210.432 240.633C222.1 247.757 232.472 236.746 232.472 236.746H276.227C276.227 236.746 290.812 245.814 304.1 238.69C304.1 238.69 309.286 231.889 314.148 254.882C314.148 254.882 329.057 302.164 352.069 297.306C375.081 292.448 372.488 252.939 372.488 252.939C372.488 252.939 369.409 192.541 356.769 171.167C356.769 171.167 344.614 148.984 336.512 148.012C336.512 148.012 319.01 144.774 312.203 147.689L308.314 150.927L216.59 150.603Z" fill="#E6E6E6"/>
<path d="M181.262 210.515C196.835 210.515 209.46 197.901 209.46 182.34C209.46 166.78 196.835 154.165 181.262 154.165C165.689 154.165 153.064 166.78 153.064 182.34C153.064 197.901 165.689 210.515 181.262 210.515Z" fill="#535461"/>
<path d="M328.409 210.515C343.982 210.515 356.606 197.901 356.606 182.34C356.606 166.78 343.982 154.165 328.409 154.165C312.836 154.165 300.211 166.78 300.211 182.34C300.211 197.901 312.836 210.515 328.409 210.515Z" fill="#535461"/>
<path d="M186.176 176.058L182.416 179.38C182.097 179.66 181.688 179.815 181.264 179.815C180.839 179.815 180.43 179.66 180.111 179.38L176.345 176.058C176.161 175.895 176.013 175.696 175.912 175.473C175.81 175.25 175.757 175.007 175.755 174.762V165.62C175.756 165.158 175.94 164.716 176.267 164.39C176.594 164.064 177.037 163.881 177.499 163.881H185.035C185.496 163.88 185.939 164.062 186.266 164.388C186.593 164.714 186.778 165.156 186.778 165.617V174.756C186.776 175.003 186.722 175.247 186.618 175.472C186.514 175.696 186.363 175.896 186.176 176.058Z" fill="#E6E6E6"/>
<path d="M186.176 188.62L182.416 185.3C182.097 185.02 181.688 184.866 181.264 184.866C180.839 184.866 180.43 185.02 180.111 185.3L176.345 188.623C176.161 188.785 176.013 188.984 175.912 189.207C175.81 189.431 175.757 189.673 175.755 189.918V199.051C175.754 199.512 175.937 199.955 176.263 200.281C176.589 200.608 177.031 200.792 177.493 200.793H185.035C185.496 200.794 185.939 200.611 186.266 200.286C186.593 199.96 186.778 199.518 186.778 199.057V189.921C186.776 189.674 186.722 189.43 186.618 189.206C186.514 188.981 186.363 188.781 186.176 188.62Z" fill="#E6E6E6"/>
<path d="M174.977 187.256L178.303 183.493C178.583 183.175 178.738 182.766 178.738 182.342C178.738 181.918 178.583 181.509 178.303 181.191L174.977 177.427C174.815 177.244 174.616 177.096 174.392 176.994C174.169 176.893 173.926 176.84 173.681 176.838H164.541C164.079 176.839 163.636 177.023 163.31 177.35C162.984 177.676 162.801 178.119 162.801 178.58V186.11C162.8 186.571 162.982 187.014 163.308 187.34C163.634 187.667 164.076 187.851 164.538 187.852H173.684C173.93 187.849 174.172 187.795 174.395 187.692C174.618 187.59 174.816 187.441 174.977 187.256Z" fill="#E6E6E6"/>
<path d="M187.55 187.256L184.231 183.49C183.95 183.172 183.795 182.763 183.795 182.339C183.795 181.915 183.95 181.505 184.231 181.187L187.556 177.424C187.719 177.24 187.918 177.093 188.141 176.991C188.365 176.889 188.607 176.836 188.853 176.835H197.993C198.454 176.834 198.897 177.016 199.224 177.342C199.551 177.667 199.736 178.109 199.736 178.571V186.107C199.737 186.568 199.555 187.01 199.229 187.337C198.903 187.664 198.461 187.848 197.999 187.849H188.856C188.609 187.849 188.364 187.795 188.139 187.693C187.914 187.591 187.713 187.442 187.55 187.256Z" fill="#E6E6E6"/>
<path d="M219.507 233.508C230.784 233.508 239.926 224.374 239.926 213.106C239.926 201.838 230.784 192.703 219.507 192.703C208.23 192.703 199.088 201.838 199.088 213.106C199.088 224.374 208.23 233.508 219.507 233.508Z" fill="#535461"/>
<path d="M290.164 233.508C301.441 233.508 310.583 224.374 310.583 213.106C310.583 201.838 301.441 192.703 290.164 192.703C278.886 192.703 269.745 201.838 269.745 213.106C269.745 224.374 278.886 233.508 290.164 233.508Z" fill="#535461"/>
<path d="M219.507 226.707C227.025 226.707 233.12 220.618 233.12 213.106C233.12 205.594 227.025 199.504 219.507 199.504C211.989 199.504 205.895 205.594 205.895 213.106C205.895 220.618 211.989 226.707 219.507 226.707Z" fill="#E6E6E6"/>
<path d="M219.507 222.497C217.648 222.497 215.831 221.946 214.285 220.914C212.74 219.882 211.535 218.416 210.823 216.7C210.112 214.983 209.926 213.095 210.289 211.273C210.651 209.452 211.546 207.778 212.861 206.465C214.175 205.151 215.85 204.257 217.674 203.894C219.497 203.532 221.387 203.718 223.104 204.429C224.822 205.14 226.29 206.343 227.322 207.888C228.355 209.432 228.906 211.248 228.906 213.106C228.904 215.595 227.912 217.983 226.15 219.743C224.388 221.504 221.999 222.494 219.507 222.497ZM219.507 204.362C217.776 204.362 216.085 204.875 214.645 205.835C213.206 206.796 212.085 208.162 211.422 209.759C210.76 211.357 210.587 213.115 210.924 214.811C211.262 216.508 212.095 218.066 213.319 219.288C214.543 220.511 216.102 221.344 217.8 221.681C219.498 222.019 221.257 221.846 222.856 221.184C224.455 220.522 225.822 219.401 226.783 217.963C227.745 216.525 228.258 214.835 228.258 213.106C228.256 210.787 227.333 208.565 225.692 206.926C224.052 205.286 221.827 204.364 219.507 204.362Z" fill="#535461"/>
<path d="M290.164 226.707C297.682 226.707 303.776 220.618 303.776 213.106C303.776 205.594 297.682 199.504 290.164 199.504C282.645 199.504 276.551 205.594 276.551 213.106C276.551 220.618 282.645 226.707 290.164 226.707Z" fill="#E6E6E6"/>
<path d="M290.164 222.497C288.305 222.497 286.487 221.946 284.942 220.914C283.396 219.882 282.191 218.416 281.48 216.7C280.768 214.983 280.582 213.095 280.945 211.273C281.308 209.452 282.203 207.778 283.517 206.465C284.832 205.151 286.507 204.257 288.33 203.894C290.153 203.532 292.043 203.718 293.761 204.429C295.478 205.14 296.946 206.343 297.979 207.888C299.012 209.432 299.563 211.248 299.563 213.106C299.56 215.595 298.569 217.983 296.807 219.743C295.045 221.504 292.656 222.494 290.164 222.497ZM290.164 204.362C288.433 204.362 286.741 204.875 285.302 205.835C283.863 206.796 282.741 208.162 282.079 209.759C281.416 211.357 281.243 213.115 281.581 214.811C281.918 216.508 282.752 218.066 283.976 219.288C285.2 220.511 286.759 221.344 288.456 221.681C290.154 222.019 291.913 221.846 293.513 221.184C295.112 220.522 296.478 219.401 297.44 217.963C298.401 216.525 298.915 214.835 298.915 213.106C298.912 210.787 297.989 208.565 296.349 206.926C294.708 205.286 292.484 204.364 290.164 204.362Z" fill="#535461"/>
<path d="M255.484 221.202C258.706 221.202 261.318 218.592 261.318 215.373C261.318 212.153 258.706 209.543 255.484 209.543C252.262 209.543 249.65 212.153 249.65 215.373C249.65 218.592 252.262 221.202 255.484 221.202Z" fill="#535461"/>
<path d="M246.567 197.189C247.271 197.189 247.841 196.619 247.841 195.916C247.841 195.213 247.271 194.643 246.567 194.643C245.864 194.643 245.294 195.213 245.294 195.916C245.294 196.619 245.864 197.189 246.567 197.189Z" fill="#535461"/>
<path d="M251.338 197.189C252.042 197.189 252.612 196.619 252.612 195.916C252.612 195.213 252.042 194.643 251.338 194.643C250.635 194.643 250.064 195.213 250.064 195.916C250.064 196.619 250.635 197.189 251.338 197.189Z" fill="#535461"/>
<path d="M250.703 203.228C251.406 203.228 251.977 202.658 251.977 201.956C251.977 201.253 251.406 200.683 250.703 200.683C249.999 200.683 249.429 201.253 249.429 201.956C249.429 202.658 249.999 203.228 250.703 203.228Z" fill="#535461"/>
<path d="M255.159 203.39C255.876 203.39 256.456 202.81 256.456 202.095C256.456 201.379 255.876 200.799 255.159 200.799C254.443 200.799 253.863 201.379 253.863 202.095C253.863 202.81 254.443 203.39 255.159 203.39Z" fill="#535461"/>
<path d="M259.61 203.228C260.313 203.228 260.883 202.658 260.883 201.956C260.883 201.253 260.313 200.683 259.61 200.683C258.906 200.683 258.336 201.253 258.336 201.956C258.336 202.658 258.906 203.228 259.61 203.228Z" fill="#535461"/>
<path d="M248.794 200.369C249.497 200.369 250.068 199.799 250.068 199.096C250.068 198.393 249.497 197.823 248.794 197.823C248.09 197.823 247.52 198.393 247.52 199.096C247.52 199.799 248.09 200.369 248.794 200.369Z" fill="#535461"/>
<path d="M252.891 200.476C253.607 200.476 254.187 199.896 254.187 199.18C254.187 198.465 253.607 197.885 252.891 197.885C252.175 197.885 251.594 198.465 251.594 199.18C251.594 199.896 252.175 200.476 252.891 200.476Z" fill="#535461"/>
<path d="M257.104 200.476C257.82 200.476 258.401 199.896 258.401 199.18C258.401 198.465 257.82 197.885 257.104 197.885C256.388 197.885 255.808 198.465 255.808 199.18C255.808 199.896 256.388 200.476 257.104 200.476Z" fill="#535461"/>
<path d="M261.519 200.369C262.222 200.369 262.792 199.799 262.792 199.096C262.792 198.393 262.222 197.823 261.519 197.823C260.815 197.823 260.245 198.393 260.245 199.096C260.245 199.799 260.815 200.369 261.519 200.369Z" fill="#535461"/>
<path d="M255.159 197.237C255.876 197.237 256.456 196.657 256.456 195.942C256.456 195.226 255.876 194.646 255.159 194.646C254.443 194.646 253.863 195.226 253.863 195.942C253.863 196.657 254.443 197.237 255.159 197.237Z" fill="#535461"/>
<path d="M259.697 197.237C260.413 197.237 260.994 196.657 260.994 195.942C260.994 195.226 260.413 194.646 259.697 194.646C258.981 194.646 258.401 195.226 258.401 195.942C258.401 196.657 258.981 197.237 259.697 197.237Z" fill="#535461"/>
<path d="M263.428 197.189C264.131 197.189 264.701 196.619 264.701 195.916C264.701 195.213 264.131 194.643 263.428 194.643C262.724 194.643 262.154 195.213 262.154 195.916C262.154 196.619 262.724 197.189 263.428 197.189Z" fill="#535461"/>
<path d="M207.029 153.363C206.429 153.364 205.854 153.602 205.431 154.026C205.007 154.449 204.768 155.024 204.767 155.623V162.424C204.768 163.023 205.007 163.597 205.431 164.021C205.854 164.444 206.429 164.683 207.029 164.683H208.649C209.249 164.683 209.824 164.444 210.248 164.021C210.672 163.597 210.91 163.023 210.911 162.424V155.623C210.91 155.024 210.672 154.449 210.248 154.026C209.824 153.602 209.249 153.364 208.649 153.363H207.029Z" fill="#535461"/>
<path d="M301.669 153.363C301.07 153.364 300.495 153.602 300.071 154.026C299.647 154.449 299.409 155.024 299.408 155.623V162.424C299.409 163.023 299.647 163.597 300.071 164.021C300.495 164.444 301.07 164.683 301.669 164.683H303.29C303.89 164.683 304.464 164.444 304.888 164.021C305.312 163.597 305.551 163.023 305.551 162.424V155.623C305.551 155.024 305.312 154.449 304.888 154.026C304.464 153.602 303.89 153.364 303.29 153.363H301.669Z" fill="#535461"/>
<path d="M328.733 172.949C333.029 172.949 336.512 169.469 336.512 165.176C336.512 160.884 333.029 157.404 328.733 157.404C324.437 157.404 320.954 160.884 320.954 165.176C320.954 169.469 324.437 172.949 328.733 172.949Z" fill="#E6E6E6"/>
<path d="M312.203 189.465C316.499 189.465 319.982 185.985 319.982 181.692C319.982 177.4 316.499 173.92 312.203 173.92C307.907 173.92 304.424 177.4 304.424 181.692C304.424 185.985 307.907 189.465 312.203 189.465Z" fill="#E6E6E6"/>
<path d="M345.911 188.493C350.207 188.493 353.689 185.013 353.689 180.721C353.689 176.428 350.207 172.949 345.911 172.949C341.615 172.949 338.132 176.428 338.132 180.721C338.132 185.013 341.615 188.493 345.911 188.493Z" fill="#E6E6E6"/>
<path d="M330.029 205.657C334.325 205.657 337.808 202.177 337.808 197.885C337.808 193.592 334.325 190.112 330.029 190.112C325.733 190.112 322.251 193.592 322.251 197.885C322.251 202.177 325.733 205.657 330.029 205.657Z" fill="#E6E6E6"/>
<path d="M221.695 148.829C219.957 148.831 218.29 149.522 217.061 150.75C215.832 151.978 215.141 153.643 215.139 155.38V184.364C215.141 186.101 215.832 187.766 217.061 188.994C218.29 190.222 219.957 190.913 221.695 190.915H288.3C290.038 190.913 291.704 190.222 292.933 188.994C294.162 187.766 294.854 186.101 294.856 184.364V155.38C294.854 153.643 294.162 151.978 292.933 150.75C291.704 149.522 290.038 148.831 288.3 148.829H221.695Z" fill="#535461"/>
<path d="M334.017 168.739H323.469L328.561 160.016L334.017 168.739ZM324.598 168.091H332.848L328.58 161.269L324.598 168.091Z" fill="#535461"/>
<path d="M316.579 185.579H307.828V177.806H316.579V185.579ZM308.476 184.931H315.931V178.454H308.476V184.931Z" fill="#535461"/>
<path d="M345.911 185.579C344.949 185.579 344.009 185.294 343.21 184.76C342.41 184.226 341.787 183.468 341.419 182.58C341.051 181.692 340.955 180.716 341.143 179.773C341.33 178.831 341.793 177.965 342.473 177.286C343.153 176.607 344.019 176.144 344.962 175.957C345.905 175.769 346.883 175.865 347.771 176.233C348.66 176.601 349.419 177.223 349.953 178.022C350.487 178.821 350.773 179.76 350.773 180.721C350.771 182.009 350.258 183.244 349.347 184.154C348.436 185.065 347.2 185.577 345.911 185.579ZM345.911 176.511C345.078 176.511 344.263 176.758 343.57 177.22C342.877 177.683 342.337 178.341 342.018 179.11C341.699 179.879 341.616 180.726 341.778 181.542C341.941 182.359 342.342 183.109 342.931 183.698C343.521 184.287 344.272 184.688 345.089 184.85C345.906 185.012 346.753 184.929 347.523 184.61C348.293 184.292 348.951 183.752 349.414 183.06C349.877 182.368 350.124 181.554 350.124 180.721C350.123 179.605 349.679 178.535 348.889 177.745C348.099 176.956 347.028 176.512 345.911 176.511Z" fill="#535461"/>
<path d="M326.531 194.013L326.073 194.47L333.365 201.757L333.824 201.299L326.531 194.013Z" fill="#535461"/>
<path d="M333.532 194.007L326.078 201.133L326.527 201.601L333.98 194.475L333.532 194.007Z" fill="#535461"/>
<path d="M181.894 81.6491C164.198 86.5239 144.82 90.1936 137.876 84.5006C141.678 78.1768 143.87 71.9438 144.056 65.8241C144.098 63.024 145.233 60.3511 147.219 58.3752C148.534 57.106 150.121 56.1529 151.86 55.5884C153.599 55.0239 155.443 54.8627 157.254 55.1172L161.846 55.7612C162.001 55.7829 162.155 55.8075 162.308 55.835C164.512 56.2523 166.531 57.3489 168.079 58.9708C169.628 60.5927 170.63 62.6586 170.944 64.8783C171.911 71.5142 175.165 77.259 181.894 81.6491Z" fill="#4B3D2C"/>
<path d="M198.965 144.605L205.845 146.023C206.37 146.131 206.865 146.355 207.293 146.678C207.721 147.001 208.072 147.415 208.32 147.891C208.567 148.366 208.706 148.891 208.726 149.427C208.746 149.962 208.646 150.496 208.433 150.988C208.228 151.464 207.923 151.89 207.538 152.237C207.153 152.585 206.698 152.845 206.204 153.001C205.71 153.158 205.187 153.206 204.673 153.142C204.158 153.079 203.663 152.906 203.222 152.634L193.5 144.605L184.082 123.5L174.824 104.181L184.082 101.506L198.965 144.605Z" fill="#E8C0B0"/>
<path d="M147.152 199.711L141.943 201.224L138 193.088L142.01 191L147.152 199.711Z" fill="#E8C0B0"/>
<path d="M147.309 234.56L140.918 232.869L141.919 221.898L147.419 222.236L147.309 234.56Z" fill="#E8C0B0"/>
<path d="M147.976 192.092L141.206 196.543L115.171 167.118C114.606 166.48 114.189 165.725 113.949 164.907C113.71 164.09 113.653 163.229 113.784 162.388C113.915 161.546 114.23 160.743 114.707 160.037C115.183 159.33 115.81 158.737 116.542 158.3L148.976 138.936L153.943 153.195L137.055 169.03L147.976 192.092Z" fill="#2F2E41"/>
<path d="M150.873 207.508C150.856 207.53 150.839 207.552 150.822 207.574C150.389 210.105 149.629 212.413 147.932 214.085C147.429 215.219 146.526 216.127 145.395 216.638C144.264 217.148 142.984 217.225 141.8 216.852C140.684 216.501 139.724 215.773 139.085 214.793C138.447 213.813 138.168 212.641 138.299 211.479L139.564 200.182C142.598 199.485 144.912 197.761 146.083 194.406L149.032 196.413C149.905 197.002 150.649 197.763 151.217 198.649C151.786 199.534 152.168 200.527 152.34 201.565C152.513 202.603 152.471 203.666 152.219 204.687C151.967 205.709 151.509 206.669 150.873 207.508Z" fill="#2F2E41"/>
<g filter="url(#filter1_d_4_2)">
<path d="M156.886 83.5C162.64 83.5 167.305 74.5689 167.305 68.8193C167.305 63.0697 162.64 58.4087 156.886 58.4087C151.131 58.4087 146.467 63.0697 146.467 68.8193C146.467 74.5689 151.131 83.5 156.886 83.5Z" fill="#E8C0B0"/>
</g>
<path d="M165.909 85.4616L149.483 99.0541L148.204 93.459L151.071 89.0923C151.866 84.8081 151.353 80.0836 149.986 75.0723L160.702 75.0821C161.165 79.1318 162.743 82.6647 165.909 85.4616Z" fill="#E8C0B0"/>
<path d="M170.533 121.116L148.358 127.865L146.633 119.985C142.478 114.41 140.671 109.321 143.39 105.169L142.022 98.9199C145.947 95.8324 149.033 92.6734 150.727 89.3957L164.371 84.0691L174.4 84.6857L177.362 94.6026L170.533 121.116Z" fill="#ACF5DA"/>
<path d="M186.287 102.615C181.56 102.565 176.934 103.981 173.047 106.668L174.4 84.6856C175.774 84.869 177.077 85.4066 178.18 86.2456C179.283 87.0846 180.148 88.196 180.691 89.4706L186.287 102.615Z" fill="#ACF5DA"/>
<path d="M147.906 224.862L140.868 223.131L141.904 163.377L151.355 153.036L149.24 139.926L147.871 125.239L170.956 119.52C178.759 133.676 183.476 146.547 176.591 154.587L147.906 224.862Z" fill="#2F2E41"/>
<path d="M146.29 245.037C146.258 245.05 146.227 245.062 146.195 245.074C144.151 247.445 141.906 249.379 139.083 250.058C137.845 250.926 136.33 251.308 134.828 251.13C133.325 250.953 131.941 250.229 130.94 249.097C129.995 248.029 129.451 246.666 129.4 245.242C129.35 243.818 129.796 242.42 130.663 241.288L139.089 230.287C142.696 231.464 146.197 231.117 149.53 228.35L151.346 232.298C151.887 233.461 152.185 234.722 152.222 236.004C152.258 237.286 152.033 238.562 151.56 239.754C151.087 240.946 150.375 242.029 149.469 242.938C148.563 243.846 147.481 244.56 146.29 245.037Z" fill="#2F2E41"/>
<path d="M120.579 151.793L114.402 157.078C113.889 157.516 113.495 158.077 113.257 158.708C113.02 159.339 112.945 160.02 113.04 160.687C113.136 161.355 113.399 161.987 113.804 162.527C114.209 163.066 114.744 163.494 115.36 163.771C116.286 164.189 117.336 164.24 118.298 163.913C119.26 163.587 120.062 162.908 120.542 162.013L125.009 153.688L145.496 116.332L137.791 114.885L120.579 151.793Z" fill="#E8C0B0"/>
<path d="M146.731 117.381C142.729 116.174 138.981 115.464 136.074 116.402C136.683 108.867 137.939 102.136 142.022 98.9199L147.826 99.6012L146.731 117.381Z" fill="#ACF5DA"/>
<path d="M168.517 66.4053L155.5 61.9521L146.507 67L146.507 60.582C154.286 55.341 161.714 55.7977 168.791 61.9521L168.517 66.4053Z" fill="#4B3D2C"/>
<defs>
<filter id="filter0_d_4_2" x="367.963" y="95.9543" width="29.4553" height="33.0457" filterUnits="userSpaceOnUse" color-interpolation-filters="sRGB">
<feFlood flood-opacity="0" result="BackgroundImageFix"/>
<feColorMatrix in="SourceAlpha" type="matrix" values="0 0 0 0 0 0 0 0 0 0 0 0 0 0 0 0 0 0 127 0" result="hardAlpha"/>
<feOffset dy="4"/>
<feGaussianBlur stdDeviation="2"/>
<feComposite in2="hardAlpha" operator="out"/>
<feColorMatrix type="matrix" values="0 0 0 0 0 0 0 0 0 0 0 0 0 0 0 0 0 0 0.25 0"/>
<feBlend mode="normal" in2="BackgroundImageFix" result="effect1_dropShadow_4_2"/>
<feBlend mode="normal" in="SourceGraphic" in2="effect1_dropShadow_4_2" result="shape"/>
</filter>
<filter id="filter1_d_4_2" x="142.467" y="58.4087" width="28.8382" height="33.0913" filterUnits="userSpaceOnUse" color-interpolation-filters="sRGB">
<feFlood flood-opacity="0" result="BackgroundImageFix"/>
<feColorMatrix in="SourceAlpha" type="matrix" values="0 0 0 0 0 0 0 0 0 0 0 0 0 0 0 0 0 0 127 0" result="hardAlpha"/>
<feOffset dy="4"/>
<feGaussianBlur stdDeviation="2"/>
<feComposite in2="hardAlpha" operator="out"/>
<feColorMatrix type="matrix" values="0 0 0 0 0 0 0 0 0 0 0 0 0 0 0 0 0 0 0.25 0"/>
<feBlend mode="normal" in2="BackgroundImageFix" result="effect1_dropShadow_4_2"/>
<feBlend mode="normal" in="SourceGraphic" in2="effect1_dropShadow_4_2" result="shape"/>
</filter>
</defs>
</svg>
