<svg width="352" height="294" viewBox="0 0 352 294" fill="none" xmlns="http://www.w3.org/2000/svg">
<g clip-path="url(#clip0_3_2)">
<path d="M70.138 24.3212C70.138 24.3212 75.881 40.6751 72.3468 43.191C68.8127 45.707 84.2745 66.2542 84.2745 66.2542L102.829 61.2222L92.6681 44.0297C92.6681 44.0297 91.3428 26.8371 91.3428 24.3212C91.3428 21.8052 70.138 24.3212 70.138 24.3212Z" fill="#E5CAB1"/>
<path d="M60.4985 140.895C60.4985 140.895 58.822 161.862 60.4985 172.764C62.1749 183.667 64.6896 213.859 64.6896 213.859C64.6896 213.859 64.6896 270.888 73.91 271.726C83.1305 272.565 89.8362 273.404 90.6745 270.049C91.5127 266.694 86.4833 265.017 88.998 263.34C91.5127 261.662 92.3509 255.792 88.998 249.082C85.6451 242.373 88.998 174.442 88.998 174.442L104.924 217.213C104.924 217.213 106.601 252.437 108.277 257.469C109.954 262.501 106.601 271.726 112.468 272.565C118.336 273.404 125.042 268.372 128.394 266.694C131.747 265.017 123.365 265.017 125.042 264.178C126.718 263.34 131.747 260.824 130.071 259.985C128.394 259.146 126.718 218.891 126.718 218.891C126.718 218.891 122.108 132.928 116.24 129.573C110.373 126.219 106.601 131.997 106.601 131.997L60.4985 140.895Z" fill="#2F2E41"/>
<path d="M75.5865 268.372V275.081C75.5865 275.081 68.0425 293.319 75.5865 293.319C83.1305 293.319 88.998 295.209 88.998 292.693V270.049L75.5865 268.372Z" fill="#2F2E41"/>
<path d="M125.042 268.36V275.069C125.042 275.069 132.586 293.307 125.042 293.307C117.498 293.307 111.63 295.197 111.63 292.681V270.037L125.042 268.36Z" fill="#2F2E41"/>
<path d="M81.8731 36.4817C90.206 36.4817 96.9611 29.7231 96.9611 21.3858C96.9611 13.0486 90.206 6.28995 81.8731 6.28995C73.5403 6.28995 66.7851 13.0486 66.7851 21.3858C66.7851 29.7231 73.5403 36.4817 81.8731 36.4817Z" fill="#E6CAB1"/>
<path d="M73.7267 45C73.7267 45 77.2267 49 85.7266 50.5L92.3618 48.2686L105.227 136.467C105.227 136.467 95.1185 151.167 80.4158 141.979C65.7131 132.792 73.7267 45 73.7267 45Z" fill="white"/>
<path d="M88.998 46.965L92.77 38.9977C92.77 38.9977 114.983 49.481 118.336 52.8356C121.689 56.1903 121.689 61.2223 121.689 61.2223L115.821 82.1888C115.821 82.1888 117.498 128.315 117.498 129.992C117.498 131.67 123.365 140.895 119.174 137.54C114.983 134.186 114.145 130.831 110.792 135.863C107.439 140.895 99.8949 146.766 99.8949 146.766L88.998 46.965Z" fill="#3F3D56"/>
<path d="M118.336 107.349L115.821 130.831C115.821 130.831 100.733 144.25 104.086 145.088C107.439 145.927 109.115 142.572 109.115 142.572C109.115 142.572 114.983 148.443 118.336 145.088C121.689 141.734 130.071 109.865 130.071 109.865L118.336 107.349Z" fill="#E6CAB1"/>
<path d="M82.1945 0.0510475C78.8497 -0.0685891 75.2702 -0.127769 72.4501 1.67566C71.1525 2.58072 70.0144 3.6954 69.0824 4.97406C66.3357 8.44814 63.9625 12.8193 64.9827 17.1297L66.1677 16.6673C66.1677 17.8179 65.912 18.954 65.4192 19.9936C65.5861 19.5082 66.1449 20.2929 65.9953 20.784L64.69 25.0687C66.8358 24.2816 69.5051 25.8752 69.8318 28.1384C69.981 23.1617 70.497 17.4551 74.5319 14.541C76.5667 13.0715 79.142 12.6229 81.6197 12.2245C83.9055 11.857 86.3017 11.5065 88.4911 12.2594C90.6804 13.0123 92.5448 15.2526 92.0485 17.515C93.058 17.1671 94.1871 17.871 94.686 18.8155C95.1849 19.76 95.211 20.8742 95.2261 21.9424C96.3021 22.7033 97.5268 21.1923 97.9653 19.9491C98.9947 17.0309 99.9097 13.9245 99.3552 10.8799C98.8006 7.83543 96.321 4.92593 93.228 4.9156C93.6034 4.50302 93.8038 3.9605 93.7866 3.40281L91.2372 3.18729C91.8844 3.0956 92.4796 2.78163 92.9209 2.29914C91.8974 3.42603 83.8497 0.110247 82.1945 0.0510475Z" fill="#776044"/>
<path d="M81.454 44.4491C81.454 44.4491 74.6304 37.7588 72.1747 38.1686C69.7189 38.5784 66.366 44.4491 66.366 44.4491C66.366 44.4491 46.2487 51.1583 47.0869 57.8676C47.9252 64.5769 57.1456 97.2847 57.1456 97.2847C57.1456 97.2847 64.6896 136.702 57.9838 140.895C51.278 145.088 89.8362 155.991 90.6745 150.959C91.5127 145.927 93.1891 95.6074 90.6745 88.0594C88.1598 80.5115 81.454 44.4491 81.454 44.4491Z" fill="#3F3D56"/>
<path d="M110.792 57.8676H121.156C121.156 57.8676 128.394 89.7367 129.233 93.0914C130.071 96.446 131.747 112.381 130.909 112.381C130.071 112.381 113.306 109.026 113.306 111.542L110.792 57.8676Z" fill="#3F3D56"/>
<path d="M54.6309 114.897L66.366 119.929C66.366 119.929 88.998 123.283 88.998 114.058C88.998 104.833 66.366 109.865 66.366 109.865L58.8215 107.451L54.6309 114.897Z" fill="#E6CAB1"/>
<path d="M57.1455 52.8356L47.0869 55.3516L39.5429 99.8006C39.5429 99.8006 37.0282 111.542 41.2193 112.381C45.4105 113.219 57.1455 119.929 57.1455 119.929C57.1455 119.929 58.822 107.349 62.1749 107.349L53.7927 100.639L58.822 71.2862L57.1455 52.8356Z" fill="#3F3D56"/>
<path d="M250.96 47.7634L214.031 47.5417L213.857 76.5423L250.786 76.764L250.96 47.7634Z" fill="#51362B"/>
<path d="M177.424 50.8502L158.384 50.7359L158.424 44.0921C158.439 41.5655 159.457 39.1485 161.253 37.3727C163.049 35.5969 165.476 34.6078 168.001 34.6229C170.526 34.6381 172.941 35.6563 174.716 37.4535C176.491 39.2508 177.479 41.6798 177.464 44.2064L177.424 50.8502ZM158.808 50.3166L177.005 50.4258L177.042 44.2038C177.057 41.7892 176.112 39.4677 174.416 37.75C172.72 36.0323 170.412 35.0592 167.999 35.0447C165.585 35.0303 163.265 35.9756 161.549 37.6728C159.832 39.3699 158.86 41.6799 158.845 44.0946L158.808 50.3166Z" fill="#3F3D56"/>
<path d="M186.844 49.993L186.86 47.3965L138.431 48.4041L136.503 114.163L143.616 123.064L186.844 49.993Z" fill="#3F3D56"/>
<path d="M195.421 49.1303L142.931 50.0104L143.617 123.064L194.298 117.905L195.421 49.1303Z" fill="#ACF5DA"/>
<path d="M238.622 286.063L232.665 286.028L229.969 263.018L238.761 263.07L238.622 286.063Z" fill="#FFB6B6"/>
<path d="M240.106 291.851L220.898 291.735L220.899 291.492C220.911 289.508 221.711 287.61 223.121 286.215C224.532 284.82 226.438 284.044 228.421 284.055L240.153 284.126L240.106 291.851Z" fill="#2F2E41"/>
<path d="M216.756 285.932L210.799 285.896L208.103 262.886L216.895 262.939L216.756 285.932Z" fill="#FFB6B6"/>
<path d="M218.24 291.72L199.032 291.604L199.033 291.361C199.045 289.376 199.844 287.478 201.255 286.084C202.665 284.689 204.572 283.912 206.555 283.924L218.287 283.995L218.24 291.72Z" fill="#2F2E41"/>
<path d="M200.125 141.856C200.125 141.856 191.309 160.56 198.945 198.361C206.582 236.162 206.398 277.61 206.398 277.61L218.42 277.878L225.71 188.685L228.718 276.68L240.564 276.751L251.523 190.231C251.523 190.231 258.625 151.61 243.347 144.596L200.125 141.856Z" fill="#2F2E41"/>
<path d="M242.185 75.9132L215.874 73.3269C207.582 79.2986 202.883 90.0853 203.768 101.249C204.966 116.386 204.405 137.204 194.002 146.187C194.002 146.187 222.075 168.633 247.258 147.649C247.258 147.649 238.828 124.629 244.766 115.492C250.703 106.355 252.98 80.5974 242.185 75.9132Z" fill="#E4E4E4"/>
<path d="M164.077 38.0598C163.992 38.8187 164.074 39.587 164.317 40.3107C164.561 41.0344 164.96 41.6959 165.487 42.2485C166.014 42.8011 166.655 43.2315 167.366 43.5093C168.077 43.787 168.84 43.9054 169.601 43.8562L204.165 76.5246L210.452 67.0659L174.5 37.9282C174.332 36.6535 173.703 35.4845 172.732 34.6429C171.761 33.8012 170.515 33.3452 169.23 33.3615C167.945 33.3777 166.711 33.8649 165.761 34.7309C164.812 35.5968 164.212 36.7812 164.077 38.0598Z" fill="#FFD7D7"/>
<path d="M197.705 71.4712L206.001 63.0448C206.237 62.805 206.522 62.619 206.837 62.4994C207.151 62.3798 207.488 62.3294 207.823 62.3516C208.159 62.3738 208.486 62.4681 208.782 62.6282C209.078 62.7882 209.335 63.0102 209.538 63.279L216.63 72.6977C217.849 73.9133 218.537 75.5629 218.542 77.2848C218.547 79.0067 217.87 80.6605 216.659 81.8836C215.447 83.1067 213.801 83.7992 212.08 83.8094C210.359 83.8195 208.705 83.1466 207.479 81.9379L197.991 75.0062C197.72 74.8076 197.494 74.5528 197.33 74.2591C197.165 73.9655 197.066 73.6398 197.039 73.3043C197.012 72.9689 197.057 72.6315 197.172 72.3151C197.287 71.9988 197.469 71.7109 197.705 71.4712Z" fill="#E4E4E4"/>
<path d="M292.738 117.882C292.781 117.119 292.656 116.357 292.373 115.648C292.089 114.939 291.654 114.3 291.097 113.778C290.541 113.255 289.877 112.861 289.151 112.624C288.426 112.386 287.658 112.31 286.9 112.401L250.576 81.7051L244.824 91.4986L282.338 118.593C282.576 119.856 283.269 120.988 284.286 121.775C285.302 122.561 286.571 122.947 287.853 122.859C289.135 122.772 290.34 122.217 291.241 121.299C292.141 120.382 292.673 119.166 292.738 117.882Z" fill="#FFD7D7"/>
<path d="M257.307 86.3915L249.491 95.2661C249.268 95.5186 248.994 95.7202 248.687 95.8571C248.38 95.9941 248.047 96.0631 247.71 96.0596C247.374 96.056 247.042 95.98 246.738 95.8366C246.434 95.6933 246.164 95.486 245.947 95.2289L238.342 86.219C237.058 85.0731 236.28 83.4643 236.179 81.7452C236.078 80.0261 236.662 78.3371 237.804 77.0485C238.945 75.7598 240.551 74.9768 242.269 74.8711C243.986 74.7653 245.676 75.3455 246.967 76.4844L256.825 82.8779C257.107 83.061 257.346 83.3029 257.527 83.587C257.707 83.8711 257.824 84.1907 257.87 84.5242C257.916 84.8576 257.889 85.197 257.792 85.5192C257.695 85.8415 257.529 86.139 257.307 86.3915Z" fill="#E4E4E4"/>
<path d="M296.369 130.791L281.947 130.704L281.977 125.672C281.989 123.758 282.76 121.927 284.12 120.582C285.481 119.237 287.319 118.488 289.232 118.499C291.144 118.511 292.974 119.282 294.318 120.643C295.662 122.005 296.411 123.845 296.4 125.759L296.369 130.791ZM282.268 130.387L296.052 130.47L296.08 125.757C296.091 123.928 295.376 122.169 294.091 120.868C292.806 119.567 291.058 118.83 289.23 118.819C287.402 118.808 285.645 119.524 284.344 120.81C283.044 122.095 282.308 123.845 282.297 125.674L282.268 130.387Z" fill="#3F3D56"/>
<path d="M303.505 130.142L303.517 128.175L266.833 128.938L265.373 178.748L270.761 185.491L303.505 130.142Z" fill="#3F3D56"/>
<path d="M310.002 129.488L270.242 130.155L270.761 185.491L309.151 181.583L310.002 129.488Z" fill="#ACF5DA"/>
<path d="M230.91 69.0381C239.497 69.0896 246.501 62.1652 246.552 53.572C246.604 44.9787 239.684 37.9708 231.096 37.9192C222.509 37.8677 215.505 44.7921 215.454 53.3853C215.402 61.9785 222.322 68.9865 230.91 69.0381Z" fill="#FFD7D7"/>
<path d="M223.886 46.5011C229.233 51.8082 238.591 52.3699 244.534 47.7406C246.142 53.4166 246.285 59.4078 244.952 65.1546C243.618 70.9013 240.851 76.216 236.908 80.6022C240.191 81.8117 243.984 81.0517 246.936 79.1732C249.889 77.2946 252.084 74.4125 253.746 71.3318C257.861 63.7055 258.936 54.3698 256.106 46.1786C253.277 37.9874 246.421 31.1681 238.056 28.9231C229.69 26.6781 220.067 29.3314 214.43 35.911C208.535 42.7911 207.525 52.9181 210.038 61.6249C212.551 70.3318 218.133 77.8296 224.274 84.49C221.351 76.8322 219.43 68.8282 218.559 60.6772C218.262 57.8857 218.095 55.009 218.899 52.3193C219.703 49.6296 221.656 47.1315 224.362 46.3906" fill="#51362B"/>
<path d="M287.874 250.844L273.452 250.757L273.482 245.725C273.493 243.811 274.264 241.98 275.624 240.635C276.985 239.29 278.824 238.541 280.736 238.552C282.649 238.564 284.478 239.335 285.823 240.696C287.167 242.058 287.916 243.897 287.904 245.811L287.874 250.844ZM273.773 250.44L287.556 250.522L287.585 245.809C287.596 243.98 286.88 242.222 285.595 240.921C284.311 239.62 282.562 238.883 280.734 238.872C278.906 238.861 277.149 239.577 275.849 240.862C274.549 242.148 273.812 243.898 273.801 245.727L273.773 250.44Z" fill="#CACACA"/>
<path d="M295.009 250.194L295.021 248.227L258.338 248.991L256.878 298.801L262.266 305.544L295.009 250.194Z" fill="#CACACA"/>
<path d="M301.506 249.541L261.746 250.208L262.266 305.544L300.656 301.636L301.506 249.541Z" fill="#E4E4E4"/>
<path d="M158.072 92.8207L157.331 84.125L160.371 83.8658C160.977 83.8141 161.485 83.8763 161.897 84.0522C162.308 84.2253 162.625 84.4791 162.847 84.8137C163.069 85.1455 163.198 85.5237 163.235 85.9482C163.266 86.3219 163.226 86.6361 163.114 86.8909C163.004 87.1454 162.848 87.3526 162.645 87.5125C162.445 87.6721 162.223 87.7965 161.98 87.8857L161.987 87.9706C162.255 87.9649 162.53 88.0355 162.813 88.1824C163.097 88.3293 163.343 88.5536 163.551 88.8552C163.759 89.1568 163.883 89.5368 163.922 89.9954C163.959 90.4313 163.893 90.8318 163.725 91.1969C163.556 91.5619 163.267 91.8646 162.857 92.1048C162.447 92.3451 161.899 92.4944 161.214 92.5528L158.072 92.8207ZM159.046 91.7968L161.135 91.6187C161.823 91.5601 162.3 91.3854 162.566 91.0947C162.834 90.8009 162.952 90.463 162.92 90.0808C162.895 89.7865 162.796 89.5211 162.625 89.2848C162.454 89.0457 162.223 88.8629 161.933 88.7365C161.642 88.6073 161.307 88.5589 160.928 88.5912L158.788 88.7737L159.046 91.7968ZM158.71 87.8566L160.663 87.69C160.98 87.663 161.261 87.5764 161.505 87.4301C161.752 87.2836 161.941 87.0907 162.071 86.8515C162.205 86.612 162.259 86.3394 162.232 86.0337C162.2 85.6515 162.039 85.3388 161.75 85.0954C161.461 84.8492 161.028 84.7507 160.451 84.7999L158.464 84.9693L158.71 87.8566ZM165.849 92.1577L165.107 83.462L170.355 83.0145L170.435 83.9486L166.24 84.3063L166.491 87.2445L170.414 86.91L170.494 87.8441L166.57 88.1786L166.822 91.1338L171.085 90.7704L171.165 91.7045L165.849 92.1577ZM172.706 91.5731L172.641 90.8088L176.732 83.4118L171.993 83.8158L171.914 82.8817L177.909 82.3705L177.974 83.1348L173.883 90.5318L178.622 90.1278L178.701 91.0619L172.706 91.5731Z" fill="black"/>
<path d="M284.072 162.311L283.331 153.615L286.269 153.365C286.951 153.307 287.52 153.382 287.974 153.592C288.43 153.798 288.781 154.1 289.026 154.498C289.271 154.897 289.415 155.352 289.459 155.864C289.503 156.377 289.438 156.851 289.264 157.288C289.093 157.724 288.802 158.086 288.39 158.372C287.978 158.655 287.433 158.825 286.757 158.883L284.651 159.063L284.571 158.129L286.643 157.952C287.11 157.912 287.478 157.799 287.748 157.614C288.017 157.428 288.204 157.193 288.308 156.908C288.414 156.619 288.453 156.301 288.423 155.953C288.393 155.604 288.302 155.299 288.148 155.035C287.997 154.771 287.772 154.574 287.473 154.443C287.174 154.308 286.788 154.261 286.315 154.302L284.464 154.46L285.125 162.221L284.072 162.311ZM298.628 156.691C298.707 157.608 298.609 158.414 298.334 159.111C298.06 159.807 297.65 160.361 297.103 160.772C296.557 161.184 295.912 161.421 295.171 161.485C294.429 161.548 293.754 161.423 293.146 161.11C292.538 160.797 292.039 160.32 291.651 159.68C291.263 159.041 291.03 158.262 290.952 157.345C290.873 156.428 290.972 155.621 291.246 154.925C291.52 154.229 291.93 153.675 292.477 153.263C293.023 152.852 293.668 152.614 294.409 152.551C295.151 152.488 295.826 152.613 296.434 152.926C297.043 153.239 297.541 153.715 297.929 154.355C298.317 154.995 298.55 155.773 298.628 156.691ZM297.609 156.777C297.545 156.024 297.365 155.4 297.069 154.903C296.776 154.406 296.404 154.043 295.954 153.814C295.507 153.584 295.02 153.491 294.493 153.536C293.967 153.581 293.501 153.755 293.096 154.057C292.694 154.359 292.39 154.78 292.182 155.32C291.977 155.859 291.907 156.505 291.971 157.258C292.035 158.011 292.214 158.636 292.507 159.133C292.803 159.629 293.175 159.992 293.622 160.222C294.072 160.452 294.56 160.544 295.087 160.499C295.613 160.455 296.078 160.281 296.479 159.979C296.884 159.676 297.189 159.255 297.394 158.716C297.602 158.177 297.674 157.53 297.609 156.777Z" fill="black"/>
<path d="M263.657 269.866L263.64 268.928L270.184 268.807L270.202 269.744L267.458 269.795L267.602 277.584L266.546 277.603L266.401 269.815L263.657 269.866ZM272.872 268.757L273.033 277.483L271.977 277.503L271.815 268.777L272.872 268.757ZM279.803 270.811C279.744 270.38 279.53 270.049 279.162 269.817C278.794 269.585 278.346 269.474 277.818 269.484C277.431 269.491 277.094 269.56 276.807 269.69C276.522 269.821 276.301 269.997 276.143 270.218C275.988 270.44 275.913 270.69 275.919 270.968C275.923 271.201 275.982 271.4 276.096 271.566C276.213 271.729 276.36 271.864 276.538 271.971C276.716 272.076 276.903 272.162 277.097 272.229C277.291 272.294 277.47 272.346 277.633 272.386L278.523 272.608C278.752 272.663 279.006 272.741 279.286 272.841C279.569 272.941 279.84 273.079 280.099 273.256C280.361 273.43 280.579 273.657 280.751 273.935C280.924 274.213 281.014 274.556 281.022 274.965C281.031 275.437 280.915 275.865 280.675 276.25C280.438 276.636 280.085 276.945 279.618 277.178C279.154 277.411 278.586 277.534 277.916 277.546C277.291 277.558 276.748 277.467 276.287 277.274C275.829 277.08 275.466 276.806 275.198 276.45C274.932 276.094 274.778 275.678 274.735 275.201L275.826 275.181C275.861 275.51 275.977 275.781 276.174 275.993C276.374 276.202 276.624 276.357 276.924 276.456C277.227 276.553 277.552 276.598 277.898 276.592C278.301 276.584 278.662 276.512 278.981 276.376C279.299 276.236 279.55 276.047 279.733 275.808C279.916 275.565 280.005 275.285 279.999 274.967C279.994 274.678 279.908 274.443 279.743 274.264C279.578 274.086 279.362 273.942 279.096 273.833C278.83 273.724 278.542 273.63 278.234 273.551L277.155 273.264C276.469 273.081 275.924 272.811 275.52 272.455C275.116 272.098 274.908 271.626 274.897 271.038C274.888 270.55 275.012 270.121 275.27 269.753C275.53 269.381 275.882 269.091 276.327 268.881C276.775 268.668 277.278 268.556 277.834 268.546C278.397 268.536 278.898 268.627 279.34 268.821C279.781 269.011 280.132 269.278 280.394 269.62C280.659 269.961 280.803 270.352 280.825 270.792L279.803 270.811ZM282.803 277.302L282.641 268.576L283.698 268.557L283.778 272.886L283.881 272.884L287.72 268.482L289.101 268.457L285.509 272.461L289.262 277.182L287.984 277.206L284.875 273.206L283.807 274.453L283.86 277.282L282.803 277.302ZM296.195 268.325L297.251 268.306L297.358 274.083C297.369 274.679 297.239 275.215 296.966 275.689C296.696 276.16 296.31 276.535 295.806 276.814C295.303 277.09 294.709 277.235 294.024 277.248C293.34 277.26 292.741 277.138 292.227 276.88C291.714 276.62 291.312 276.259 291.022 275.799C290.735 275.335 290.586 274.805 290.575 274.209L290.468 268.431L291.525 268.412L291.63 274.104C291.638 274.53 291.739 274.907 291.933 275.236C292.126 275.562 292.398 275.817 292.748 276.001C293.101 276.182 293.52 276.268 294.006 276.259C294.492 276.25 294.907 276.149 295.253 275.955C295.599 275.758 295.861 275.493 296.04 275.16C296.221 274.824 296.308 274.443 296.3 274.017L296.195 268.325Z" fill="black"/>
</g>
<defs>
<clipPath id="clip0_3_2">
<rect width="352" height="294" fill="white"/>
</clipPath>
</defs>
</svg>
