<svg width="339" height="260" viewBox="0 0 339 260" fill="none" xmlns="http://www.w3.org/2000/svg">
<g clip-path="url(#clip0_3_510)">
<mask id="mask0_3_510" style="mask-type:luminance" maskUnits="userSpaceOnUse" x="0" y="0" width="339" height="260">
<path d="M339 0H0V260H339V0Z" fill="white"/>
</mask>
<g mask="url(#mask0_3_510)">
<path d="M67.736 194.682C67.4632 194.221 66.283 194.714 66.066 194.296C65.8498 193.88 66.9464 193.245 67.5729 191.795C67.6858 191.534 68.3978 189.886 67.8707 189.378C66.8717 188.415 62.3002 192.391 60.7003 191.09C60.3492 190.804 60.1039 190.234 59.0413 189.308C58.6186 188.94 58.3629 188.774 58.1156 188.836C57.7645 188.924 57.7367 189.394 57.3603 190.319C56.7958 191.706 56.4619 191.622 56.133 192.729C55.8889 193.55 55.9446 194.028 55.6573 194.121C55.2508 194.253 54.8765 193.381 54.3613 193.459C53.8355 193.539 53.5176 194.553 53.4172 195.313C53.2288 196.738 53.7516 197.679 54.0414 198.668C54.3563 199.743 54.5432 201.378 53.816 203.692L46.6176 223.998C48.2068 219.831 52.8082 208.409 54.7417 204.164C55.2999 202.939 55.9162 201.696 57.1817 201.206C58.4 200.733 60.0732 201.015 62.2064 200.501C62.4555 200.441 63.1468 200.265 63.2338 199.857C63.3058 199.521 62.8991 199.333 62.9616 199.018C63.0454 198.595 63.8451 198.59 64.8278 198.102C65.5207 197.758 65.9524 197.349 66.3236 196.997C66.4355 196.891 68.0992 195.295 67.736 194.682Z" fill="#F2F2F2"/>
<path d="M39.4156 205.372C39.1111 205.373 39.0123 206.095 38.7448 206.081C38.4783 206.067 38.4836 205.345 37.9537 204.619C37.8582 204.488 37.256 203.663 36.8547 203.775C36.0941 203.988 36.7243 207.382 35.6248 207.793C35.3836 207.883 35.0333 207.839 34.273 208.094C33.9705 208.196 33.8152 208.273 33.7742 208.413C33.7159 208.61 33.9385 208.76 34.2833 209.212C34.8003 209.889 34.6629 210.029 35.1105 210.51C35.4428 210.867 35.693 210.978 35.6557 211.146C35.6029 211.383 35.0678 211.316 34.9574 211.592C34.8447 211.873 35.2503 212.322 35.5937 212.59C36.2381 213.094 36.8501 213.109 37.4185 213.252C38.0363 213.407 38.8915 213.787 39.816 214.812L47.6933 224.208C46.1093 222.225 41.8377 216.668 40.3148 214.493C39.8752 213.866 39.4438 213.204 39.5685 212.441C39.6885 211.706 40.3095 210.965 40.6727 209.768C40.7152 209.628 40.8283 209.238 40.6538 209.078C40.5096 208.945 40.3002 209.091 40.1637 208.969C39.9806 208.806 40.2087 208.411 40.2531 207.788C40.2844 207.348 40.2084 207.018 40.1431 206.734C40.1234 206.648 39.821 205.37 39.4156 205.372Z" fill="#F2F2F2"/>
<path d="M45.4903 206.737L45.3068 205.097L45.3906 204.973C45.7785 204.398 45.9762 203.837 45.9786 203.304C45.979 203.219 45.975 203.135 45.9711 203.048C45.9552 202.706 45.9355 202.281 46.1569 201.786C46.281 201.509 46.6298 200.869 47.154 200.949C47.2952 200.968 47.4019 201.033 47.483 201.109C47.4948 201.09 47.5071 201.071 47.5201 201.051C47.6834 200.801 47.8127 200.695 47.9373 200.592C48.033 200.512 48.1318 200.431 48.2868 200.238C48.3548 200.153 48.4078 200.079 48.4525 200.016C48.5881 199.827 48.7652 199.601 49.0776 199.605C49.4112 199.621 49.586 199.897 49.7019 200.08C49.9086 200.406 50.0023 200.641 50.0644 200.797C50.087 200.854 50.1126 200.919 50.1257 200.938C50.2332 201.097 51.1074 200.949 51.4368 200.895C52.1765 200.771 52.8166 200.664 53.0804 201.132C53.2694 201.466 53.129 201.907 52.6506 202.48C52.5015 202.658 52.343 202.793 52.2022 202.899C52.3189 202.969 52.4232 203.076 52.4655 203.244C52.5652 203.641 52.224 204.04 51.4518 204.429C51.26 204.527 51.0019 204.656 50.6401 204.719C50.4697 204.748 50.3163 204.755 50.185 204.759C50.1822 204.835 50.1644 204.918 50.1182 205.002C49.9826 205.252 49.7003 205.371 49.2748 205.342C48.8067 205.317 48.4212 205.228 48.0812 205.15C47.7843 205.082 47.5285 205.024 47.3276 205.037C46.9552 205.067 46.6681 205.366 46.3312 205.753L45.4903 206.737Z" fill="#F2F2F2"/>
<path d="M46.3413 196.974L44.8037 197.568L44.6624 197.518C44.0087 197.288 43.4162 197.239 42.9008 197.372C42.8189 197.393 42.738 197.419 42.6557 197.444C42.3293 197.546 41.9235 197.673 41.3885 197.585C41.0901 197.535 40.3836 197.359 40.3271 196.831C40.3104 196.69 40.3461 196.57 40.3989 196.472C40.3776 196.465 40.3561 196.458 40.3329 196.451C40.0506 196.356 39.9145 196.258 39.7835 196.163C39.6827 196.091 39.5789 196.016 39.3529 195.915C39.2538 195.87 39.1685 195.838 39.0967 195.81C38.8795 195.727 38.6166 195.613 38.5412 195.309C38.4718 194.982 38.6945 194.743 38.8418 194.584C39.1045 194.301 39.3079 194.151 39.4428 194.051C39.4922 194.015 39.5476 193.973 39.5634 193.956C39.6891 193.812 39.3243 193.002 39.1888 192.697C38.8818 192.012 38.6162 191.419 39.0006 191.045C39.2754 190.777 39.7379 190.801 40.4122 191.119C40.6221 191.219 40.7931 191.338 40.9313 191.447C40.9691 191.317 41.0459 191.188 41.1973 191.105C41.556 190.908 42.0273 191.137 42.5995 191.786C42.7422 191.947 42.9331 192.164 43.0853 192.499C43.1568 192.656 43.2026 192.803 43.2398 192.929C43.3139 192.913 43.3979 192.909 43.4915 192.932C43.7669 193 43.9532 193.244 44.0336 193.663C44.1286 194.122 44.14 194.519 44.1505 194.868C44.16 195.173 44.1691 195.435 44.233 195.626C44.3566 195.979 44.7177 196.181 45.1772 196.409L46.3413 196.974Z" fill="#F2F2F2"/>
<path d="M45.4903 192.144L45.3068 190.504L45.3906 190.38C45.7785 189.805 45.9762 189.244 45.9786 188.711C45.979 188.626 45.975 188.541 45.9711 188.455C45.9552 188.113 45.9355 187.688 46.1569 187.192C46.281 186.916 46.6298 186.276 47.154 186.355C47.2952 186.375 47.4019 186.44 47.483 186.516C47.4948 186.497 47.5071 186.478 47.5201 186.458C47.6834 186.208 47.8127 186.101 47.9373 185.998C48.033 185.919 48.1318 185.838 48.2868 185.644C48.3548 185.56 48.4078 185.485 48.4525 185.423C48.5881 185.234 48.7652 185.008 49.0776 185.012C49.4112 185.028 49.586 185.304 49.7019 185.487C49.9086 185.813 50.0023 186.048 50.0644 186.204C50.087 186.261 50.1126 186.325 50.1257 186.345C50.2332 186.503 51.1074 186.355 51.4368 186.302C52.1765 186.178 52.8166 186.071 53.0804 186.538C53.2694 186.872 53.129 187.314 52.6506 187.887C52.5015 188.065 52.343 188.2 52.2022 188.306C52.3189 188.376 52.4232 188.483 52.4655 188.651C52.5652 189.048 52.224 189.446 51.4518 189.836C51.26 189.933 51.0019 190.063 50.6401 190.126C50.4697 190.155 50.3163 190.162 50.185 190.166C50.1822 190.242 50.1644 190.324 50.1182 190.409C49.9826 190.659 49.7003 190.777 49.2748 190.749C48.8067 190.724 48.4212 190.635 48.0812 190.556C47.7843 190.488 47.5285 190.43 47.3276 190.444C46.9552 190.474 46.6681 190.773 46.3312 191.16L45.4903 192.144Z" fill="#F2F2F2"/>
<path d="M47.1659 223.971L46.8227 223.756L46.4226 223.802C46.4162 223.765 46.3945 223.679 46.3617 223.546C46.1826 222.812 45.6366 220.581 45.1811 217.068C44.8632 214.615 44.6833 212.093 44.6461 209.571C44.609 207.046 44.7284 205.134 44.8241 203.597C44.8964 202.438 44.9842 201.334 45.0704 200.259C45.2997 197.387 45.516 194.673 45.355 191.67C45.3195 190.999 45.2447 189.603 44.4303 188.118C43.9578 187.256 43.307 186.492 42.4957 185.846L43.0002 185.211C43.8957 185.925 44.6157 186.772 45.1404 187.728C46.0434 189.375 46.1248 190.896 46.164 191.627C46.3277 194.684 46.109 197.423 45.8773 200.323C45.7919 201.394 45.7042 202.493 45.6322 203.648C45.5373 205.17 45.4191 207.066 45.4559 209.559C45.4922 212.05 45.6702 214.541 45.9837 216.963C46.4336 220.432 46.9717 222.63 47.1485 223.352C47.2426 223.738 47.2624 223.819 47.1659 223.971Z" fill="#F2F2F2"/>
<path d="M41.0106 187.134C40.9774 187.134 40.9438 187.133 40.9098 187.131C40.2203 187.093 39.5817 186.68 39.0116 185.903C38.7443 185.537 38.6075 185.12 38.3347 184.287C38.2924 184.159 38.0868 183.508 37.9619 182.613C37.88 182.028 37.8903 181.783 38.0061 181.567C38.1346 181.326 38.3426 181.158 38.5767 181.045C38.5664 180.968 38.5747 180.888 38.6083 180.806C38.7463 180.468 39.1132 180.512 39.3117 180.534C39.4121 180.546 39.5375 180.563 39.6727 180.556C39.8854 180.546 39.9997 180.482 40.1728 180.387C40.3385 180.296 40.5445 180.183 40.8501 180.121C41.4527 179.995 41.9576 180.166 42.124 180.222C42.9998 180.514 43.4315 181.196 43.9313 181.985C44.0309 182.143 44.3729 182.72 44.5987 183.51C44.7616 184.08 44.7387 184.333 44.6896 184.522C44.59 184.909 44.3547 185.131 43.7573 185.62C43.1334 186.132 42.8203 186.389 42.5514 186.545C41.9255 186.906 41.5325 187.134 41.0106 187.134Z" fill="#F2F2F2"/>
<path d="M298.387 195.201C298.114 194.74 296.934 195.233 296.717 194.815C296.501 194.399 297.597 193.764 298.224 192.314C298.337 192.053 299.049 190.405 298.522 189.897C297.523 188.933 292.951 192.91 291.351 191.609C291 191.323 290.755 190.753 289.692 189.827C289.27 189.459 289.014 189.293 288.767 189.355C288.416 189.442 288.388 189.913 288.011 190.838C287.447 192.225 287.113 192.141 286.784 193.248C286.54 194.069 286.596 194.547 286.308 194.64C285.902 194.772 285.528 193.9 285.012 193.978C284.486 194.058 284.169 195.072 284.068 195.832C283.88 197.257 284.403 198.198 284.692 199.187C285.007 200.262 285.194 201.897 284.467 204.211L277.269 224.517C278.858 220.35 283.459 208.928 285.393 204.683C285.951 203.458 286.567 202.215 287.833 201.725C289.051 201.252 290.724 201.534 292.857 201.02C293.106 200.96 293.798 200.784 293.885 200.376C293.957 200.04 293.55 199.852 293.613 199.537C293.696 199.114 294.496 199.109 295.479 198.621C296.172 198.277 296.603 197.868 296.975 197.516C297.087 197.41 298.75 195.814 298.387 195.201Z" fill="#F2F2F2"/>
<path d="M270.067 205.891C269.762 205.892 269.663 206.614 269.396 206.6C269.129 206.586 269.135 205.864 268.605 205.138C268.509 205.007 267.907 204.182 267.506 204.294C266.745 204.507 267.375 207.901 266.276 208.312C266.035 208.402 265.684 208.358 264.924 208.613C264.622 208.715 264.466 208.792 264.425 208.932C264.367 209.129 264.589 209.279 264.934 209.731C265.451 210.408 265.314 210.548 265.762 211.029C266.094 211.386 266.344 211.497 266.307 211.665C266.254 211.902 265.719 211.835 265.608 212.111C265.496 212.392 265.901 212.841 266.245 213.109C266.889 213.613 267.501 213.628 268.07 213.771C268.687 213.926 269.543 214.306 270.467 215.331L278.344 224.727C276.76 222.744 272.489 217.187 270.966 215.012C270.526 214.385 270.095 213.723 270.219 212.96C270.339 212.225 270.96 211.484 271.324 210.287C271.366 210.147 271.479 209.757 271.305 209.597C271.161 209.464 270.951 209.61 270.815 209.488C270.632 209.325 270.86 208.93 270.904 208.307C270.935 207.867 270.859 207.537 270.794 207.253C270.774 207.167 270.472 205.889 270.067 205.891Z" fill="#F2F2F2"/>
<path d="M276.141 207.256L275.958 205.616L276.042 205.492C276.43 204.917 276.627 204.356 276.63 203.823C276.63 203.738 276.626 203.654 276.622 203.567C276.606 203.225 276.586 202.8 276.808 202.304C276.932 202.028 277.281 201.388 277.805 201.468C277.946 201.487 278.053 201.552 278.134 201.628C278.146 201.609 278.158 201.59 278.171 201.57C278.334 201.32 278.464 201.213 278.588 201.111C278.684 201.031 278.783 200.95 278.938 200.757C279.006 200.672 279.059 200.598 279.103 200.535C279.239 200.346 279.416 200.12 279.729 200.124C280.062 200.14 280.237 200.416 280.353 200.599C280.56 200.925 280.653 201.16 280.715 201.316C280.738 201.373 280.764 201.438 280.777 201.457C280.884 201.616 281.758 201.468 282.088 201.414C282.828 201.29 283.468 201.183 283.731 201.651C283.92 201.985 283.78 202.426 283.302 202.999C283.153 203.177 282.994 203.312 282.853 203.418C282.97 203.488 283.074 203.595 283.117 203.763C283.216 204.16 282.875 204.559 282.103 204.948C281.911 205.045 281.653 205.175 281.291 205.238C281.121 205.267 280.967 205.274 280.836 205.278C280.833 205.354 280.815 205.437 280.769 205.521C280.634 205.771 280.351 205.889 279.926 205.861C279.458 205.836 279.072 205.747 278.732 205.669C278.435 205.6 278.179 205.543 277.979 205.556C277.606 205.586 277.319 205.885 276.982 206.272L276.141 207.256Z" fill="#F2F2F2"/>
<path d="M276.992 197.493L275.455 198.087L275.313 198.037C274.66 197.807 274.067 197.758 273.552 197.891C273.47 197.912 273.389 197.938 273.307 197.963C272.98 198.065 272.575 198.192 272.04 198.104C271.741 198.053 271.035 197.878 270.978 197.35C270.961 197.208 270.997 197.089 271.05 196.991C271.029 196.984 271.007 196.977 270.984 196.97C270.702 196.875 270.566 196.777 270.435 196.682C270.334 196.61 270.23 196.535 270.004 196.433C269.905 196.389 269.82 196.357 269.748 196.329C269.531 196.246 269.268 196.132 269.192 195.828C269.123 195.501 269.346 195.262 269.493 195.103C269.756 194.82 269.959 194.67 270.094 194.57C270.143 194.534 270.199 194.492 270.214 194.475C270.34 194.33 269.975 193.521 269.84 193.216C269.533 192.531 269.267 191.938 269.652 191.564C269.926 191.296 270.389 191.32 271.063 191.638C271.273 191.738 271.444 191.857 271.582 191.966C271.62 191.836 271.697 191.707 271.848 191.624C272.207 191.427 272.678 191.656 273.251 192.305C273.393 192.466 273.584 192.683 273.736 193.018C273.808 193.175 273.854 193.322 273.891 193.448C273.965 193.432 274.049 193.428 274.143 193.451C274.418 193.519 274.604 193.763 274.685 194.182C274.78 194.641 274.791 195.037 274.802 195.387C274.811 195.692 274.82 195.954 274.884 196.145C275.008 196.498 275.369 196.7 275.828 196.928L276.992 197.493Z" fill="#F2F2F2"/>
<path d="M276.141 192.663L275.958 191.023L276.042 190.899C276.43 190.324 276.627 189.763 276.63 189.23C276.63 189.145 276.626 189.06 276.622 188.974C276.606 188.632 276.586 188.207 276.808 187.711C276.932 187.435 277.281 186.795 277.805 186.874C277.946 186.894 278.053 186.959 278.134 187.035C278.146 187.016 278.158 186.997 278.171 186.977C278.334 186.727 278.464 186.62 278.588 186.517C278.684 186.438 278.783 186.357 278.938 186.163C279.006 186.079 279.059 186.004 279.103 185.942C279.239 185.753 279.416 185.527 279.729 185.531C280.062 185.547 280.237 185.823 280.353 186.006C280.56 186.332 280.653 186.567 280.715 186.723C280.738 186.78 280.764 186.844 280.777 186.864C280.884 187.022 281.758 186.874 282.088 186.821C282.828 186.697 283.468 186.59 283.731 187.057C283.92 187.391 283.78 187.833 283.302 188.406C283.153 188.584 282.994 188.719 282.853 188.825C282.97 188.895 283.074 189.002 283.117 189.17C283.216 189.567 282.875 189.965 282.103 190.355C281.911 190.452 281.653 190.582 281.291 190.645C281.121 190.674 280.967 190.681 280.836 190.685C280.833 190.761 280.815 190.843 280.769 190.928C280.634 191.177 280.351 191.296 279.926 191.268C279.458 191.243 279.072 191.154 278.732 191.075C278.435 191.007 278.179 190.949 277.979 190.963C277.606 190.993 277.319 191.291 276.982 191.679L276.141 192.663Z" fill="#F2F2F2"/>
<path d="M277.817 224.49L277.474 224.275L277.074 224.321C277.067 224.284 277.046 224.198 277.013 224.064C276.834 223.331 276.288 221.1 275.832 217.587C275.514 215.134 275.334 212.612 275.297 210.09C275.26 207.565 275.379 205.653 275.475 204.116C275.547 202.957 275.635 201.853 275.721 200.778C275.951 197.906 276.167 195.192 276.006 192.188C275.97 191.518 275.896 190.122 275.081 188.637C274.609 187.775 273.958 187.011 273.147 186.364L273.651 185.73C274.547 186.444 275.267 187.291 275.791 188.247C276.694 189.894 276.776 191.415 276.815 192.146C276.979 195.203 276.76 197.942 276.528 200.842C276.443 201.913 276.355 203.012 276.283 204.167C276.188 205.689 276.07 207.585 276.107 210.078C276.143 212.569 276.321 215.06 276.635 217.482C277.085 220.951 277.623 223.149 277.8 223.871C277.894 224.257 277.913 224.338 277.817 224.49Z" fill="#F2F2F2"/>
<path d="M271.662 187.653C271.628 187.653 271.595 187.652 271.561 187.649C270.871 187.612 270.233 187.199 269.663 186.422C269.395 186.056 269.259 185.638 268.986 184.806C268.943 184.678 268.738 184.027 268.613 183.132C268.531 182.547 268.541 182.302 268.657 182.086C268.786 181.845 268.994 181.677 269.228 181.564C269.217 181.487 269.226 181.407 269.259 181.325C269.397 180.987 269.764 181.031 269.963 181.053C270.063 181.065 270.188 181.082 270.324 181.075C270.536 181.065 270.651 181.001 270.824 180.906C270.99 180.815 271.195 180.702 271.501 180.639C272.104 180.514 272.609 180.685 272.775 180.741C273.651 181.033 274.083 181.715 274.582 182.504C274.682 182.662 275.024 183.239 275.25 184.029C275.413 184.599 275.39 184.852 275.341 185.041C275.241 185.428 275.006 185.65 274.408 186.139C273.784 186.651 273.471 186.908 273.202 187.064C272.577 187.425 272.184 187.653 271.662 187.653Z" fill="#F2F2F2"/>
<path d="M166.025 101.249C185.49 101.249 201.27 85.4494 201.27 65.9597C201.27 46.4701 185.49 30.6706 166.025 30.6706C146.559 30.6706 130.779 46.4701 130.779 65.9597C130.779 85.4494 146.559 101.249 166.025 101.249Z" fill="#FF6884"/>
<path d="M302.199 223.756C302.199 223.997 302.005 224.192 301.764 224.192H0V223.32H301.764C302.005 223.32 302.199 223.515 302.199 223.756Z" fill="#E6E6E6"/>
<path d="M256.73 223.723C256.73 243.499 258.804 257.974 237.293 259.531C214.196 261.203 217.857 243.499 217.857 223.723C217.857 203.947 214.747 184.282 237.293 187.915C247.892 189.622 256.73 203.947 256.73 223.723Z" fill="#3F3D56"/>
<path d="M224.076 248.633C225.794 248.633 227.186 237.48 227.186 223.723C227.186 209.965 225.794 198.813 224.076 198.813C222.359 198.813 220.966 209.965 220.966 223.723C220.966 237.48 222.359 248.633 224.076 248.633Z" fill="#E6E6E6"/>
<path d="M101.048 191.876C101.048 209.328 102.877 222.102 83.8949 223.476C63.5115 224.951 66.7422 209.328 66.7422 191.876C66.7422 174.424 63.9978 157.07 83.8949 160.276C93.2478 161.783 101.048 174.424 101.048 191.876Z" fill="#3F3D56"/>
<path d="M72.2311 213.859C73.7468 213.859 74.9755 204.017 74.9755 191.876C74.9755 179.736 73.7468 169.894 72.2311 169.894C70.7154 169.894 69.4867 179.736 69.4867 191.876C69.4867 204.017 70.7154 213.859 72.2311 213.859Z" fill="#E6E6E6"/>
<path d="M130.52 223.463C130.52 243.24 132.593 257.714 111.083 259.271C87.9854 260.943 91.6464 243.24 91.6464 223.463C91.6464 203.687 88.5365 184.023 111.083 187.655C121.682 189.363 130.52 203.687 130.52 223.463Z" fill="#3F3D56"/>
<path d="M97.8662 248.373C99.5837 248.373 100.976 237.221 100.976 223.463C100.976 209.706 99.5837 198.553 97.8662 198.553C96.1486 198.553 94.7563 209.706 94.7563 223.463C94.7563 237.221 96.1486 248.373 97.8662 248.373Z" fill="#E6E6E6"/>
<path d="M69.0996 150.031V162.306L65.7305 167.935L66.7672 187.655L67.6059 188.174L67.0263 168.194C72.9316 165.993 74.8626 170.048 74.2827 178.055L73.2461 191.547L89.8323 201.927L91.9055 180.649L99.6803 177.017L108.233 213.084H251.52C257.427 213.084 262.147 208.163 261.908 202.254L260.099 157.556L255.22 152.671L250.7 100.326C249.573 87.2724 238.518 77.3369 225.435 77.6192L135.8 79.5534C130.938 79.6583 126.134 80.6385 121.618 82.4472L99.9394 91.1292L85.9469 105.139L83.8716 138.873L78.5809 138.413C74.7751 138.081 71.3042 140.6 70.4336 144.324L69.0996 150.031Z" fill="#E6E6E6"/>
<path d="M115.489 198.553C118.352 198.553 120.672 196.23 120.672 193.364C120.672 190.498 118.352 188.174 115.489 188.174C112.626 188.174 110.306 190.498 110.306 193.364C110.306 196.23 112.626 198.553 115.489 198.553Z" fill="#3F3D56"/>
<path d="M127.41 198.553C130.273 198.553 132.593 196.23 132.593 193.364C132.593 190.498 130.273 188.174 127.41 188.174C124.548 188.174 122.227 190.498 122.227 193.364C122.227 196.23 124.548 198.553 127.41 198.553Z" fill="#3F3D56"/>
<path d="M243.513 198.553C246.376 198.553 248.696 196.23 248.696 193.364C248.696 190.498 246.376 188.174 243.513 188.174C240.651 188.174 238.33 190.498 238.33 193.364C238.33 196.23 240.651 198.553 243.513 198.553Z" fill="#3F3D56"/>
<path d="M255.434 198.553C258.297 198.553 260.618 196.23 260.618 193.364C260.618 190.498 258.297 188.174 255.434 188.174C252.572 188.174 250.251 190.498 250.251 193.364C250.251 196.23 252.572 198.553 255.434 198.553Z" fill="#3F3D56"/>
<path d="M247.346 144.619H125.493C124.561 144.619 123.694 144.247 123.051 143.572C122.409 142.897 122.079 142.012 122.123 141.081L123.903 103.392C123.987 101.61 125.449 100.196 127.23 100.173L242.288 98.69C243.987 98.6738 245.46 99.9352 245.678 101.639L250.693 140.811C250.816 141.773 250.52 142.743 249.879 143.472C249.239 144.201 248.315 144.619 247.346 144.619Z" fill="white"/>
<path d="M108.48 142.765H100.573C99.6352 142.765 98.732 142.37 98.0955 141.68C97.4587 140.991 97.1358 140.058 97.2094 139.122L99.4851 110.205C99.6099 108.617 100.797 107.351 102.372 107.126L110.542 105.957C111.565 105.812 112.583 106.134 113.335 106.845C114.087 107.556 114.468 108.555 114.381 109.586L111.842 139.671C111.693 141.435 110.247 142.765 108.48 142.765Z" fill="white"/>
<path d="M90.2974 142.031C90.2157 142.031 90.1334 142.028 90.0512 142.022L89.1229 141.956C88.2059 141.89 87.3745 141.466 86.7823 140.762C86.1901 140.058 85.9145 139.166 86.0059 138.249L88.5597 112.679C88.7111 111.165 89.8634 109.933 91.3627 109.682C92.3844 109.511 93.4109 109.813 94.179 110.508C94.9473 111.202 95.3503 112.194 95.2847 113.228L93.6589 138.866C93.6014 139.772 93.194 140.599 92.5111 141.196C91.8908 141.739 91.1126 142.031 90.2974 142.031Z" fill="white"/>
<path d="M77.4414 194.201L76.0968 164.821C76.0968 164.821 72.9869 160.669 70.9137 161.707C68.8404 162.745 65.7611 168.517 65.7611 168.517C65.7611 168.517 71.7705 168.123 71.6013 174.516C71.432 180.909 72.6309 191.251 72.6309 191.251L77.4414 194.201Z" fill="#CCCCCC"/>
<path d="M89.9586 201.878L90.6097 179.959L97.203 172.162C97.203 172.162 106.014 170.256 105.828 180.253C105.641 190.25 108.492 213.344 108.492 213.344L102.048 209.292C102.048 209.292 100.458 184.541 95.7929 181.947C91.128 179.352 92.683 181.428 92.683 181.428L89.9586 201.878Z" fill="#CCCCCC"/>
<path d="M83.0921 145.688L77.9837 142.765H78.5415C79.3383 142.765 79.9842 142.119 79.9842 141.321V128.641C79.9842 127.843 79.3383 127.197 78.5415 127.197H73.1339C72.3371 127.197 71.6912 127.843 71.6912 128.641V141.321C71.6912 142.119 72.3371 142.765 73.1339 142.765H75.8945L82.5778 146.589L83.0921 145.688Z" fill="#3F3D56"/>
<path d="M89.9937 164.687L86.0087 163.54C85.0458 163.262 84.0407 163.819 83.7638 164.783C83.487 165.747 84.0431 166.754 85.0059 167.031L88.991 168.178C89.9539 168.456 90.9589 167.899 91.2358 166.935C91.5127 165.971 90.9566 164.964 89.9937 164.687Z" fill="#3F3D56"/>
<path d="M252.34 127.845L235.3 127.109C234.299 127.066 233.453 127.843 233.41 128.845C233.366 129.847 234.143 130.695 235.144 130.738L252.183 131.475C253.184 131.518 254.031 130.74 254.074 129.738C254.117 128.736 253.341 127.889 252.34 127.845Z" fill="#3F3D56"/>
<path d="M268.408 162.096L251.368 161.36C250.367 161.317 249.521 162.094 249.477 163.096C249.434 164.099 250.211 164.946 251.212 164.989L268.251 165.726C269.252 165.769 270.099 164.992 270.142 163.989C270.185 162.987 269.409 162.14 268.408 162.096Z" fill="#3F3D56"/>
<path d="M198.938 201.667C220.694 201.667 238.33 184.009 238.33 162.226C238.33 140.444 220.694 122.786 198.938 122.786C177.182 122.786 159.546 140.444 159.546 162.226C159.546 184.009 177.182 201.667 198.938 201.667Z" fill="#3F3D56"/>
<path d="M198.938 185.579C211.82 185.579 222.262 175.124 222.262 162.226C222.262 149.329 211.82 138.873 198.938 138.873C186.056 138.873 175.614 149.329 175.614 162.226C175.614 175.124 186.056 185.579 198.938 185.579Z" fill="#E6E6E6"/>
<path d="M251.128 83.8984C251.326 86.2007 252.673 87.9644 254.137 87.8379C255.6 87.7113 256.625 85.7425 256.427 83.4395C256.36 82.5184 256.074 81.6267 255.592 80.839L254.629 71.0948L250.072 71.6448L251.505 81.1925C251.165 82.0514 251.036 82.9792 251.128 83.8984Z" fill="#FFB6B6"/>
<path d="M237.938 27.4916C237.938 27.4916 242.966 26.0734 244.899 28.4745C246.832 30.8757 254.042 54.4554 254.042 54.4554L256.281 79.8331L249.142 77.6702L246.364 57.6564L241.699 47.2773L237.938 27.4916Z" fill="#4D4988"/>
<path d="M236.296 12.2255H220.971V26.7764H236.296V12.2255Z" fill="#4A2F1B"/>
<path d="M228.471 22C232.598 22 235.944 16.2892 235.944 12.1572C235.944 8.02518 232.598 4.67554 228.471 4.67554C224.344 4.67554 220.999 8.02518 220.999 12.1572C220.999 16.2892 224.344 22 228.471 22Z" fill="#FFB6B6"/>
<path d="M224.934 0.0557449C220.158 0.795851 220.386 2.57265 218.857 3.49503C216.163 5.12005 215.1 9.81263 216.522 12.9092C216.903 13.7366 217.704 14.8653 217.315 16.0839C217.017 17.0195 216.156 17.5714 215.994 17.6713C214.671 18.4893 215.535 17.5162 214.937 18.2004C214.277 18.9557 215.3 20.0226 214.673 21.3751C214.117 22.5743 212.972 22.473 212.823 23.2271C212.567 24.5255 215.507 27.1362 218.636 26.9309C221.422 26.7481 223.492 24.3898 224.185 22.1688C224.65 20.6811 224.85 18.122 223.657 16.8776C223.489 16.7031 223.032 16.2805 222.6 15.5548C222.258 14.9806 221.808 14.2247 222.071 13.7029C222.352 13.147 223.149 13.4396 223.657 12.9092C224.345 12.1899 223.527 10.9747 223.657 9.73448C223.876 7.6344 226.848 5.10857 229.998 5.5015C233.572 5.94724 234.883 9.83837 235.019 10.2636C235.3 11.1449 235.294 11.9976 235.283 13.7029C235.267 16.1501 235.257 17.684 234.49 19.2587C233.388 21.5235 231.983 21.2788 231.584 22.9625C230.961 25.5876 233.891 28.2241 234.226 28.5183C236.711 30.6991 240.464 31.3548 241.096 30.3702C241.666 29.4829 239.164 28.1027 239.247 25.3435C239.319 22.9525 241.251 22.2236 240.832 20.5815C240.371 18.7739 237.909 19.1862 236.868 17.1422C235.898 15.2343 237.687 14.1757 237.397 10.2636C237.336 9.43604 237.076 7.06093 235.547 4.70782C234.874 3.67115 234.189 2.61682 232.905 2.06222C231.468 1.44135 227.46 -0.335736 224.934 0.0557449Z" fill="#4A2F1B"/>
<path d="M221.763 6.66975C221.957 8.30801 224.414 9.11086 225.463 9.31535C225.907 9.40197 227.407 9.69463 228.898 9.0508C229.449 8.81281 229.649 8.5976 230.219 8.52168C230.99 8.41891 231.378 8.71254 232.597 9.0508C233.952 9.42694 234.63 9.61502 234.975 9.31535C235.54 8.82551 235.106 7.223 234.447 6.14063C233.227 4.13927 230.996 3.51954 229.955 3.23046C228.765 2.90021 226.352 2.23002 224.141 3.49502C223.846 3.66415 221.566 5.00527 221.763 6.66975Z" fill="#4A2F1B"/>
<path d="M258.137 153.87L261.95 153.96L264.076 136.805L258.448 136.671L258.137 153.87Z" fill="#FFB6B6"/>
<path d="M271.221 161.837C271.221 162.482 270.764 163.005 270.2 163.005H262.63C262.63 163.005 261.885 160.006 258.848 158.716L258.638 163.005H254.733L255.206 156.109C255.206 156.109 254.161 152.42 256.331 150.534C258.5 148.648 256.743 148.91 256.743 148.91L257.597 144.642L263.498 145.337L263.541 152.037L266.405 158.687L270.605 160.765C270.979 160.95 271.221 161.371 271.221 161.837Z" fill="#2F2E41"/>
<path d="M240.797 120.269L244.526 119.465L242.593 102.287L237.09 103.473L240.797 120.269Z" fill="#FFB6B6"/>
<path d="M255.378 124.957C255.528 125.584 255.205 126.2 254.657 126.332L247.296 128.101C247.296 128.101 245.872 125.36 242.618 124.815L243.414 129.034L239.617 129.947L238.469 123.131C238.469 123.131 236.593 119.788 238.263 117.447C239.933 115.106 238.285 115.772 238.285 115.772L238.12 111.422L244.02 110.719L245.625 117.223L249.96 123.02L254.529 124.059C254.935 124.151 255.269 124.504 255.378 124.957Z" fill="#2F2E41"/>
<path d="M233.665 20.551L224.335 21.0699L221.744 26.2595L211.896 31.4491L213.451 57.0394L209.898 69.9106L210.341 73.4846L245.068 72.4467L242.995 34.0439L243.513 27.8164L236.775 25.7405L233.665 20.551Z" fill="#4D4988"/>
<path d="M210.6 68.5545C210.6 68.5545 202.825 82.3089 210.6 84.254C214.059 85.1193 217.723 85.7023 220.725 86.083C224.319 86.5388 227.627 84.0686 228.223 80.4905L236.516 109.033L244.809 106.957L246.364 92.0996L256.441 102.189L255.175 142.765L264.505 142.246L274.353 98.1351C274.353 98.1351 274.871 95.0213 267.097 90.8697C259.322 86.718 245.327 73.2251 245.327 73.2251L221.485 65.9597L210.6 68.5545Z" fill="#2F2E41"/>
<path d="M226.927 77.6363L213.451 68.814L230.037 51.1694C230.037 51.1694 239.367 47.5367 241.958 61.5486C244.55 75.5604 246.105 88.0154 246.105 88.0154L226.927 77.6363Z" fill="#2F2E41"/>
<path d="M199.122 51.2982L199.713 47.2772C200.143 44.3469 198.202 41.7895 195.569 41.1599V39.4929C195.569 38.0598 194.409 36.8981 192.977 36.8981C191.546 36.8981 190.386 38.0598 190.386 39.4929V41.7166L180.538 43.8081V41.0498C180.538 39.6167 179.377 38.455 177.946 38.455C176.515 38.455 175.355 39.6167 175.355 41.0498V43.6713L174.375 43.4156C171.452 42.6519 169.142 46.0106 170.96 48.4267C170.984 48.458 171.008 48.4892 171.032 48.5205C173.46 51.6454 174.153 54.4232 174.153 54.4232L172.419 63.798L174.394 83.2888C174.649 85.8009 176.808 87.6832 179.328 87.5897L198.502 86.8787C201.02 86.7853 203.036 84.7524 203.105 82.2303C203.349 73.2468 203.377 53.6948 199.122 51.2982Z" fill="#3F3D56"/>
<path d="M181.955 84.9764C181.687 84.9764 181.459 84.7689 181.439 84.4962L180.399 70.6075C180.377 70.3217 180.591 70.0726 180.877 70.0513C181.16 70.029 181.411 70.2442 181.432 70.53L182.473 84.4187C182.494 84.7045 182.28 84.9536 181.995 84.9749C181.982 84.9759 181.968 84.9764 181.955 84.9764Z" fill="#FFB6B6"/>
<path d="M174.152 54.9423C173.9 54.9423 173.678 54.7565 173.64 54.4986C173.599 54.215 173.795 53.9515 174.078 53.9099L199.128 50.2341C199.411 50.1931 199.674 50.3887 199.716 50.6723C199.757 50.9558 199.561 51.2193 199.278 51.2609L174.228 54.9367C174.203 54.9405 174.177 54.9423 174.152 54.9423Z" fill="#FFB6B6"/>
<path d="M27.0026 205.308C26.828 205.013 26.0726 205.329 25.9337 205.061C25.7953 204.795 26.4972 204.389 26.8982 203.461C26.9705 203.293 27.4262 202.239 27.0889 201.913C26.4494 201.296 23.5231 203.842 22.499 203.009C22.2743 202.826 22.1173 202.461 21.4371 201.869C21.1665 201.633 21.0029 201.527 20.8445 201.566C20.6198 201.622 20.602 201.923 20.3611 202.515C19.9997 203.403 19.786 203.35 19.5755 204.058C19.4192 204.584 19.4549 204.89 19.271 204.949C19.0107 205.033 18.7712 204.476 18.4414 204.526C18.1048 204.577 17.9013 205.226 17.8371 205.712C17.7164 206.625 18.0511 207.227 18.2366 207.86C18.4382 208.548 18.5578 209.594 18.0923 211.076L13.4846 224.074C14.5018 221.407 17.4472 214.095 18.6849 211.378C19.0422 210.594 19.4367 209.798 20.2467 209.484C21.0266 209.182 22.0976 209.362 23.4631 209.033C23.6225 208.995 24.0651 208.882 24.1208 208.621C24.1668 208.406 23.9065 208.285 23.9465 208.084C24.0001 207.813 24.512 207.81 25.141 207.497C25.5846 207.277 25.8609 207.015 26.0985 206.79C26.1702 206.722 27.2351 205.701 27.0026 205.308Z" fill="#F2F2F2"/>
<path d="M8.87455 212.151C8.67964 212.152 8.6164 212.614 8.44517 212.605C8.27455 212.596 8.27795 212.134 7.93877 211.669C7.87761 211.585 7.49215 211.057 7.2353 211.129C6.74844 211.265 7.15184 213.438 6.44805 213.701C6.29359 213.758 6.06941 213.73 5.58271 213.894C5.38909 213.958 5.28971 214.008 5.26343 214.097C5.22614 214.224 5.3686 214.32 5.58929 214.609C5.92026 215.043 5.83231 215.132 6.11881 215.44C6.33149 215.669 6.49165 215.739 6.46779 215.847C6.43402 215.999 6.09148 215.956 6.0208 216.132C5.94868 216.312 6.20832 216.6 6.42813 216.772C6.84062 217.094 7.23233 217.103 7.5962 217.195C7.99164 217.294 8.53908 217.538 9.13087 218.194L14.1732 224.208C13.1592 222.939 10.4249 219.382 9.45014 217.99C9.16874 217.588 8.89258 217.164 8.97238 216.676C9.04921 216.205 9.44671 215.731 9.67924 214.965C9.7064 214.876 9.77882 214.626 9.66714 214.523C9.57481 214.438 9.44076 214.531 9.35338 214.454C9.23617 214.349 9.38224 214.097 9.41065 213.697C9.43069 213.416 9.38205 213.205 9.34021 213.023C9.3276 212.968 9.13401 212.15 8.87455 212.151Z" fill="#F2F2F2"/>
<path d="M12.763 213.025L12.6455 211.975L12.6992 211.896C12.9475 211.528 13.074 211.168 13.0755 210.827C13.0758 210.773 13.0733 210.719 13.0707 210.664C13.0606 210.445 13.0479 210.173 13.1897 209.855C13.2691 209.678 13.4924 209.269 13.8279 209.32C13.9183 209.332 13.9866 209.374 14.0385 209.423L14.0623 209.385C14.1668 209.225 14.2496 209.157 14.3293 209.091C14.3906 209.04 14.4538 208.988 14.553 208.865C14.5966 208.81 14.6305 208.763 14.6591 208.723C14.7459 208.602 14.8593 208.457 15.0592 208.46C15.2728 208.47 15.3847 208.647 15.4588 208.764C15.5912 208.972 15.6512 209.123 15.6909 209.223C15.7053 209.259 15.7218 209.3 15.7301 209.313C15.799 209.414 16.3585 209.32 16.5694 209.285C17.0429 209.206 17.4526 209.138 17.6214 209.437C17.7424 209.651 17.6526 209.933 17.3463 210.3C17.2509 210.414 17.1494 210.5 17.0593 210.568C17.134 210.613 17.2008 210.681 17.2279 210.789C17.2917 211.043 17.0733 211.298 16.579 211.548C16.4562 211.61 16.291 211.693 16.0594 211.733C15.9503 211.752 15.8521 211.756 15.7681 211.759C15.7663 211.808 15.7549 211.86 15.7253 211.914C15.6385 212.074 15.4578 212.15 15.1855 212.132C14.8859 212.116 14.6391 212.059 14.4214 212.009C14.2314 211.965 14.0676 211.928 13.9391 211.937C13.7007 211.956 13.5169 212.147 13.3013 212.395L12.763 213.025Z" fill="#F2F2F2"/>
<path d="M13.3077 206.776L12.3235 207.156L12.233 207.124C11.8146 206.977 11.4354 206.945 11.1055 207.03C11.053 207.044 11.0013 207.06 10.9485 207.077C10.7396 207.142 10.4799 207.223 10.1374 207.166C9.94641 207.134 9.49418 207.022 9.45802 206.684C9.44734 206.593 9.47016 206.517 9.504 206.454L9.46174 206.44C9.28099 206.38 9.19391 206.317 9.11003 206.256C9.04554 206.21 8.97906 206.162 8.83443 206.097C8.771 206.069 8.71637 206.048 8.67044 206.031C8.5314 205.977 8.3631 205.904 8.31484 205.71C8.27045 205.5 8.41295 205.347 8.50724 205.246C8.67539 205.064 8.80559 204.968 8.89197 204.904C8.92356 204.881 8.95905 204.855 8.96917 204.843C9.04963 204.751 8.81614 204.233 8.72937 204.038C8.53288 203.599 8.36285 203.22 8.60891 202.98C8.78484 202.809 9.08083 202.824 9.5125 203.028C9.64686 203.091 9.75633 203.168 9.84479 203.238C9.86894 203.154 9.91809 203.072 10.015 203.019C10.2446 202.892 10.5463 203.039 10.9126 203.455C11.0039 203.558 11.1261 203.697 11.2236 203.911C11.2693 204.012 11.2987 204.106 11.3224 204.186C11.3699 204.176 11.4237 204.173 11.4836 204.188C11.6598 204.232 11.7791 204.388 11.8305 204.656C11.8914 204.95 11.8986 205.204 11.9054 205.427C11.9115 205.622 11.9173 205.79 11.9582 205.913C12.0373 206.139 12.2685 206.268 12.5626 206.414L13.3077 206.776Z" fill="#F2F2F2"/>
<path d="M12.763 203.684L12.6455 202.634L12.6992 202.554C12.9475 202.187 13.074 201.827 13.0755 201.486C13.0758 201.432 13.0733 201.378 13.0707 201.322C13.0606 201.104 13.0479 200.831 13.1897 200.514C13.2691 200.337 13.4924 199.928 13.8279 199.978C13.9183 199.991 13.9866 200.033 14.0385 200.081L14.0623 200.044C14.1668 199.884 14.2496 199.816 14.3293 199.75C14.3906 199.699 14.4538 199.647 14.553 199.523C14.5966 199.469 14.6305 199.421 14.6591 199.381C14.7459 199.26 14.8593 199.116 15.0592 199.118C15.2728 199.129 15.3847 199.305 15.4588 199.422C15.5912 199.631 15.6512 199.782 15.6909 199.882C15.7053 199.918 15.7218 199.959 15.7301 199.972C15.799 200.073 16.3585 199.978 16.5694 199.944C17.0429 199.865 17.4526 199.796 17.6214 200.096C17.7424 200.309 17.6526 200.592 17.3463 200.959C17.2509 201.073 17.1494 201.159 17.0593 201.227C17.134 201.272 17.2008 201.34 17.2279 201.448C17.2917 201.702 17.0733 201.957 16.579 202.206C16.4562 202.269 16.291 202.352 16.0594 202.392C15.9503 202.411 15.8521 202.415 15.7681 202.418C15.7663 202.466 15.7549 202.519 15.7253 202.573C15.6385 202.733 15.4578 202.809 15.1855 202.791C14.8859 202.775 14.6391 202.718 14.4214 202.667C14.2314 202.624 14.0676 202.587 13.9391 202.596C13.7007 202.615 13.5169 202.806 13.3013 203.054L12.763 203.684Z" fill="#F2F2F2"/>
<path d="M13.8355 224.057L13.6159 223.919L13.3597 223.948C13.3557 223.924 13.3418 223.87 13.3208 223.784C13.2061 223.315 12.8566 221.887 12.5651 219.637C12.3616 218.067 12.2464 216.453 12.2226 214.839C12.1988 213.222 12.2753 211.999 12.3365 211.015C12.3828 210.273 12.439 209.566 12.4942 208.878C12.641 207.04 12.7794 205.303 12.6764 203.38C12.6536 202.951 12.6058 202.057 12.0845 201.107C11.782 200.555 11.3654 200.066 10.8461 199.652L11.1691 199.246C11.7423 199.703 12.2032 200.245 12.539 200.857C13.117 201.911 13.1692 202.885 13.1942 203.353C13.299 205.309 13.1591 207.063 13.0108 208.919C12.9561 209.605 12.8999 210.308 12.8538 211.047C12.7931 212.022 12.7174 213.235 12.741 214.831C12.7643 216.426 12.8781 218.02 13.0788 219.571C13.3668 221.791 13.7113 223.198 13.8244 223.66C13.8847 223.907 13.8973 223.959 13.8355 224.057Z" fill="#F2F2F2"/>
<path d="M9.89554 200.477C9.87428 200.477 9.85277 200.476 9.831 200.475C9.38962 200.451 8.98089 200.186 8.61594 199.689C8.44486 199.454 8.35729 199.187 8.18266 198.655C8.15558 198.573 8.02398 198.156 7.944 197.583C7.89162 197.208 7.89819 197.052 7.97235 196.913C8.0546 196.759 8.18772 196.652 8.33755 196.579C8.33097 196.53 8.33628 196.479 8.3578 196.426C8.44612 196.21 8.68099 196.238 8.80803 196.252C8.87231 196.26 8.95254 196.271 9.0391 196.266C9.17526 196.26 9.2484 196.219 9.35925 196.158C9.46529 196.1 9.59715 196.027 9.79279 195.987C10.1785 195.907 10.5017 196.016 10.6082 196.052C11.1688 196.239 11.4452 196.676 11.7651 197.181C11.8288 197.282 12.0478 197.651 12.1923 198.157C12.2965 198.522 12.2819 198.684 12.2505 198.805C12.1867 199.053 12.0361 199.194 11.6537 199.508C11.2543 199.836 11.0539 200 10.8818 200.1C10.4812 200.331 10.2296 200.477 9.89554 200.477Z" fill="#F2F2F2"/>
<path d="M316.851 146.184L317.089 127.64L309.979 125.682L310.194 146.187L308.559 161.34L308.601 161.356C307.915 162.046 307.359 163.148 307.122 164.451C306.69 166.828 307.482 168.963 308.892 169.22C310.301 169.477 311.795 167.759 312.227 165.381C312.404 164.406 312.373 163.473 312.179 162.692L312.243 162.716L316.851 146.184Z" fill="#E6B3A3"/>
<path d="M303.921 102.592C303.921 102.592 307.147 100.122 309.425 103.733C311.702 107.343 317.966 125.587 317.966 125.587C317.966 125.587 319.777 133.948 319.346 135.183C318.915 136.418 318.345 147.29 318.345 147.29L309.446 145.674L309.662 135.183L301.182 121.631L303.921 102.592Z" fill="#CCCCCC"/>
<path d="M244.322 95.8574L256.793 109.571L263.323 106.142L249.185 91.3052L240.048 79.115L240.006 79.1325C240.036 78.1592 239.691 76.9737 238.976 75.8599C237.671 73.8274 235.636 72.8088 234.431 73.5845C233.226 74.3603 233.307 76.6368 234.612 78.6692C235.147 79.5035 235.806 80.1632 236.48 80.6018L236.418 80.6278L244.322 95.8574Z" fill="#E6B3A3"/>
<path d="M284.206 118.872C284.206 118.872 283.533 122.882 279.407 121.801C275.281 120.719 258.265 111.67 258.265 111.67C258.265 111.67 251.24 106.799 250.713 105.601C250.186 104.404 243.189 96.0709 243.189 96.0709L250.793 91.169L257.789 98.9818L273.226 103.088L284.206 118.872Z" fill="#CCCCCC"/>
<path d="M286.569 96.5C292.039 96.5 296.473 87.6695 296.473 82.193C296.473 76.7165 292.039 72.277 286.569 72.277C281.1 72.277 276.5 76.7165 276.5 82.193C276.5 87.6695 281.1 96.5 286.569 96.5Z" fill="#E7B3A3"/>
<path d="M303.943 255.906L297.796 255.905L294.872 232.167H303.945L303.943 255.906Z" fill="#E6B3A3"/>
<path d="M282.884 255.766C282.692 256.089 282.591 257.131 282.591 257.506C282.591 258.66 283.525 259.595 284.678 259.595H303.713C304.499 259.595 305.137 258.957 305.137 258.17V257.376C305.137 257.376 306.078 254.991 304.14 252.052C304.14 252.052 301.73 254.354 298.129 250.749L297.068 248.823L289.382 254.451L285.122 254.976C284.189 255.091 283.363 254.958 282.884 255.766Z" fill="#2F2E41"/>
<path d="M286.321 255.906L280.174 255.905L277.25 232.167H286.322L286.321 255.906Z" fill="#E6B3A3"/>
<path d="M265.261 255.766C265.069 256.089 264.968 257.131 264.968 257.506C264.968 258.66 265.903 259.595 267.055 259.595H286.091C286.877 259.595 287.514 258.957 287.514 258.17V257.376C287.514 257.376 288.456 254.991 286.517 252.052C286.517 252.052 284.107 254.354 280.507 250.749L279.445 248.823L271.759 254.451L267.499 254.976C266.567 255.091 265.74 254.958 265.261 255.766Z" fill="#2F2E41"/>
<path d="M308.303 152.885L268.392 154.961L277.204 245.259L286.015 244.741L289.125 190.25L290.421 170.789L295.706 243.247L304.675 243.184L308.303 152.885Z" fill="#2F2E41"/>
<path d="M296.48 94.7618L281.364 94.2429L271.243 104.32V137.331L267.291 158.075C267.291 158.075 293.874 155.48 299.086 160.669C304.298 165.859 313.68 162.226 313.68 162.226L308.989 134.781L306.904 103.065L296.48 94.7618Z" fill="#CCCCCC"/>
<path d="M289 92.8908H284L280.036 87.5C280.036 87.5 281.173 82.3894 280.036 82.1205C278.899 81.8516 277.369 80.5 277.369 80.5L278.837 77.0298C278.837 77.0298 274.155 76.5233 275.56 75.654C276.966 74.7847 277.169 75.1763 277.369 73.0774C277.781 68.7344 291.054 69.3683 292.085 71.7512C292.085 71.7512 293.79 72.1546 294.658 73.5617C295.526 74.9688 295.96 75.6723 296.529 75.8068C297.097 75.9412 297.397 77.2139 297.397 77.2139C297.397 77.2139 299.402 78.8899 298.699 79.3246C297.997 79.7592 297.46 82.0357 297.46 82.0357C297.46 82.0357 299.33 84.2808 295.146 89.2996L292.916 92.8908H289Z" fill="#463404"/>
<path d="M301.749 106.491L302.339 102.47C302.77 99.5398 300.828 96.9824 298.196 96.3529V94.6858C298.196 93.2528 297.035 92.091 295.604 92.091C294.173 92.091 293.012 93.2528 293.012 94.6858V96.9095L283.164 99.0011V96.2427C283.164 94.8096 282.004 93.6479 280.573 93.6479C279.142 93.6479 277.981 94.8096 277.981 96.2427V98.8643L277.002 98.6085C274.078 97.8449 271.769 101.204 273.587 103.62C273.611 103.651 273.635 103.682 273.659 103.713C276.086 106.838 276.78 109.616 276.78 109.616L275.046 118.991L277.021 138.482C277.275 140.994 279.435 142.876 281.955 142.783L301.129 142.072C303.647 141.978 305.663 139.945 305.732 137.423C305.976 128.44 306.004 108.888 301.749 106.491Z" fill="#3F3D56"/>
<path d="M284.582 140.169C284.313 140.169 284.086 139.962 284.066 139.689L283.026 125.8C283.004 125.515 283.218 125.266 283.504 125.244C283.787 125.222 284.038 125.437 284.059 125.723L285.1 139.612C285.121 139.897 284.907 140.147 284.621 140.168C284.608 140.169 284.595 140.169 284.582 140.169Z" fill="white"/>
<path d="M276.779 110.135C276.526 110.135 276.305 109.949 276.267 109.692C276.226 109.408 276.422 109.144 276.705 109.103L301.755 105.427C302.038 105.386 302.301 105.582 302.342 105.865C302.384 106.149 302.188 106.412 301.905 106.454L276.855 110.13C276.83 110.133 276.804 110.135 276.779 110.135Z" fill="white"/>
<path d="M277.922 141L268.133 117.336L270.725 118.374L281.15 139.341L277.922 141Z" fill="#3F3D56"/>
<path d="M339 259.564C339 259.805 338.805 260 338.565 260H36.8005V259.128H338.565C338.805 259.128 339 259.323 339 259.564Z" fill="#E6E6E6"/>
<path d="M232.038 74.5589C233.719 76.1423 235.897 76.5573 236.904 75.486C237.91 74.4147 237.363 72.2631 235.681 70.6794C235.018 70.0375 234.211 69.564 233.327 69.2985L226.12 62.6797L223.09 66.1322L230.517 72.2906C230.836 73.1575 231.357 73.9353 232.038 74.5589Z" fill="#FFB6B6"/>
<path d="M225.87 40.2671C225.87 40.2671 217.083 29.3073 213.71 30.1516C209.563 31.1896 210.6 35.3412 206.311 46.4449C205.237 49.2257 204.109 51.9209 206.277 53.9651L212.254 59.6013L224.996 70.3584L230.122 64.9855L219.938 51.8368L225.87 40.2671Z" fill="#4D4988"/>
</g>
<path d="M112.415 210H111.307L114.511 201.273H115.602L118.807 210H117.699L115.091 202.653H115.023L112.415 210ZM112.824 206.591H117.29V207.528H112.824V206.591ZM122.859 210H120.166V201.273H122.979C123.825 201.273 124.55 201.447 125.152 201.797C125.754 202.143 126.216 202.642 126.537 203.293C126.858 203.94 127.018 204.716 127.018 205.619C127.018 206.528 126.857 207.311 126.533 207.967C126.209 208.621 125.737 209.124 125.118 209.476C124.499 209.825 123.746 210 122.859 210ZM121.223 209.062H122.791C123.513 209.062 124.111 208.923 124.585 208.645C125.06 208.366 125.413 207.97 125.646 207.456C125.879 206.942 125.996 206.33 125.996 205.619C125.996 204.915 125.881 204.308 125.651 203.8C125.42 203.288 125.077 202.896 124.619 202.624C124.162 202.348 123.592 202.21 122.911 202.21H121.223V209.062ZM128.739 201.273L131.33 208.619H131.432L134.023 201.273H135.131L131.926 210H130.836L127.631 201.273H128.739ZM136.49 210V201.273H141.757V202.21H137.547V205.159H141.485V206.097H137.547V209.062H141.826V210H136.49ZM150.583 201.273V210H149.56L144.804 203.148H144.719V210H143.662V201.273H144.685L149.458 208.142H149.543V201.273H150.583ZM152.22 202.21V201.273H158.766V202.21H156.021V210H154.964V202.21H152.22ZM166.124 201.273H167.181V207.051C167.181 207.648 167.04 208.18 166.759 208.649C166.48 209.115 166.087 209.483 165.578 209.753C165.07 210.02 164.473 210.153 163.789 210.153C163.104 210.153 162.507 210.02 161.999 209.753C161.49 209.483 161.096 209.115 160.814 208.649C160.536 208.18 160.397 207.648 160.397 207.051V201.273H161.453V206.966C161.453 207.392 161.547 207.771 161.735 208.104C161.922 208.433 162.189 208.693 162.536 208.884C162.885 209.071 163.303 209.165 163.789 209.165C164.275 209.165 164.692 209.071 165.042 208.884C165.391 208.693 165.658 208.433 165.843 208.104C166.03 207.771 166.124 207.392 166.124 206.966V201.273ZM169.291 210V201.273H172.24C172.922 201.273 173.482 201.389 173.919 201.622C174.357 201.852 174.68 202.169 174.891 202.572C175.101 202.976 175.206 203.435 175.206 203.949C175.206 204.463 175.101 204.919 174.891 205.317C174.68 205.714 174.358 206.027 173.923 206.254C173.489 206.479 172.933 206.591 172.257 206.591H169.871V205.636H172.223C172.689 205.636 173.064 205.568 173.348 205.432C173.635 205.295 173.842 205.102 173.97 204.852C174.101 204.599 174.166 204.298 174.166 203.949C174.166 203.599 174.101 203.294 173.97 203.033C173.839 202.771 173.631 202.57 173.344 202.428C173.057 202.283 172.678 202.21 172.206 202.21H170.348V210H169.291ZM173.399 206.08L175.547 210H174.32L172.206 206.08H173.399ZM176.967 210V201.273H182.234V202.21H178.024V205.159H181.961V206.097H178.024V209.062H182.302V210H176.967Z" fill="#3F3D56"/>
</g>
<defs>
<clipPath id="clip0_3_510">
<rect width="339" height="260" fill="white"/>
</clipPath>
</defs>
</svg>
